/* XPM */
static char *euno64[] = {
/* columns rows colors chars-per-pixel */
"64 64 156 2 ",
"   c #381C87",
".  c #4423A4",
"X  c #4C27B6",
"o  c #522BC4",
"O  c #552DCB",
"+  c #562DCE",
"@  c #572ECE",
"#  c #572FCE",
"$  c #572ECF",
"%  c #5730CE",
"&  c #5731CF",
"*  c #5831CF",
"=  c #5832CF",
"-  c #5833CF",
";  c #5833D0",
":  c #5834D0",
">  c #5835D0",
",  c #5935D0",
"<  c #5936D0",
"1  c #5936D1",
"2  c #5937D1",
"3  c #5938D1",
"4  c #5A38D1",
"5  c #5A39D1",
"6  c #5A39D2",
"7  c #5A3AD2",
"8  c #5A3BD2",
"9  c #5A3CD2",
"0  c #5B3CD2",
"q  c #5B3CD3",
"w  c #5B3DD3",
"e  c #5B3ED3",
"r  c #5B3FD3",
"t  c #5B3FD4",
"y  c #5C3FD4",
"u  c #5C40D4",
"i  c #5C41D4",
"p  c #5C42D4",
"a  c #5C42D5",
"s  c #5C43D5",
"d  c #5D43D5",
"f  c #5D44D5",
"g  c #5D45D5",
"h  c #5D45D6",
"j  c #5D46D6",
"k  c #5E46D6",
"l  c #5E47D6",
"z  c #5E48D6",
"x  c #5E48D7",
"c  c #5E49D7",
"v  c #5E4AD7",
"b  c #5F4AD7",
"n  c #5F4BD7",
"m  c #5F4BD8",
"M  c #5F4CD8",
"N  c #5F4DD8",
"B  c #604DD8",
"V  c #604ED8",
"C  c #604ED9",
"Z  c #604FD9",
"A  c #6050D9",
"S  c #6051D9",
"D  c #6051DA",
"F  c #6151DA",
"G  c #6152DA",
"H  c #6153DA",
"J  c #6154DA",
"K  c #6154DB",
"L  c #6255DB",
"P  c #6256DB",
"I  c #6257DB",
"U  c #6257DC",
"Y  c #6258DC",
"T  c #6358DC",
"R  c #6359DC",
"E  c #635ADC",
"W  c #635ADD",
"Q  c #635BDD",
"!  c #645BDD",
"~  c #645CDD",
"^  c #645DDD",
"/  c #645DDE",
"(  c #645EDE",
")  c #645FDE",
"_  c #655FDE",
"`  c #6560DE",
"'  c #6560DF",
"]  c #6561DF",
"[  c #6562DF",
"{  c #6563DF",
"}  c #6663E0",
"|  c #6664E0",
" . c #6665E0",
".. c #6665E1",
"X. c #6666E1",
"o. c #6766E1",
"O. c #6767E1",
"+. c #6768E1",
"@. c #6768E2",
"#. c #6769E2",
"$. c #676AE2",
"%. c #686AE2",
"&. c #686BE2",
"*. c #686BE3",
"=. c #686CE2",
"-. c #686CE3",
";. c #686DE3",
":. c #696DE3",
">. c #696EE3",
",. c #696FE3",
"<. c #696EE4",
"1. c #696FE4",
"2. c #6970E4",
"3. c #6971E4",
"4. c #6A70E4",
"5. c #6A71E4",
"6. c #6A71E5",
"7. c #6A72E5",
"8. c #6A73E5",
"9. c #6A74E5",
"0. c #6B74E5",
"q. c #6A74E6",
"w. c #6B74E6",
"e. c #6B75E6",
"r. c #6B76E6",
"t. c #6B77E6",
"y. c #6B77E7",
"u. c #6C77E7",
"i. c #6B78E7",
"p. c #6C78E7",
"a. c #6C79E7",
"s. c #6C7AE7",
"d. c #6C7AE8",
"f. c #6C7BE8",
"g. c #6D7BE8",
"h. c #6D7CE8",
"j. c #6D7DE8",
"k. c #6D7DE9",
"l. c #6D7EE9",
"z. c #6D7FE9",
"x. c #6E7EE9",
"c. c #6E7FE9",
"v. c #6E80E9",
"b. c #6E80EA",
"n. c #6E81EA",
"m. c #6E82EA",
"M. c #6F82EA",
"N. c #6F83EA",
"B. c #6F83EB",
"V. c #6F84EB",
"C. c #6F85EB",
"Z. c #6F86EB",
"A. c #7086EB",
"S. c #7086EC",
"D. c #7087EC",
"F. c None",
/* pixels */
"F.F.F.F.F.F.F.F.F.F.F.F.F.F.F.F.F.F.F.F.F.F.F.F.F.F.F.F.F.F.F.F.F.F.F.F.F.F.F.F.F.F.F.F.F.F.F.F.F.F.F.F.F.F.F.F.F.F.F.F.F.F.F.F.",
"F.F.F.F.F.F.F.F.F.F.F.F.F.F.F.F.F.F.F.F.F.F.F.F.F.F.F.F.F.F.F.F.F.F.F.F.F.F.F.F.F.F.F.F.F.F.F.F.F.F.F.F.F.F.F.F.F.F.F.F.F.F.F.F.",
"F.F.F.F.F.F.F.F.n.n.n.m.m.m.m.m.m.M.M.M.N.N.N.N.N.B.B.B.V.V.V.V.V.V.V.V.C.C.C.C.C.C.C.C.Z.A.A.S.S.S.S.S.D.D.D.D.F.F.F.F.F.F.F.F.",
"F.F.F.F.F.F.c.c.c.v.v.v.b.b.b.b.b.b.n.n.n.n.n.m.m.m.m.m.M.M.M.M.M.N.N.N.B.B.B.B.B.B.V.V.V.V.V.V.C.C.C.C.C.C.C.Z.Z.C.F.F.F.F.F.F.",
"F.F.F.F.F.F.k.k.l.l.l.l.l.x.x.x.z.z.c.c.c.c.c.v.v.v.v.b.b.b.b.b.b.n.n.n.n.n.n.m.m.m.m.M.M.M.M.M.N.N.N.B.B.B.B.B.V.V.B.F.F.F.F.F.",
"F.F.F.F.F.g.h.h.h.h.h.h.j.j.j.j.j.k.k.k.k.k.l.l.l.l.l.x.x.x.x.z.z.c.c.c.c.c.v.v.v.b.b.b.b.b.b.n.n.n.n.n.n.n.m.m.m.m.M.F.F.F.F.F.",
"F.F.F.F.F.s.s.s.s.s.d.d.f.f.f.f.f.g.g.g.h.h.h.h.h.h.h.h.j.j.j.j.j.k.k.k.k.l.l.l.l.l.l.x.z.z.z.c.c.c.c.c.c.v.v.v.b.b.b.F.F.F.F.F.",
"F.F.F.F.F.p.p.p.p.p.a.a.a.a.a.a.a.a.s.s.s.s.s.d.s.d.d.d.f.f.f.f.g.g.g.g.h.h.h.h.h.h.j.j.j.j.j.k.k.k.k.k.l.l.l.l.l.l.x.F.F.F.F.F.",
"F.F.F.F.F.r.r.r.t.t.t.t.t.y.y.y.i.y.i.p.p.p.p.p.p.a.a.a.a.a.a.a.s.s.s.s.s.s.s.d.d.d.d.f.f.f.g.g.g.h.g.h.h.h.h.h.h.j.F.F.F.F.F.F.",
"F.F.F.F.F.w.w.w.w.e.e.e.e.e.e.e.r.r.r.r.r.r.r.t.t.t.t.t.y.y.y.i.p.p.p.p.p.p.p.p.a.a.a.a.a.a.a.s.s.s.s.s.d.s.d.d.f.F.F.F.F.F.F.F.",
"F.F.F.F.F.7.8.8.8.8.8.8.8.8.9.9.9.0.0.0.w.w.w.e.e.e.e.e.e.e.e.r.r.r.r.r.r.r.t.t.t.t.y.y.y.y.u.p.p.p.p.p.p.p.p.a.F.F.F.F.F.F.F.F.",
"F.F.F.F.F.5.5.5.5.5.6.6.6.7.7.7.7.7.7.7.7.8.8.8.8.8.8.8.8.9.9.9.0.0.0.w.w.w.e.e.e.e.e.e.e.r.r.r.r.r.r.r.t.t.t.F.F.F.F.F.F.F.F.F.",
"F.F.F.F.F.1.1.1.1.1.1.2.2.2.2.2.4.4.4.3.3.3.5.5.6.6.6.6.6.7.7.7.7.7.7.8.8.8.8.8.8.8.8.8.9.9.9.0.0.q.w.w.w.e.F.F.F.F.F.F.F.F.F.F.",
"F.F.F.F.F.;.:.:.:.:.>.>.>.<.<.<.,.,.<.1.1.1.1.1.1.2.2.2.2.2.2.4.4.4.3.3.5.5.5.6.6.6.6.6.7.7.7.7.7.7.8.8.8.F.F.F.F.F.F.F.F.F.F.F.",
"F.F.F.F.F.*.*.=.=.=.-.-.-.-.-.;.;.;.;.;.;.:.:.:.>.>.>.>.>.>.<.,.<.<.1.1.1.1.1.1.2.2.2.2.2.2.2.4.3.3.3.5.F.F.F.F.F.F.F.F.F.F.F.F.",
"F.F.F.F.F.F.%.$.%.%.%.%.%.%.&.&.&.&.&.&.*.*.*.*.-.-.-.-.-.-.;.;.;.;.;.:.:.:.:.:.>.>.>.>.>.,.<.<.<.1.1.F.F.F.F.F.F.F.F.F.F.F.F.F.",
"F.F.F.F.F.F.F.+.+.+.@.@.@.@.#.#.#.#.$.$.%.%.%.%.%.%.%.%.&.&.&.&.&.&.*.*.=.=.=.-.-.-.-.-.;.;.;.;.;.:.F.F.F.F.F.F.F.F.F.F.F.F.F.F.",
"F.F.F.F.F.F.F.F.F.F.F.F.F.F.F.F.F.F.F.F.F.F.F.F.F.F.F.F.F.F.F.F.F.F.F.F.F.F.F.F.F.F.F.F.F.F.F.F.F.F.F.F.F.F.F.F.F.F.F.F.F.F.F.F.",
"F.F.F.F.F.F.F.F.F.F.F.F.F.F.F.F.F.F.F.F.F.F.F.F.F.F.F.F.F.F.F.F.F.F.F.F.F.F.F.F.F.F.F.F.F.F.F.F.F.F.F.F.F.F.F.F.F.F.F.F.F.F.F.F.",
"F.F.F.F.F.F.F.F.F.F.F.F.F.F.F.F.F.F.F.F.F.F.F.F.F.F.F.F.F.F.F.F.F.F.F.F.F.F.F.F.F.F.F.F.F.F.F.F.F.F.F.F.F.F.F.F.F.F.F.F.F.F.F.F.",
"F.F.F.F.F.F.F.F.F.F.F.F.F.F.F.F.F.F.F.F.F.F.F.F.F.F.F.F.F.F.F.F.F.F.F.F.F.F.F.F.F.F.F.F.F.F.F.F.F.F.F.F.F.F.F.F.F.F.F.F.F.F.F.F.",
"F.F.F.F.F.F.F.F.F.F.F.F.F.F.F.F.F.F.F.F.F.F.F.F.F.F.F.F.F.F.F.F.F.F.F.F.F.F.F.F.F.F.F.F.F.F.F.F.F.F.F.F.F.F.F.F.F.F.F.F.F.F.F.F.",
"F.F.F.F.F.F.F.F.F.F.F.F.F.F.F.F.F.F.F.F.F.F.F.F.F.F.F.F.F.F.F.F.F.F.F.F.F.F.F.F.F.F.F.F.F.F.F.F.F.F.F.F.F.F.F.F.F.F.F.F.F.F.F.F.",
"F.F.F.F.F.F.F.F.F.F.F.F.F.F.F.F.F.F.F.F.F.F.F.F.F.F.F.F.F.F.F.F.F.F.F.F.F.F.F.F.F.F.F.F.F.F.F.F.F.F.F.F.F.F.F.F.F.F.F.F.F.F.F.F.",
"F.F.F.F.F.F.F.F.F.F.F.F.F.F.F.F.F.F.F.F.F.F.F.F.F.F.F.F.F.F.F.F.F.F.F.F.F.F.F.F.F.F.F.F.F.F.F.F.F.F.F.F.F.F.F.F.F.F.F.F.F.F.F.F.",
"F.F.F.F.F.F.F./ / ( ) _ ' ' ] [ [ } } |  . .X.o.O.O.+.@.#.%.%.&.*.-.;.:.>.<.1.2.2.3.6.7.8.8.9.w.e.e.r.t.y.p.p.a.a.s.F.F.F.F.F.F.",
"F.F.F.F.F.F.Q ~ ~ ^ / ( ) ) ` ' ] ] [ { } | |  ...X.o.O.+.@.#.$.%.&.*.-.;.;.:.>.1.1.2.4.5.7.7.8.8.0.w.e.r.r.t.i.p.a.F.F.F.F.F.F.",
"F.F.F.F.F.R E W Q Q ~ ^ / ( ( ) _ ' ] ] [ { } } |  . .X.o.O.+.+.@.$.%.%.&.=.-.;.:.>.<.1.2.4.5.6.7.8.8.9.w.e.r.r.t.y.p.F.F.F.F.F.",
"F.F.F.F.F.Y T R E W Q Q ~ ~ / / ( ) _ ' ' ] [ [ } } | |  .X.o.O.O.+.@.#.%.%.&.*.-.;.:.>.<.1.2.2.3.6.7.7.8.9.q.e.e.r.t.F.F.F.F.F.",
"F.F.F.F.F.I U U Y T R E W Q Q ~ ^ / ( ( ) ` ' ] ] [ { } | |  ...X.o.O.+.@.#.$.%.&.*.-.-.;.:.>.1.1.2.4.5.7.7.8.8.9.w.e.F.F.F.F.F.",
"F.F.F.F.F.L L P I U Y T R E W Q Q ~ ^ / ( ( ) _ ' ] ] [ { } } |  . .X.o.O.+.+.@.$.%.%.&.=.-.;.:.>.<.1.2.4.5.6.7.8.8.F.F.F.F.F.F.",
"F.F.F.F.F.J K L L P I U Y T R E W W Q ~ ~ ^ / ( ) _ ` ' ] ] [ } } | |  ...o.O.O.+.@.#.%.%.&.*.-.;.:.>.<.1.1.2.3.6.7.F.F.F.F.F.F.",
"F.F.F.F.F.G H H J K L P P U U Y T R E W Q Q ~ ^ / ( ( ) _ ' ] ] [ { } | |  ...X.o.O.+.@.#.$.%.&.&.-.-.;.:.>.1.1.2.F.F.F.F.F.F.F.",
"F.F.F.F.F.D F G G H J K L L P I U Y T R E W Q Q ~ ^ / / ( ) _ ' ' ] [ [ } } |  . .X.o.O.O.+.@.#.%.%.&.*.-.;.:.>.F.F.F.F.F.F.F.F.",
"F.F.F.F.F.Z A S F G G H H K L L P P U Y T R R W W Q ~ ~ ^ / ( ) _ ` ' ] ] [ } } | |  ...o.O.O.+.@.#.%.%.&.*.-.F.F.F.F.F.F.F.F.F.",
"F.F.F.F.F.C C Z A A D F G H H J K L P P I U Y T R E W Q Q ~ ^ / ( ( ) _ ' ] ] [ { } | |  ...X.o.O.+.+.#.$.%.F.F.F.F.F.F.F.F.F.F.",
"F.F.F.F.F.N N V C Z Z A S F G G H J K L L P I U Y T R E W Q Q ~ ^ / / ( ) _ ' ' ] [ [ } } | |  .X.o.O.O.+.F.F.F.F.F.F.F.F.F.F.F.",
"F.F.F.F.F.m M M N B C Z Z A S D G G H H K L L P P U U T T R E W Q ! ~ ^ / ( ) ) ` ' ] ] [ } } | |  ...o.F.F.F.F.F.F.F.F.F.F.F.F.",
"F.F.F.F.F.v b m M M N N C C Z A A D F G H H J K L L P I U Y T R E W Q Q ~ ^ / ( ( ) _ ' ] ] [ { } } | F.F.F.F.F.F.F.F.F.F.F.F.F.",
"F.F.F.F.F.x c v b n m M M N V C Z Z A S F F.F.F.F.F.F.F.F.F.F.F.F.F.F.F.F.F.F.F.F.F.F.F.F.F.F.F.F.F.F.F.F.F.F.F.F.F.F.F.F.F.F.F.",
"F.F.F.F.F.l z x c v b n m M M N B C Z Z F.F.F.F.F.F.F.F.F.F.F.F.F.F.F.F.F.F.F.F.F.F.F.F.F.F.F.F.F.F.F.F.F.F.F.F.F.F.F.F.F.F.F.F.",
"F.F.F.F.F.j k l l x x c v b m m M N N V F.F.F.F.F.F.F.F.F.F.F.F.F.F.F.F.F.F.F.F.F.F.F.F.F.F.F.F.F.F.F.F.F.F.F.F.F.F.F.F.F.F.F.F.",
"F.F.F.F.F.f g h j k l z x c v b n m M M F.F.F.F.F.F.F.F.F.F.F.F.F.F.F.F.F.F.F.F.F.F.F.F.F.F.F.F.F.F.F.F.F.F.F.F.F.F.F.F.F.F.F.F.",
"F.F.F.F.F.d f f g h j k l z x c c v n m F.F.F.F.F.F.F.F.F.F.F.F.F.F.F.F.F.F.F.F.F.F.F.F.F.F.F.F.F.F.F.F.F.F.F.F.F.F.F.F.F.F.F.F.",
"F.F.F.F.F.p a s d f g h j k l l z x c v F.F.F.F.F.F.F.F.F.F.F.F.F.F.F.F.F.F.F.F.F.F.F.F.F.F.F.F.F.F.F.F.F.F.F.F.F.F.F.F.F.F.F.F.",
"F.F.F.F.F.u i i p s d f f g h j k l z x F.F.F.F.F.F.F.F.F.F.F.F.F.F.F.F.F.F.F.F.F.F.F.F.F.F.F.F.F.F.F.F.F.F.F.F.F.F.F.F.F.F.F.F.",
"F.F.F.F.F.r y u i i p a s d f g h j k l F.F.F.F.F.F.F.F.F.F.F.F.F.F.F.F.F.F.F.F.F.F.F.F.F.F.F.F.F.F.F.F.F.F.F.F.F.F.F.F.F.F.F.F.",
"F.F.F.F.F.e e r t u u i p a s d f g g h j k l z x c v b n m M M N V C Z Z A S F G G F.F.F.F.F.F.F.F.F.F.F.F.F.F.F.F.F.F.F.F.F.F.",
"F.F.F.F.F.0 q w e e r u u i i p s d f f g h j k l z x c v b n m M M N B C Z Z A S F F F.F.F.F.F.F.F.F.F.F.F.F.F.F.F.F.F.F.F.F.F.",
"F.F.F.F.F.8 8 9 q w e e r y u u i p a s d f g h j k l l x c c v b m M M N N C C Z A A S F.F.F.F.F.F.F.F.F.F.F.F.F.F.F.F.F.F.F.F.",
"F.F.F.F.F.6 7 7 8 9 q w w e r r u u i p p s d f f g h j k l z x c v b n m M N N V C Z Z F.F.F.F.F.F.F.F.F.F.F.F.F.F.F.F.F.F.F.F.",
"F.F.F.F.F.3 4 5 7 7 8 8 0 q w e e r y u i i p a d f f g h j k l z x c v b n m M M N B C F.F.F.F.F.F.F.F.F.F.F.F.F.F.F.F.F.F.F.F.",
"F.F.F.F.F.2 2 3 4 5 6 7 8 8 9 q w e e r t u u i p a s d f g h j k l l x x c v b m M M N F.F.F.F.F.F.F.F.F.F.F.F.F.F.F.F.F.F.F.F.",
"F.F.F.F.F., < 1 2 3 3 4 6 7 7 8 9 0 w w e r r u u i p p s d f f g h j k l z x c v b n F.F.F.F.F.F.F.F.F.F.F.F.F.F.F.F.F.F.F.F.F.",
"F.F.F.F.F.: > , < < 2 2 3 4 5 6 7 8 8 0 q w e e r y u i i p a d f f g h j k l z x c F.F.F.F.F.F.F.F.F.F.F.F.F.F.F.F.F.F.F.F.F.F.",
"F.F.F.F.F.= - : : > , < 1 2 3 4 5 6 7 8 8 9 q w w e r t u u i p a s d f g h j k l F.F.F.F.F.F.F.F.F.F.F.F.F.F.F.F.F.F.F.F.F.F.F.",
"F.F.F.F.F.& * = - ; : > , < 1 2 2 3 4 6 7 7 8 9 0 w w e e r u u i i p s d f f g F.F.F.F.F.F.F.F.F.F.F.F.F.F.F.F.F.F.F.F.F.F.F.F.",
"F.F.F.F.F.% % & * = - - : : , , < 1 2 3 4 5 6 7 8 8 0 q w e e r y u i i p a d F.F.F.F.F.F.F.F.F.F.F.F.F.F.F.F.F.F.F.F.F.F.F.F.F.",
"F.F.F.F.F.@ # # % & & = = - : : > , < 1 2 3 3 5 6 7 8 8 9 q w w e r t u u i F.F.F.F.F.F.F.F.F.F.F.F.F.F.F.F.F.F.F.F.F.F.F.F.F.F.",
"F.F.F.F.F.F.+ $ # # % % & * = - - : > , < 1 2 2 3 4 5 7 7 8 8 0 w w e e r F.F.F.F.F.F.F.F.F.F.F.F.F.F.F.F.F.F.F.F.F.F.F.F.F.F.F.",
"F.F.F.F.F.F.. X O @ @ # % % & * = - - : : > , < 1 2 3 4 5 6 7 8 8 9 q w F.F.F.F.F.F.F.F.F.F.F.F.F.F.F.F.F.F.F.F.F.F.F.F.F.F.F.F.",
"F.F.F.F.F.F.F.F.  o + @ @ # % % & * = - - : : > , < 1 2 3 4 5 6 7 8 8 F.F.F.F.F.F.F.F.F.F.F.F.F.F.F.F.F.F.F.F.F.F.F.F.F.F.F.F.F.",
"F.F.F.F.F.F.F.F.F.F.F.F.F.F.F.F.F.F.F.F.F.F.F.F.F.F.F.F.F.F.F.F.F.F.F.F.F.F.F.F.F.F.F.F.F.F.F.F.F.F.F.F.F.F.F.F.F.F.F.F.F.F.F.F.",
"F.F.F.F.F.F.F.F.F.F.F.F.F.F.F.F.F.F.F.F.F.F.F.F.F.F.F.F.F.F.F.F.F.F.F.F.F.F.F.F.F.F.F.F.F.F.F.F.F.F.F.F.F.F.F.F.F.F.F.F.F.F.F.F."
};
