/* XPM */
static char *euno32[] = {
/* columns rows colors chars-per-pixel */
"32 32 133 2 ",
"   c #41229D",
".  c #4F29BC",
"X  c #562ECD",
"o  c #572ECE",
"O  c #5730CE",
"+  c #5730CF",
"@  c #5731CF",
"#  c #5832CF",
"$  c #5833CF",
"%  c #5834D0",
"&  c #5835D0",
"*  c #5935D0",
"=  c #5936D0",
"-  c #5937D1",
";  c #5938D1",
":  c #5A39D1",
">  c #5A39D2",
",  c #5A3AD2",
"<  c #5A3BD2",
"1  c #5A3CD2",
"2  c #5B3CD2",
"3  c #5B3CD3",
"4  c #5B3DD3",
"5  c #5B3ED3",
"6  c #5B3FD3",
"7  c #5B3FD4",
"8  c #5C40D4",
"9  c #5C41D4",
"0  c #5C42D4",
"q  c #5C42D5",
"w  c #5C43D5",
"e  c #5D43D5",
"r  c #5D44D5",
"t  c #5D45D5",
"y  c #5D45D6",
"u  c #5D46D6",
"i  c #5E46D6",
"p  c #5E47D6",
"a  c #5E48D6",
"s  c #5E48D7",
"d  c #5E49D7",
"f  c #5E4AD7",
"g  c #5F4AD7",
"h  c #5F4BD7",
"j  c #5F4BD8",
"k  c #5F4CD8",
"l  c #5F4DD8",
"z  c #604DD8",
"x  c #604ED8",
"c  c #604ED9",
"v  c #604FD9",
"b  c #6050D9",
"n  c #6051D9",
"m  c #6051DA",
"M  c #6151DA",
"N  c #6152DA",
"B  c #6153DA",
"V  c #6154DA",
"C  c #6154DB",
"Z  c #6255DB",
"A  c #6256DB",
"S  c #6257DB",
"D  c #6257DC",
"F  c #6258DC",
"G  c #6358DC",
"H  c #6359DC",
"J  c #635ADC",
"K  c #635ADD",
"L  c #635BDD",
"P  c #645CDD",
"I  c #645DDE",
"U  c #645EDE",
"Y  c #645FDE",
"T  c #655FDE",
"R  c #6560DE",
"E  c #6560DF",
"W  c #6561DF",
"Q  c #6562DF",
"!  c #6663E0",
"~  c #6664E0",
"^  c #6665E0",
"/  c #6666E1",
"(  c #6766E1",
")  c #6767E1",
"_  c #6768E1",
"`  c #6768E2",
"'  c #6769E2",
"]  c #686AE2",
"[  c #686BE2",
"{  c #686BE3",
"}  c #686CE3",
"|  c #686DE3",
" . c #696DE3",
".. c #696EE3",
"X. c #696EE4",
"o. c #696FE4",
"O. c #6970E4",
"+. c #6971E4",
"@. c #6A71E4",
"#. c #6A71E5",
"$. c #6A72E5",
"%. c #6A73E5",
"&. c #6A74E5",
"*. c #6B74E5",
"=. c #6B74E6",
"-. c #6B75E6",
";. c #6B76E6",
":. c #6B77E6",
">. c #6B77E7",
",. c #6B78E7",
"<. c #6C78E7",
"1. c #6C79E7",
"2. c #6C7AE7",
"3. c #6C7AE8",
"4. c #6C7BE8",
"5. c #6D7BE8",
"6. c #6D7CE8",
"7. c #6D7DE8",
"8. c #6D7DE9",
"9. c #6D7EE9",
"0. c #6D7FE9",
"q. c #6E7FE9",
"w. c #6E80E9",
"e. c #6E80EA",
"r. c #6E81EA",
"t. c #6E82EA",
"y. c #6F82EA",
"u. c #6F83EA",
"i. c #6F83EB",
"p. c #6F84EB",
"a. c #6F85EB",
"s. c #7086EB",
"d. c None",
/* pixels */
"d.d.d.d.d.d.d.d.d.d.d.d.d.d.d.d.d.d.d.d.d.d.d.d.d.d.d.d.d.d.d.d.",
"d.d.d.q.e.e.e.r.r.r.t.t.t.y.u.u.i.i.i.p.p.p.p.a.a.a.a.s.a.d.d.d.",
"d.d.d.7.7.8.8.9.9.9.0.0.q.q.q.w.w.e.e.r.r.r.r.t.t.t.y.u.u.d.d.d.",
"d.d.d.1.1.2.2.2.3.3.4.4.5.5.6.6.6.6.7.7.8.8.8.9.9.0.0.q.q.d.d.d.",
"d.d.d.-.-.;.;.;.:.:.:.>.,.<.<.<.1.1.1.1.2.2.2.3.3.4.4.5.6.d.d.d.",
"d.d.d.$.$.$.$.%.%.%.%.&.&.*.=.=.-.-.-.;.;.;.;.:.:.>.>.<.d.d.d.d.",
"d.d.d...X.X.o.o.o.O.O.O.+.+.@.@.#.#.$.$.$.%.%.%.%.%.*.d.d.d.d.d.",
"d.d.d.[ [ [ { { } } } } | |  . .......X.X.o.o.o.O.+.d.d.d.d.d.d.",
"d.d.d.d._ ` ` ' ' ' ] ] ] ] [ [ [ { } } } } | | d.d.d.d.d.d.d.d.",
"d.d.d.d.d.d.d.d.d.d.d.d.d.d.d.d.d.d.d.d.d.d.d.d.d.d.d.d.d.d.d.d.",
"d.d.d.d.d.d.d.d.d.d.d.d.d.d.d.d.d.d.d.d.d.d.d.d.d.d.d.d.d.d.d.d.",
"d.d.d.d.d.d.d.d.d.d.d.d.d.d.d.d.d.d.d.d.d.d.d.d.d.d.d.d.d.d.d.d.",
"d.d.d.d.U T E W ! ~ ^ ( ) ` ] [ }  ...o.+.$.%.*.-.;.,.1.d.d.d.d.",
"d.d.d.L P I U T E Q ! ~ ^ ( ) ` ] [ }  .X.O.@.$.%.=.-.:.<.d.d.d.",
"d.d.d.F H K L P U Y E W Q ! ^ / ) _ ' ] } | ..o.+.#.%.&.-.d.d.d.",
"d.d.d.Z A D G J L P I U R W Q ! ~ / ( _ ' ] { }  .X.O.@.$.d.d.d.",
"d.d.d.N B Z A D G J K P I U T E W ! ~ ^ ( ) ` ] [ }  .X.d.d.d.d.",
"d.d.d.v n N B C Z S F H K L P I Y E W Q ! ^ / ) _ ' ] d.d.d.d.d.",
"d.d.d.l x v b M B V Z A D G J L P I U T E Q ! ~ ^ ( d.d.d.d.d.d.",
"d.d.d.g j k z v b M B V Z A D G J L P I U R W Q ! d.d.d.d.d.d.d.",
"d.d.d.p s f h k l c d.d.d.d.d.d.d.d.d.d.d.d.d.d.d.d.d.d.d.d.d.d.",
"d.d.d.t u p a d g j d.d.d.d.d.d.d.d.d.d.d.d.d.d.d.d.d.d.d.d.d.d.",
"d.d.d.0 w r y i a d d.d.d.d.d.d.d.d.d.d.d.d.d.d.d.d.d.d.d.d.d.d.",
"d.d.d.6 8 9 q r t u i p d f j k l c b m d.d.d.d.d.d.d.d.d.d.d.d.",
"d.d.d.2 4 6 8 9 0 e t u p a d g j l x v b m d.d.d.d.d.d.d.d.d.d.",
"d.d.d.> < 1 4 5 7 8 0 w r y i p d f j k l c d.d.d.d.d.d.d.d.d.d.",
"d.d.d.- ; : , < 3 5 6 8 9 q r t u p s f h k d.d.d.d.d.d.d.d.d.d.",
"d.d.d.% * = - : , < 2 4 6 8 9 0 e r y i a d.d.d.d.d.d.d.d.d.d.d.",
"d.d.d.@ # % & = - ; > < 1 4 5 7 8 0 w r d.d.d.d.d.d.d.d.d.d.d.d.",
"d.d.d.X + @ # $ % * - ; : , < 3 5 6 8 d.d.d.d.d.d.d.d.d.d.d.d.d.",
"d.d.d.  . o O @ # $ % * - ; : , < 3 d.d.d.d.d.d.d.d.d.d.d.d.d.d.",
"d.d.d.d.d.d.d.d.d.d.d.d.d.d.d.d.d.d.d.d.d.d.d.d.d.d.d.d.d.d.d.d."
};
