/* XPM */
static char *euno16[] = {
/* columns rows colors chars-per-pixel */
"16 16 91 1 ",
"  c #522CC3",
". c #562FCC",
"X c #5731CE",
"o c #5730CF",
"O c #5833CF",
"+ c #5834D0",
"@ c #5935D0",
"# c #5936D0",
"$ c #5937D1",
"% c #5A38D1",
"& c #5A39D2",
"* c #5A3AD2",
"= c #5A3BD2",
"- c #5A3CD2",
"; c #5B3DD3",
": c #5B3ED3",
"> c #5B3FD3",
", c #5C40D4",
"< c #5C41D4",
"1 c #5C42D4",
"2 c #5C42D5",
"3 c #5C43D5",
"4 c #5D44D5",
"5 c #5D45D6",
"6 c #5D46D6",
"7 c #5E47D6",
"8 c #5E48D6",
"9 c #5E48D7",
"0 c #5F4AD7",
"q c #5F4BD7",
"w c #5F4BD8",
"e c #5F4CD8",
"r c #5F4DD8",
"t c #604FD9",
"y c #6051D9",
"u c #6152DA",
"i c #6153DA",
"p c #6255DB",
"a c #6256DB",
"s c #6257DC",
"d c #6358DC",
"f c #6359DC",
"g c #635ADC",
"h c #635BDD",
"j c #645CDD",
"k c #645DDE",
"l c #645EDE",
"z c #655FDE",
"x c #6561DF",
"c c #6562DF",
"v c #6663E0",
"b c #6664E0",
"n c #6665E0",
"m c #6766E1",
"M c #6768E1",
"N c #6769E2",
"B c #686AE2",
"V c #686BE2",
"C c #686DE3",
"Z c #696DE3",
"A c #696EE3",
"S c #696FE4",
"D c #6970E4",
"F c #6A71E4",
"G c #6A72E5",
"H c #6A74E5",
"J c #6B74E5",
"K c #6B74E6",
"L c #6B75E6",
"P c #6B76E6",
"I c #6B77E6",
"U c #6B77E7",
"Y c #6C78E7",
"T c #6C79E7",
"R c #6C7AE7",
"E c #6C7BE8",
"W c #6D7BE8",
"Q c #6D7CE8",
"! c #6D7DE8",
"~ c #6D7DE9",
"^ c #6D7EE9",
"/ c #6E7FE9",
"( c #6E80E9",
") c #6E80EA",
"_ c #6E81EA",
"` c #6E82EA",
"' c #6F82EA",
"] c #6F83EB",
"[ c #6F84EB",
"{ c #6F85EB",
"} c None",
/* pixels */
"}}})__`']][[{}}}",
"}EWQQ!~^^//()__}",
"}HHKLLPPIUYYTR}}",
"}CCZAASSDDFFG}}}",
"}}}}}}}}}}}}}}}}",
"}}}}}}}}}}}}}}}}",
"}}kzcbmNVZDGJI}}",
"}adhkzcbmNVZDGJ}",
"}yipsgjlxvnMBC}}",
"}wrtupsfjlxvn}}}",
"}680e}}}}}}}}}}}",
"},147}}}}}}}}}}}",
"}=;><469qrt}}}}}",
"}@$&-:,3570}}}}}",
"}.X+#%=;,2}}}}}}",
"}} oO@$*}}}}}}}}"
};
