<?xml version="1.0" encoding="UTF-8" standalone="no"?>
<svg
   xmlns:dc="http://purl.org/dc/elements/1.1/"
   xmlns:cc="http://creativecommons.org/ns#"
   xmlns:rdf="http://www.w3.org/1999/02/22-rdf-syntax-ns#"
   xmlns:svg="http://www.w3.org/2000/svg"
   xmlns="http://www.w3.org/2000/svg"
   xmlns:sodipodi="http://sodipodi.sourceforge.net/DTD/sodipodi-0.dtd"
   xmlns:inkscape="http://www.inkscape.org/namespaces/inkscape"
   width="80"
   height="39.75"
   viewBox="0 0 79.999997 39.75"
   version="1.1"
   id="svg3"
   sodipodi:docname="ic-address-send-white.svg"
   inkscape:version="0.92.3 (2405546, 2018-03-11)">
  <metadata
     id="metadata9">
    <rdf:RDF>
      <cc:Work
         rdf:about="">
        <dc:format>image/svg+xml</dc:format>
        <dc:type
           rdf:resource="http://purl.org/dc/dcmitype/StillImage" />
        <dc:title></dc:title>
      </cc:Work>
    </rdf:RDF>
  </metadata>
  <defs
     id="defs7" />
  <sodipodi:namedview
     pagecolor="#ffffff"
     bordercolor="#666666"
     borderopacity="1"
     objecttolerance="10"
     gridtolerance="10"
     guidetolerance="10"
     inkscape:pageopacity="0"
     inkscape:pageshadow="2"
     inkscape:window-width="1914"
     inkscape:window-height="951"
     id="namedview5"
     showgrid="false"
     inkscape:zoom="5.9371069"
     inkscape:cx="17.887501"
     inkscape:cy="19.875"
     inkscape:window-x="0"
     inkscape:window-y="0"
     inkscape:window-maximized="0"
     inkscape:current-layer="svg3" />
  <path
     id="Icon_material-perm-contact-calendar"
     data-name="Icon material-perm-contact-calendar"
     d="M 20.234322,9.2806144 H 19.032536 V 6.9057203 H 16.62957 V 9.2806144 H 7.0177062 V 6.9057203 H 4.6147401 V 9.2806144 H 3.4135593 A 2.4023616,2.3742966 0 0 0 1.0105932,11.655508 v 16.624259 a 2.4023616,2.3742966 0 0 0 2.4029661,2.374894 H 20.234322 a 2.4102203,2.3820636 0 0 0 2.402966,-2.374894 V 11.655508 A 2.4102203,2.3820636 0 0 0 20.234322,9.2806144 Z m -8.410684,3.5620426 a 3.6041469,3.5620424 0 1 1 -3.6041465,3.56264 3.5993107,3.5572627 0 0 1 3.6041465,-3.56264 z m 7.208898,14.249364 H 4.6147401 v -1.187148 c 0,-2.374894 4.8059322,-3.680937 7.2088979,-3.680937 2.402966,0 7.208898,1.306043 7.208898,3.680937 z"
     inkscape:connector-curvature="0"
     style="fill:#303030;stroke-width:0.60097831" />
</svg>
