<?xml version="1.0" encoding="UTF-8" standalone="no"?>
<svg
   xmlns:dc="http://purl.org/dc/elements/1.1/"
   xmlns:cc="http://creativecommons.org/ns#"
   xmlns:rdf="http://www.w3.org/1999/02/22-rdf-syntax-ns#"
   xmlns:svg="http://www.w3.org/2000/svg"
   xmlns="http://www.w3.org/2000/svg"
   xmlns:sodipodi="http://sodipodi.sourceforge.net/DTD/sodipodi-0.dtd"
   xmlns:inkscape="http://www.inkscape.org/namespaces/inkscape"
   width="80"
   height="39.75"
   viewBox="0 0 79.999997 39.75"
   version="1.1"
   id="svg3"
   sodipodi:docname="ic-address-send-white.svg"
   inkscape:version="1.0.1 (3bc2e813f5, 2020-09-07)">
  <metadata
     id="metadata9">
    <rdf:RDF>
      <cc:Work
         rdf:about="">
        <dc:format>image/svg+xml</dc:format>
        <dc:type
           rdf:resource="http://purl.org/dc/dcmitype/StillImage" />
        <dc:title />
      </cc:Work>
    </rdf:RDF>
  </metadata>
  <defs
     id="defs7" />
  <sodipodi:namedview
     pagecolor="#ffffff"
     bordercolor="#666666"
     borderopacity="1"
     objecttolerance="10"
     gridtolerance="10"
     guidetolerance="10"
     inkscape:pageopacity="0"
     inkscape:pageshadow="2"
     inkscape:window-width="1920"
     inkscape:window-height="1025"
     id="namedview5"
     showgrid="false"
     inkscape:zoom="23.748428"
     inkscape:cx="6.5649632"
     inkscape:cy="13.764544"
     inkscape:window-x="0"
     inkscape:window-y="27"
     inkscape:window-maximized="1"
     inkscape:current-layer="svg3"
     inkscape:document-rotation="0" />
  <path
     id="Icon_material-perm-contact-calendar"
     data-name="Icon material-perm-contact-calendar"
     d="M 20.234322,9.2806144 H 19.032536 V 6.9057203 H 16.62957 V 9.2806144 H 7.0177062 V 6.9057203 H 4.6147401 V 9.2806144 H 3.4135593 A 2.4023616,2.3742966 0 0 0 1.0105932,11.655508 v 16.624259 a 2.4023616,2.3742966 0 0 0 2.4029661,2.374894 H 20.234322 a 2.4102203,2.3820636 0 0 0 2.402966,-2.374894 V 11.655508 A 2.4102203,2.3820636 0 0 0 20.234322,9.2806144 Z m -8.410684,3.5620426 a 3.6041469,3.5620424 0 1 1 -3.6041465,3.56264 3.5993107,3.5572627 0 0 1 3.6041465,-3.56264 z m 7.208898,14.249364 H 4.6147401 v -1.187148 c 0,-2.374894 4.8059322,-3.680937 7.2088979,-3.680937 2.402966,0 7.208898,1.306043 7.208898,3.680937 z"
     inkscape:connector-curvature="0"
     style="fill:#303030;stroke-width:0.60097831" />
  <path
     style="stroke:#000000;stroke-width:0.168432;fill:#7599f2;fill-opacity:1"
     d="M 3.0654671,30.501839 C 2.2600353,30.30172 1.8080044,29.998473 1.4569778,29.422778 1.1438365,28.909215 1.1297559,28.501993 1.1297559,19.959216 c 0,-8.55735 0.013611,-8.94923 0.3287863,-9.466134 C 1.9036513,9.7630787 2.6123511,9.4322034 3.7308315,9.4322034 H 4.665573 V 8.1689618 6.9057203 h 1.0874303 1.0874305 l 0.049487,1.2211335 0.049487,1.2211335 h 4.8845342 4.884534 l 0.04949,-1.2211335 0.04949,-1.2211335 h 1.08743 1.08743 v 1.2632415 1.2632416 l 0.968485,6.232e-4 c 0.663223,4.379e-4 1.138449,0.1042618 1.507713,0.329416 1.086462,0.6624544 1.060944,0.4162244 1.060249,10.2307104 -6.74e-4,8.523281 -0.0143,8.91559 -0.329417,9.43239 C 21.47642,30.594585 21.709918,30.56726 12.160812,30.59891 7.4362888,30.61457 3.3433863,30.57089 3.0654732,30.50183 Z M 19.120623,26.141446 c -0.04449,-0.615057 -0.192162,-1.138639 -0.399216,-1.415437 -0.852838,-1.140111 -3.220397,-2.169457 -5.672342,-2.466171 -2.975594,-0.360081 -6.8996917,0.831349 -8.1225883,2.466171 -0.2070541,0.276798 -0.3547272,0.80038 -0.3992165,1.415437 l -0.070607,0.976139 h 7.3672888 7.367288 z m -6.15516,-6.276573 c 0.796562,-0.221208 1.725723,-1.02488 2.15283,-1.862078 0.390906,-0.76624 0.435561,-2.268375 0.09096,-3.059847 -1.097789,-2.521387 -4.860966,-2.871703 -6.4358687,-0.599117 -0.647834,0.934824 -0.772743,2.624687 -0.2667513,3.608806 0.86947,1.691059 2.593226,2.430317 4.458828,1.912236 z"
     id="path830" />
  <path
     style="fill:#7599f2;stroke:#000000;stroke-width:0.0421081"
     d="M 4.8174791,30.62912 C 3.2534732,30.597651 3.1121017,30.588613 2.8384007,30.5026 2.1961034,30.30075 1.746652,29.981358 1.4480656,29.514592 1.2482658,29.202255 1.1841434,28.918522 1.1336604,28.123389 1.0667433,27.069413 1.0345394,17.73785 1.0863595,14.417218 1.1358444,11.246221 1.156863,10.953007 1.3639716,10.544462 1.5283385,10.22023 1.9492134,9.8126123 2.277299,9.659903 2.7363976,9.4462129 2.9859698,9.4001553 3.8174129,9.3756805 L 4.5858848,9.3530593 V 8.0954142 6.8377692 h 1.1522249 1.1522249 l 0.026057,0.4316075 c 0.014331,0.2373841 0.03856,0.7868942 0.053841,1.2211335 l 0.027784,0.7895259 H 11.8126 16.627184 l 0.01962,-0.094743 c 0.01079,-0.052109 0.03052,-0.4831899 0.04385,-0.9579581 0.01333,-0.4747683 0.03549,-0.981644 0.04925,-1.1263904 l 0.02502,-0.2631753 h 1.132013 1.132011 V 8.095563 9.3533568 l 0.81058,0.023013 c 0.906122,0.025726 1.139611,0.071339 1.600099,0.3125903 0.574855,0.301168 0.809981,0.6041999 0.933755,1.2034289 0.153748,0.744339 0.160864,1.082092 0.179852,8.535687 0.01828,7.175665 -0.0028,8.919856 -0.114866,9.495366 -0.09119,0.46838 -0.476071,1.055324 -0.831929,1.268692 -0.392801,0.235517 -0.897904,0.320402 -2.35112,0.395121 -1.062207,0.05461 -12.1991986,0.08691 -14.4378382,0.04187 z M 19.218433,30.459282 c 1.981682,-0.09616 2.377879,-0.216319 2.784181,-0.844397 0.229508,-0.354784 0.294334,-0.53702 0.3583,-1.007253 0.06838,-0.502708 0.102936,-14.518329 0.03939,-15.980006 C 22.311184,10.577468 22.19547,10.243356 21.426651,9.8162191 20.989164,9.5731598 20.757844,9.5292317 19.776364,9.5028241 L 18.902622,9.4793153 V 8.2217043 6.9640933 H 17.89598 16.889339 l -0.02359,0.2000133 c -0.01297,0.1100072 -0.03448,0.58846 -0.04778,1.0632283 -0.01331,0.4747682 -0.03456,0.9342723 -0.04723,1.0211202 l -0.02303,0.1579052 H 11.809821 6.8719322 L 6.8442499,8.5536722 C 6.8290245,8.0846938 6.8048839,7.5351838 6.7906042,7.3325388 L 6.7646408,6.9640933 H 5.7384251 4.712209 V 8.2219601 9.479827 L 3.880575,9.501823 C 2.9949792,9.525246 2.7326009,9.570053 2.3250111,9.767467 1.8675315,9.9890453 1.4649737,10.466805 1.3585234,10.914505 c -0.031299,0.131637 -0.07498,0.551992 -0.097068,0.934122 -0.066095,1.143489 -0.097183,9.707824 -0.048223,13.28509 0.054491,3.981426 0.053328,3.970318 0.4710186,4.498087 0.2892572,0.365488 0.6082421,0.571073 1.1541494,0.743846 0.2780389,0.088 0.4022258,0.09521 2.1896186,0.127274 2.5309849,0.0454 13.02028,0.01314 14.190414,-0.04364 z"
     id="path831" />
  <path
     style="fill:#7599f2;stroke:#000000;stroke-width:0.0421081"
     d=""
     id="path833" />
  <path
     style="fill:#7599f2;stroke:#000000;stroke-width:0.0421081"
     d="m 3.2910622,9.3773341 c 0.040529,-0.010591 0.1068492,-0.010591 0.1473782,0 0.040529,0.010591 0.00737,0.019257 -0.073689,0.019257 -0.081058,0 -0.1142181,-0.00867 -0.073689,-0.019257 z"
     id="path835" />
  <path
     style="fill:#7599f2;stroke:#000000;stroke-width:0.0421081"
     d=""
     id="path837" />
  <path
     style="fill:#7599f2;stroke:#000000;stroke-width:0.0421081"
     d=""
     id="path839" />
  <path
     style="fill:#7599f2;stroke:#000000;stroke-width:0.0421081"
     d=""
     id="path841" />
  <path
     style="fill:#7599f2;stroke:#000000;stroke-width:0.0421081"
     d="M 11.217903,20.042671 C 10.119646,19.85857 9.2016485,19.228076 8.6122206,18.253051 8.1524531,17.49251 8.018194,16.546818 8.2290574,15.554136 c 0.2806402,-1.321172 1.1288385,-2.220935 2.4868716,-2.638059 0.345225,-0.106036 0.431923,-0.115349 1.070433,-0.11498 0.828239,4.77e-4 1.132351,0.06691 1.789592,0.390929 0.700629,0.34541 1.232339,0.857646 1.574464,1.516801 0.23329,0.449468 0.300746,0.736319 0.328637,1.397502 0.05613,1.330608 -0.243374,2.118853 -1.12322,2.956141 -0.392454,0.373471 -0.799184,0.645897 -1.180815,0.790906 -0.539849,0.205126 -1.378678,0.286259 -1.957117,0.189295 z m 1.520912,-0.192169 c 0.628234,-0.15005 1.072991,-0.408559 1.607051,-0.934077 0.790807,-0.778158 1.053721,-1.502532 1.006389,-2.772777 -0.0131,-0.351643 -0.05035,-0.708779 -0.08784,-0.842161 -0.23285,-0.828574 -0.891027,-1.589897 -1.730574,-2.001778 -0.622714,-0.305503 -0.933994,-0.371819 -1.747484,-0.372288 -0.639654,-3.69e-4 -0.724854,0.0088 -1.073756,0.11585 -1.0666026,0.327185 -1.8947244,1.072127 -2.2137984,1.991436 -0.2937941,0.846473 -0.3153798,1.866909 -0.054774,2.58937 0.3978544,1.102945 1.4205753,2.001136 2.5532244,2.242336 0.167674,0.03571 0.361707,0.07325 0.431185,0.08344 0.246592,0.03615 0.973943,-0.019 1.310372,-0.09935 z"
     id="path861" />
</svg>
