<?xml version="1.0" encoding="UTF-8" standalone="no"?>
<svg
   xmlns:dc="http://purl.org/dc/elements/1.1/"
   xmlns:cc="http://creativecommons.org/ns#"
   xmlns:rdf="http://www.w3.org/1999/02/22-rdf-syntax-ns#"
   xmlns:svg="http://www.w3.org/2000/svg"
   xmlns="http://www.w3.org/2000/svg"
   xmlns:sodipodi="http://sodipodi.sourceforge.net/DTD/sodipodi-0.dtd"
   xmlns:inkscape="http://www.inkscape.org/namespaces/inkscape"
   width="80"
   height="39.75"
   viewBox="0 0 79.999997 39.75"
   version="1.1"
   id="svg3"
   sodipodi:docname="ic-address-send.svg"
   inkscape:version="0.92.3 (2405546, 2018-03-11)">
  <metadata
     id="metadata9">
    <rdf:RDF>
      <cc:Work
         rdf:about="">
        <dc:format>image/svg+xml</dc:format>
        <dc:type
           rdf:resource="http://purl.org/dc/dcmitype/StillImage" />
        <dc:title />
      </cc:Work>
    </rdf:RDF>
  </metadata>
  <defs
     id="defs7" />
  <sodipodi:namedview
     pagecolor="#ffffff"
     bordercolor="#666666"
     borderopacity="1"
     objecttolerance="10"
     gridtolerance="10"
     guidetolerance="10"
     inkscape:pageopacity="0"
     inkscape:pageshadow="2"
     inkscape:window-width="1733"
     inkscape:window-height="838"
     id="namedview5"
     showgrid="false"
     inkscape:zoom="5.9371069"
     inkscape:cx="-50.327541"
     inkscape:cy="19.875"
     inkscape:window-x="0"
     inkscape:window-y="0"
     inkscape:window-maximized="0"
     inkscape:current-layer="svg3" />
  <path
     id="Icon_material-perm-contact-calendar"
     data-name="Icon material-perm-contact-calendar"
     d="M 21.207486,9.2132412 H 20.071219 V 6.9057204 H 17.799256 V 9.2132412 H 8.7114019 V 6.9057204 H 6.4394387 V 9.2132412 H 5.3037431 A 2.2713917,2.3069407 0 0 0 3.0317801,11.520762 V 27.67341 a 2.2713917,2.3069407 0 0 0 2.271963,2.307521 H 21.207486 A 2.278822,2.3144873 0 0 0 23.479449,27.67341 V 11.520762 A 2.278822,2.3144873 0 0 0 21.207486,9.2132412 Z m -7.952157,3.4609908 a 3.4076591,3.4609915 0 1 1 -3.4076601,3.461572 3.4030866,3.4563475 0 0 1 3.4076601,-3.461572 z m 6.81589,13.845127 H 6.4394387 v -1.15347 c 0,-2.307522 4.5439263,-3.576513 6.8158903,-3.576513 2.271963,0 6.81589,1.268991 6.81589,3.576513 z"
     inkscape:connector-curvature="0"
     style="fill:#562cdd;stroke-width:0.57601839" />
</svg>
