<svg xmlns="http://www.w3.org/2000/svg" width="35.775" height="39.75" viewBox="0 0 35.775 39.75">
  <path id="Icon_material-perm-contact-calendar" data-name="Icon material-perm-contact-calendar" d="M36.3,5.475H34.312V1.5H30.337V5.475h-15.9V1.5H10.462V5.475H8.475A3.974,3.974,0,0,0,4.5,9.45V37.275A3.974,3.974,0,0,0,8.475,41.25H36.3a3.987,3.987,0,0,0,3.975-3.975V9.45A3.987,3.987,0,0,0,36.3,5.475ZM22.387,11.437A5.962,5.962,0,1,1,16.425,17.4,5.954,5.954,0,0,1,22.387,11.437Zm11.925,23.85H10.462V33.3c0-3.975,7.95-6.161,11.925-6.161S34.312,29.325,34.312,33.3Z" transform="translate(-4.5 -1.5)" fill="#303030"/>
</svg>
