<?xml version="1.0" encoding="UTF-8" standalone="no"?>
<svg
   xmlns:dc="http://purl.org/dc/elements/1.1/"
   xmlns:cc="http://creativecommons.org/ns#"
   xmlns:rdf="http://www.w3.org/1999/02/22-rdf-syntax-ns#"
   xmlns:svg="http://www.w3.org/2000/svg"
   xmlns="http://www.w3.org/2000/svg"
   xmlns:sodipodi="http://sodipodi.sourceforge.net/DTD/sodipodi-0.dtd"
   xmlns:inkscape="http://www.inkscape.org/namespaces/inkscape"
   width="52"
   height="52"
   viewBox="0 0 52 52"
   version="1.1"
   id="svg11"
   sodipodi:docname="ic-check-theme-light.svg"
   inkscape:version="0.92.3 (2405546, 2018-03-11)">
  <metadata
     id="metadata15">
    <rdf:RDF>
      <cc:Work
         rdf:about="">
        <dc:format>image/svg+xml</dc:format>
        <dc:type
           rdf:resource="http://purl.org/dc/dcmitype/StillImage" />
      </cc:Work>
    </rdf:RDF>
  </metadata>
  <sodipodi:namedview
     pagecolor="#ffffff"
     bordercolor="#666666"
     borderopacity="1"
     objecttolerance="10"
     gridtolerance="10"
     guidetolerance="10"
     inkscape:pageopacity="0"
     inkscape:pageshadow="2"
     inkscape:window-width="835"
     inkscape:window-height="480"
     id="namedview13"
     showgrid="false"
     inkscape:zoom="4.5384615"
     inkscape:cx="26"
     inkscape:cy="26"
     inkscape:window-x="0"
     inkscape:window-y="0"
     inkscape:window-maximized="0"
     inkscape:current-layer="Сгруппировать_1453" />
  <defs
     id="defs4">
    <clipPath
       id="clip-path">
      <rect
         id="Прямоугольник_1740"
         data-name="Прямоугольник 1740"
         width="52"
         height="52"
         transform="translate(3856 1871)"
         fill="none"
         stroke="#707070"
         stroke-width="1" />
    </clipPath>
  </defs>
  <g
     id="Группа_масок_60"
     data-name="Группа масок 60"
     transform="translate(-3856 -1871)"
     clip-path="url(#clip-path)">
    <g
       id="Сгруппировать_1461"
       data-name="Сгруппировать 1461"
       transform="translate(0.321 -0.964)">
      <g
         id="Сгруппировать_1453"
         data-name="Сгруппировать 1453"
         transform="translate(3857.039 1865.669)">
        <path
           id="Icon_material-brightness-7"
           data-name="Icon material-brightness-7"
           d="M23.115,10.183V4.82H17.752L13.968,1.035,10.183,4.82H4.82v5.363L1.035,13.968,4.82,17.752v5.363h5.363L13.968,26.9l3.785-3.785h5.363V17.752L26.9,13.968ZM13.968,20.828a6.861,6.861,0,1,1,6.861-6.861A6.866,6.866,0,0,1,13.968,20.828Zm0-11.435a4.574,4.574,0,1,0,4.574,4.574A4.573,4.573,0,0,0,13.968,9.394Z"
           transform="translate(10.26 10.26)"
           fill="#fff" />
      </g>
    </g>
  </g>
</svg>
