<?xml version="1.0" encoding="UTF-8" standalone="no"?>
<svg
   xmlns:dc="http://purl.org/dc/elements/1.1/"
   xmlns:cc="http://creativecommons.org/ns#"
   xmlns:rdf="http://www.w3.org/1999/02/22-rdf-syntax-ns#"
   xmlns:svg="http://www.w3.org/2000/svg"
   xmlns="http://www.w3.org/2000/svg"
   xmlns:sodipodi="http://sodipodi.sourceforge.net/DTD/sodipodi-0.dtd"
   xmlns:inkscape="http://www.inkscape.org/namespaces/inkscape"
   width="30.286"
   height="26.5"
   viewBox="0 0 30.286 26.5"
   version="1.1"
   id="svg3"
   sodipodi:docname="ic-check-staking-off.svg"
   inkscape:version="1.0.1 (3bc2e813f5, 2020-09-07)">
  <style
     id="style834"></style>
  <metadata
     id="metadata9">
    <rdf:RDF>
      <cc:Work
         rdf:about="">
        <dc:format>image/svg+xml</dc:format>
        <dc:type
           rdf:resource="http://purl.org/dc/dcmitype/StillImage" />
      </cc:Work>
    </rdf:RDF>
  </metadata>
  <defs
     id="defs7" />
  <sodipodi:namedview
     pagecolor="#ffffff"
     bordercolor="#666666"
     borderopacity="1"
     objecttolerance="10"
     gridtolerance="10"
     guidetolerance="10"
     inkscape:pageopacity="0"
     inkscape:pageshadow="2"
     inkscape:window-width="1920"
     inkscape:window-height="1025"
     id="namedview5"
     showgrid="false"
     inkscape:zoom="23.428458"
     inkscape:cx="15.143"
     inkscape:cy="13.25"
     inkscape:window-x="0"
     inkscape:window-y="27"
     inkscape:window-maximized="1"
     inkscape:current-layer="svg3" />
  <path
     id="Icon_awesome-gift"
     data-name="Icon awesome-gift"
     d="m 3.6429761,22.892735 a 1.6412393,1.605566 0 0 0 1.6429751,1.607264 H 13.499959 V 16.464528 H 3.6429761 Z m 13.1429329,1.607264 h 8.214008 a 1.6412393,1.605566 0 0 0 1.642975,-1.607264 V 16.464528 H 16.785909 Z M 26.642892,8.4282073 H 24.479164 A 4.4767384,4.3794338 0 0 0 24.999917,6.4193394 4.524474,4.4261319 0 0 0 20.482386,2 C 18.346432,2 16.965569,3.0698113 15.194141,5.4301885 13.422714,3.0698113 12.041851,2 9.9058965,2 A 4.524474,4.4261319 0 0 0 5.3848942,6.4193394 4.4133801,4.3174527 0 0 0 5.9056471,8.4282073 H 3.6429761 A 1.6412393,1.605566 0 0 0 2.000001,10.035471 v 4.017736 a 0.82365737,0.80575468 0 0 0 0.8210536,0.803208 H 27.463946 a 0.82365737,0.80575468 0 0 0 0.821053,-0.803208 V 10.035471 A 1.6412393,1.605566 0 0 0 26.642892,8.4282073 Z m -16.7448068,0 a 2.053502,2.0088678 0 0 1 0,-4.0177357 c 1.0215438,0 1.7766348,0.1698113 4.4203238,4.0177357 z m 10.5808288,0 h -4.418587 c 2.638481,-3.841981 3.372742,-4.0177357 4.420323,-4.0177357 a 2.053502,2.0088679 0 1 1 0,4.0177357 z"
     fill="#ffffff"
     opacity="0.65"
     style="stroke-width:0.858437" />
</svg>
