<?xml version="1.0" encoding="UTF-8" standalone="no"?>
<svg
   xmlns:dc="http://purl.org/dc/elements/1.1/"
   xmlns:cc="http://creativecommons.org/ns#"
   xmlns:rdf="http://www.w3.org/1999/02/22-rdf-syntax-ns#"
   xmlns:svg="http://www.w3.org/2000/svg"
   xmlns="http://www.w3.org/2000/svg"
   xmlns:sodipodi="http://sodipodi.sourceforge.net/DTD/sodipodi-0.dtd"
   xmlns:inkscape="http://www.inkscape.org/namespaces/inkscape"
   width="24"
   height="24"
   viewBox="0 0 24 24"
   version="1.1"
   id="svg21"
   sodipodi:docname="Сгруппировать 1772.svg"
   inkscape:version="1.0.1 (3bc2e813f5, 2020-09-07)">
  <style
     id="style2"></style>
  <metadata
     id="metadata27">
    <rdf:RDF>
      <cc:Work
         rdf:about="">
        <dc:format>image/svg+xml</dc:format>
        <dc:type
           rdf:resource="http://purl.org/dc/dcmitype/StillImage" />
      </cc:Work>
    </rdf:RDF>
  </metadata>
  <defs
     id="defs25" />
  <sodipodi:namedview
     pagecolor="#ffffff"
     bordercolor="#666666"
     borderopacity="1"
     objecttolerance="10"
     gridtolerance="10"
     guidetolerance="10"
     inkscape:pageopacity="0"
     inkscape:pageshadow="2"
     inkscape:window-width="1920"
     inkscape:window-height="1025"
     id="namedview23"
     showgrid="false"
     inkscape:zoom="23.523005"
     inkscape:cx="14.018721"
     inkscape:cy="13.695332"
     inkscape:window-x="0"
     inkscape:window-y="27"
     inkscape:window-maximized="1"
     inkscape:current-layer="svg21"
     inkscape:document-rotation="0" />
  <g
     id="Сгруппировать_1772"
     data-name="Сгруппировать 1772"
     transform="matrix(0.1154451,0,0,0.12002762,-483.73118,-225.57179)"
     opacity="0.5">
    <path
       id="Вычитание_8"
       data-name="Вычитание 8"
       d="M 4293.9999,2058 A 80,80 0 1 1 4374,1978.0001 80.091445,80.091445 0 0 1 4293.9999,2058 Z m -29.6132,-93.1581 a 5.2496772,5.2496772 0 0 0 -5.2378,5.2395 v 38.7206 a 5.2496772,5.2496772 0 0 0 5.2378,5.2396 h 31.9586 a 5.2699985,5.2699985 0 0 0 3.702,-1.5241 l 8.3283,-8.3199 0.8687,-0.8687 a 5.2395165,5.2395165 0 0 0 -3.7019,-8.9448 h -26.7275 v -9.8762 h 37.21 a 5.2107279,5.2107279 0 0 0 3.7068,-1.5342 l 8.2979,-8.298 0.8773,-0.8771 a 5.2395165,5.2395165 0 0 0 -3.6985,-8.9482 z m 0,-29.4964 a 5.2496772,5.2496772 0 0 0 -5.2378,5.2378 v 9.1871 a 5.2496772,5.2496772 0 0 0 5.2378,5.2394 h 51.65 a 5.2649182,5.2649181 0 0 0 3.712,-1.5444 l 8.2776,-8.3132 0.8586,-0.8467 a 5.2395165,5.2395165 0 0 0 -3.6968,-8.9532 z"
       fill="#7599f2"
       style="stroke-width:1.69343" />
    <g
       id="Сгруппировать_1479"
       data-name="Сгруппировать 1479"
       transform="translate(4216.768,2030.786)">
      <g
         id="Контур_2661"
         data-name="Контур 2661"
         transform="translate(-3,-18.37)"
         fill="none">
        <path
           d="M 73.862,18.37 V 66.728 H 18.031 A 15.1,15.1 0 0 1 3,51.7 V 32.371 H 49.64 A 28,28 0 0 0 73.6,18.8 Z"
           stroke="none"
           id="path3" />
      </g>
    </g>
    <g
       id="Сгруппировать_1480"
       data-name="Сгруппировать 1480"
       transform="translate(4300.514,2030.871)">
      <g
         id="Контур_2662"
         data-name="Контур 2662"
         transform="translate(-12.75,-18.38)"
         fill="none">
        <path
           d="M 83.612,32.295 V 51.621 A 15.1,15.1 0 0 1 68.58,66.652 H 12.75 V 18.38 l 0.258,0.429 a 28.111,28.111 0 0 0 23.964,13.486 z"
           stroke="none"
           id="path9" />
      </g>
    </g>
    <g
       id="Объединение_7"
       data-name="Объединение 7"
       transform="translate(4389.955,3107.026)"
       fill="none">
      <path
         d="m -65.255,-1075.116 a 15.132,15.132 0 0 1 -12.883,-7.292 l -17.747,-29.586 -17.734,29.569 a 15.129,15.129 0 0 1 -12.892,7.3 h -66 a 6.454,6.454 0 0 1 -5.609,-3.273 6.438,6.438 0 0 1 0.086,-6.484 l 25.768,-42.946 a 6.443,6.443 0 0 1 5.522,-3.127 h 141.722 a 6.443,6.443 0 0 1 5.522,3.127 l 25.768,42.946 a 6.454,6.454 0 0 1 0.086,6.493 6.454,6.454 0 0 1 -5.609,3.272 z"
         stroke="none"
         id="path15" />
    </g>
  </g>
</svg>
