<?xml version="1.0" encoding="UTF-8" standalone="no"?>
<svg
   xmlns:dc="http://purl.org/dc/elements/1.1/"
   xmlns:cc="http://creativecommons.org/ns#"
   xmlns:rdf="http://www.w3.org/1999/02/22-rdf-syntax-ns#"
   xmlns:svg="http://www.w3.org/2000/svg"
   xmlns="http://www.w3.org/2000/svg"
   xmlns:sodipodi="http://sodipodi.sourceforge.net/DTD/sodipodi-0.dtd"
   xmlns:inkscape="http://www.inkscape.org/namespaces/inkscape"
   width="17.58"
   height="27"
   viewBox="0 0 17.58 27"
   version="1.1"
   id="svg3"
   sodipodi:docname="ic-check-tor.svg"
   inkscape:version="1.0.1 (3bc2e813f5, 2020-09-07)">
  <style
     id="style834"></style>
  <metadata
     id="metadata9">
    <rdf:RDF>
      <cc:Work
         rdf:about="">
        <dc:format>image/svg+xml</dc:format>
        <dc:type
           rdf:resource="http://purl.org/dc/dcmitype/StillImage" />
      </cc:Work>
    </rdf:RDF>
  </metadata>
  <defs
     id="defs7" />
  <sodipodi:namedview
     pagecolor="#ffffff"
     bordercolor="#666666"
     borderopacity="1"
     objecttolerance="10"
     gridtolerance="10"
     guidetolerance="10"
     inkscape:pageopacity="0"
     inkscape:pageshadow="2"
     inkscape:window-width="1920"
     inkscape:window-height="1025"
     id="namedview5"
     showgrid="false"
     inkscape:zoom="26.414164"
     inkscape:cx="8.79"
     inkscape:cy="13.5"
     inkscape:window-x="0"
     inkscape:window-y="27"
     inkscape:window-maximized="1"
     inkscape:current-layer="svg3" />
  <path
     id="Icon_simple-tor"
     data-name="Icon simple-tor"
     d="m 14.016138,13.693345 a 14.074602,14.452688 0 0 0 -2.52704,-1.734493 C 11.074284,11.722872 9.7999801,10.695466 10.238852,9.2386966 L 9.4449002,8.8979318 A 28.175751,28.932637 0 0 1 14.325588,3.0938551 7.8814451,8.0931644 0 0 0 10.238852,6.028692 18.855735,19.362257 0 0 1 13.01395,2 11.249725,11.551927 0 0 0 9.3005454,6.1334772 L 9.8854316,3.7344929 A 13.632411,13.998619 0 0 0 8.2369651,8.4029709 L 7.0074596,7.8918237 6.7992236,8.0622061 c 1.0843209,1.9917699 0.5218346,3.0421779 -0.020741,3.4076479 a 25.350876,26.031876 0 0 0 -3.4412878,2.542106 5.7833214,5.9386788 0 0 0 -1.7928214,5.075692 6.2072602,6.3740059 0 0 0 4.358854,5.505055 9.4179121,9.6709055 0 0 0 3.1285189,0.408918 7.5421281,7.7447323 0 0 0 4.8632667,-1.605854 6.1143422,6.2785917 0 0 0 2.210952,-4.817563 6.4163259,6.5886877 0 0 0 -2.086508,-4.884011 z m -3.318503,8.502934 a 3.445436,3.5379907 0 0 1 -0.68776,1.285535 3.0007565,3.0813658 0 0 0 0.292029,-0.728385 9.8244286,10.088342 0 0 0 0.497775,-4.88316 6.9688567,7.1560611 0 0 0 -0.439701,-1.649301 C 9.9235943,15.085369 9.2549159,14.013664 9.172783,13.778536 a 13.01517,13.364796 0 0 1 -0.3758205,-2.956135 14.004913,14.381127 0 0 0 0.3127689,3.190411 c 0.062222,0.215533 0.6637007,1.178194 1.1058916,2.356388 a 11.403207,11.709531 0 0 1 0.414812,1.777089 11.136067,11.435215 0 0 1 -0.37416,4.133477 4.1033291,4.2135569 0 0 1 -0.773212,1.692749 3.5997463,3.6964463 0 0 0 0.4977755,-1.135598 9.9181764,10.184608 0 0 0 0.3318505,-2.784049 8.1884066,8.4083718 0 0 0 -0.5210051,-2.183451 10.785135,11.074857 0 0 0 -0.6454489,-1.242939 5.3096051,5.452237 0 0 1 -0.2920283,-1.840982 5.7924473,5.9480499 0 0 0 0.1451846,1.948323 12.8592,13.204637 0 0 1 0.7085003,1.370726 6.8178648,7.0010131 0 0 1 0.3559094,1.841834 10.858972,11.150677 0 0 1 -0.2488876,2.485027 2.9352161,3.0140648 0 0 1 -1.0138027,1.863132 2.0956347,2.1519298 0 0 0 0.4148128,-0.898767 12.845925,13.191006 0 0 0 0.1451846,-1.413322 5.5584928,5.7078107 0 0 0 -0.103703,-1.649302 C 9.0914797,19.561315 8.8193624,18.792038 8.6940889,18.255334 8.71483,18.851672 8.9429766,19.604762 9.0499984,20.39704 A 8.5053237,8.7338022 0 0 1 9.0699096,22.066788 6.393926,6.5656861 0 0 1 8.6102969,24.230645 1.1963204,1.2284572 0 0 1 8.1125214,23.760389 3.3259698,3.4153154 0 0 1 7.654568,22.83862 4.7064672,4.832897 0 0 1 7.3832804,21.962003 2.8663572,2.9433561 0 0 1 7.905115,19.840742 a 2.6548026,2.7261185 0 0 0 0.6637006,-1.43462 2.8348313,2.9109834 0 0 1 -0.8130332,1.285535 3.3384142,3.428094 0 0 0 -0.6047973,2.248196 3.2488146,3.3360875 0 0 0 0.2298064,0.965217 4.6832376,4.8090435 0 0 0 0.4148129,0.937103 1.5580372,1.5998908 0 0 0 0.4380425,0.470255 4.0742923,4.18374 0 0 1 -1.4601415,-0.662787 5.2158574,5.355971 0 0 1 -1.7521696,-3.237266 3.6105314,3.7075212 0 0 1 1.9438131,-2.992767 2.8149203,2.8905375 0 0 0 1.4394008,-2.356389 3.1525781,3.2372657 0 0 1 -1.5439336,2.2499 3.4694951,3.5626961 0 0 0 -2.0226277,3.21256 4.0444257,4.1530712 0 0 0 1.8766135,3.407648 4.9843918,5.1182875 0 0 0 1.0436694,0.535853 C 6.277389,24.10371 6.0890639,23.890732 5.5887996,23.290986 c 0,-0.04345 -0.1252736,-0.129491 -0.1252736,-0.149937 A 8.5194273,8.7482847 0 0 1 3.6698751,19.818592 2.3976186,2.4620258 0 0 1 3.586912,18.512611 C 4.1294874,16.498691 5.3175115,15.728563 6.5063652,14.894541 6.7983935,14.679007 7.0871034,14.486475 7.3608799,14.272645 8.0245804,13.736792 8.1954834,12.344768 8.3406679,11.55249 8.0702098,12.516854 7.7781816,13.716346 7.256347,14.100559 6.985889,14.31524 6.6515498,14.485623 6.3810918,14.679007 5.1507567,15.53603 3.919592,16.349606 3.3571058,18.42742 a 2.6614396,2.7329338 0 0 0 0.082962,1.435472 8.8769961,9.1154588 0 0 0 1.8567026,3.447688 l 0.1252735,0.12949 A 3.010712,3.0915888 0 0 0 6.6108985,24.274944 5.5485373,5.6975877 0 0 1 5.4013041,23.825135 5.9334837,6.0928749 0 0 1 2.082801,19.091911 C 1.9168758,15.644223 3.5222016,14.638115 5.0238243,13.373878 5.858428,12.667643 7.0257115,12.324322 7.6927306,11.060936 A 2.4059148,2.4705449 0 0 0 7.7350415,9.5402735 6.7647687,6.9464908 0 0 0 7.237266,8.3833769 l 1.8567026,0.8357257 a 7.6109871,7.815441 0 0 0 0.1045328,2.2916434 c 0.1866658,0.728385 1.1050616,1.777089 1.4800526,2.99873 a 15.129886,15.53632 0 0 1 0.02157,7.685099 z"
     fill="#ffffff"
     style="stroke-width:0.840695" />
</svg>
