<svg xmlns="http://www.w3.org/2000/svg" width="30.286" height="26.5" viewBox="0 0 30.286 26.5">
  <path id="Icon_awesome-gift" data-name="Icon awesome-gift" d="M1.893,26.857A1.891,1.891,0,0,0,3.786,28.75H13.25V19.286H1.893ZM17.036,28.75H26.5a1.891,1.891,0,0,0,1.893-1.893V19.286H17.036ZM28.393,9.821H25.9a5.158,5.158,0,0,0,.6-2.366A5.213,5.213,0,0,0,21.295,2.25c-2.461,0-4.052,1.26-6.093,4.04C13.161,3.51,11.57,2.25,9.109,2.25A5.213,5.213,0,0,0,3.9,7.455a5.085,5.085,0,0,0,.6,2.366H1.893A1.891,1.891,0,0,0,0,11.714v4.732a.949.949,0,0,0,.946.946H29.339a.949.949,0,0,0,.946-.946V11.714A1.891,1.891,0,0,0,28.393,9.821ZM9.1,9.821a2.366,2.366,0,0,1,0-4.732c1.177,0,2.047.2,5.093,4.732H9.1Zm12.191,0H16.2c3.04-4.525,3.886-4.732,5.093-4.732a2.366,2.366,0,1,1,0,4.732Z" transform="translate(0 -2.25)" fill="#fff"/>
</svg>
