<?xml version="1.0" encoding="UTF-8" standalone="no"?>
<svg
   xmlns:dc="http://purl.org/dc/elements/1.1/"
   xmlns:cc="http://creativecommons.org/ns#"
   xmlns:rdf="http://www.w3.org/1999/02/22-rdf-syntax-ns#"
   xmlns:svg="http://www.w3.org/2000/svg"
   xmlns="http://www.w3.org/2000/svg"
   xmlns:sodipodi="http://sodipodi.sourceforge.net/DTD/sodipodi-0.dtd"
   xmlns:inkscape="http://www.inkscape.org/namespaces/inkscape"
   width="52"
   height="52"
   viewBox="0 0 52 52"
   version="1.1"
   id="svg11"
   sodipodi:docname="ic-check-locked-off.svg"
   inkscape:version="0.92.3 (2405546, 2018-03-11)">
  <metadata
     id="metadata15">
    <rdf:RDF>
      <cc:Work
         rdf:about="">
        <dc:format>image/svg+xml</dc:format>
        <dc:type
           rdf:resource="http://purl.org/dc/dcmitype/StillImage" />
        <dc:title></dc:title>
      </cc:Work>
    </rdf:RDF>
  </metadata>
  <sodipodi:namedview
     pagecolor="#ffffff"
     bordercolor="#666666"
     borderopacity="1"
     objecttolerance="10"
     gridtolerance="10"
     guidetolerance="10"
     inkscape:pageopacity="0"
     inkscape:pageshadow="2"
     inkscape:window-width="1920"
     inkscape:window-height="1029"
     id="namedview13"
     showgrid="false"
     inkscape:zoom="18.153846"
     inkscape:cx="22.365376"
     inkscape:cy="16.19598"
     inkscape:window-x="0"
     inkscape:window-y="0"
     inkscape:window-maximized="1"
     inkscape:current-layer="Сгруппировать_1458" />
  <defs
     id="defs4">
    <clipPath
       id="clip-path">
      <rect
         id="Прямоугольник_1744"
         data-name="Прямоугольник 1744"
         width="52"
         height="52"
         transform="translate(4046 1871)"
         fill="none"
         stroke="#707070"
         stroke-width="1" />
    </clipPath>
  </defs>
  <g
     id="Группа_масок_63"
     data-name="Группа масок 63"
     transform="translate(-4046 -1871)"
     clip-path="url(#clip-path)">
    <g
       id="Сгруппировать_1464"
       data-name="Сгруппировать 1464"
       transform="translate(252.11 -74.712)">
      <g
         id="Сгруппировать_1458"
         data-name="Сгруппировать 1458">
        <path
           id="Icon_metro-unlock"
           data-name="Icon metro-unlock"
           d="M28.709,15.573V11.517a4.957,4.957,0,1,0-9.915,0v4.12H23.3V29.994H2.571V15.573H16.09V11.067A7.21,7.21,0,0,1,23.3,3.856h.9a7.211,7.211,0,0,1,7.211,7.211v4.507h-2.7ZM12.936,19.123a1.8,1.8,0,0,0-.681,3.47l-.671,4.7h2.7l-.671-4.7a1.8,1.8,0,0,0-.68-3.469Z"
           transform="translate(3801.98 1946.856)"
           fill="#fff" />
      </g>
    </g>
  </g>
</svg>
