<?xml version="1.0" encoding="UTF-8" standalone="no"?>
<svg
   xmlns:dc="http://purl.org/dc/elements/1.1/"
   xmlns:cc="http://creativecommons.org/ns#"
   xmlns:rdf="http://www.w3.org/1999/02/22-rdf-syntax-ns#"
   xmlns:svg="http://www.w3.org/2000/svg"
   xmlns="http://www.w3.org/2000/svg"
   xmlns:sodipodi="http://sodipodi.sourceforge.net/DTD/sodipodi-0.dtd"
   xmlns:inkscape="http://www.inkscape.org/namespaces/inkscape"
   width="52"
   height="52"
   viewBox="0 0 52 52"
   version="1.1"
   id="svg11"
   sodipodi:docname="ic-check-faq.svg"
   inkscape:version="0.92.3 (2405546, 2018-03-11)">
  <metadata
     id="metadata15">
    <rdf:RDF>
      <cc:Work
         rdf:about="">
        <dc:format>image/svg+xml</dc:format>
        <dc:type
           rdf:resource="http://purl.org/dc/dcmitype/StillImage" />
        <dc:title></dc:title>
      </cc:Work>
    </rdf:RDF>
  </metadata>
  <sodipodi:namedview
     pagecolor="#ffffff"
     bordercolor="#666666"
     borderopacity="1"
     objecttolerance="10"
     gridtolerance="10"
     guidetolerance="10"
     inkscape:pageopacity="0"
     inkscape:pageshadow="2"
     inkscape:window-width="1920"
     inkscape:window-height="1029"
     id="namedview13"
     showgrid="false"
     inkscape:zoom="12.836708"
     inkscape:cx="19.442332"
     inkscape:cy="25.876147"
     inkscape:window-x="0"
     inkscape:window-y="0"
     inkscape:window-maximized="1"
     inkscape:current-layer="Сгруппировать_1452" />
  <defs
     id="defs4">
    <clipPath
       id="clip-path">
      <rect
         id="Прямоугольник_1741"
         data-name="Прямоугольник 1741"
         width="52"
         height="52"
         transform="translate(3919 1871)"
         fill="none"
         stroke="#707070"
         stroke-width="1" />
    </clipPath>
  </defs>
  <g
     id="Группа_масок_61"
     data-name="Группа масок 61"
     transform="translate(-3919 -1871)"
     clip-path="url(#clip-path)">
    <g
       id="Сгруппировать_1462"
       data-name="Сгруппировать 1462"
       transform="translate(2.196 -0.964)">
      <g
         id="Сгруппировать_1452"
         data-name="Сгруппировать 1452"
         transform="translate(3918.163 1865.669)">
        <path
           id="Icon_awesome-question-circle"
           data-name="Icon awesome-question-circle"
           d="M26.391,13.477A12.914,12.914,0,1,1,13.477.563,12.914,12.914,0,0,1,26.391,13.477ZM13.823,4.833a6.745,6.745,0,0,0-6.069,3.32A.626.626,0,0,0,7.9,9L9.7,10.369a.625.625,0,0,0,.868-.111c.93-1.18,1.568-1.864,2.984-1.864,1.064,0,2.38.685,2.38,1.716,0,.78-.644,1.18-1.694,1.769-1.225.687-2.846,1.541-2.846,3.679v.208a.625.625,0,0,0,.625.625h2.916a.625.625,0,0,0,.625-.625V15.7c0-1.482,4.332-1.544,4.332-5.555C19.891,7.124,16.758,4.833,13.823,4.833Zm-.347,12.914a2.4,2.4,0,1,0,2.4,2.4A2.4,2.4,0,0,0,13.477,17.747Z"
           transform="translate(10.732 10.732)"
           fill="#fff" />
      </g>
    </g>
  </g>
</svg>
