<?xml version="1.0" encoding="UTF-8" standalone="no"?>
<svg
   xmlns:dc="http://purl.org/dc/elements/1.1/"
   xmlns:cc="http://creativecommons.org/ns#"
   xmlns:rdf="http://www.w3.org/1999/02/22-rdf-syntax-ns#"
   xmlns:svg="http://www.w3.org/2000/svg"
   xmlns="http://www.w3.org/2000/svg"
   xmlns:sodipodi="http://sodipodi.sourceforge.net/DTD/sodipodi-0.dtd"
   xmlns:inkscape="http://www.inkscape.org/namespaces/inkscape"
   width="17.58"
   height="27"
   viewBox="0 0 17.58 27"
   version="1.1"
   id="svg3"
   sodipodi:docname="ic-check-tor-off.svg"
   inkscape:version="1.0.1 (3bc2e813f5, 2020-09-07)">
  <style
     id="style834"></style>
  <metadata
     id="metadata9">
    <rdf:RDF>
      <cc:Work
         rdf:about="">
        <dc:format>image/svg+xml</dc:format>
        <dc:type
           rdf:resource="http://purl.org/dc/dcmitype/StillImage" />
      </cc:Work>
    </rdf:RDF>
  </metadata>
  <defs
     id="defs7" />
  <sodipodi:namedview
     pagecolor="#ffffff"
     bordercolor="#666666"
     borderopacity="1"
     objecttolerance="10"
     gridtolerance="10"
     guidetolerance="10"
     inkscape:pageopacity="0"
     inkscape:pageshadow="2"
     inkscape:window-width="1920"
     inkscape:window-height="1025"
     id="namedview5"
     showgrid="false"
     inkscape:zoom="26.414164"
     inkscape:cx="8.79"
     inkscape:cy="13.5"
     inkscape:window-x="0"
     inkscape:window-y="27"
     inkscape:window-maximized="1"
     inkscape:current-layer="svg3" />
  <path
     id="Icon_simple-tor"
     data-name="Icon simple-tor"
     d="m 14.016138,13.693345 a 14.074602,14.452688 0 0 0 -2.52704,-1.734493 C 11.074285,11.722872 9.7999798,10.695466 10.238852,9.2386966 L 9.4448999,8.8979318 A 28.175752,28.932637 0 0 1 14.325589,3.0938551 7.8814452,8.0931644 0 0 0 10.238852,6.028692 18.855735,19.362257 0 0 1 13.01395,2 11.249726,11.551927 0 0 0 9.300545,6.1334772 L 9.8854312,3.7344929 A 13.632411,13.998619 0 0 0 8.2369647,8.4029709 L 7.0074593,7.8918237 6.7992232,8.0622061 c 1.084321,1.9917699 0.5218347,3.0421779 -0.020741,3.4076479 a 25.350876,26.031876 0 0 0 -3.4412875,2.542106 5.7833215,5.9386788 0 0 0 -1.7928213,5.075692 6.2072603,6.3740059 0 0 0 4.358854,5.505055 9.4179122,9.6709055 0 0 0 3.1285189,0.408918 7.5421282,7.7447323 0 0 0 4.8632667,-1.605854 6.1143422,6.2785917 0 0 0 2.210953,-4.817563 6.416326,6.5886877 0 0 0 -2.086509,-4.884011 z m -3.318503,8.502934 a 3.445436,3.5379907 0 0 1 -0.68776,1.285535 3.0007565,3.0813658 0 0 0 0.292028,-0.728385 9.8244288,10.088342 0 0 0 0.497776,-4.88316 6.9688568,7.1560611 0 0 0 -0.439702,-1.649301 C 9.923594,15.085369 9.2549156,14.013664 9.1727827,13.778536 a 13.01517,13.364796 0 0 1 -0.3758205,-2.956135 14.004913,14.381127 0 0 0 0.3127689,3.190411 c 0.062222,0.215533 0.6637006,1.178194 1.1058909,2.356388 a 11.403207,11.709531 0 0 1 0.414813,1.777089 11.136067,11.435215 0 0 1 -0.374161,4.133477 4.1033292,4.2135569 0 0 1 -0.7732113,1.692749 3.5997464,3.6964463 0 0 0 0.4977755,-1.135598 9.9181765,10.184608 0 0 0 0.3318508,-2.784049 8.1884067,8.4083718 0 0 0 -0.5210055,-2.183451 10.785135,11.074857 0 0 0 -0.6454489,-1.242939 5.3096052,5.452237 0 0 1 -0.2920283,-1.840982 5.7924474,5.9480499 0 0 0 0.1451846,1.948323 12.8592,13.204637 0 0 1 0.7085004,1.370726 6.8178649,7.0010131 0 0 1 0.3559097,1.841834 10.858972,11.150677 0 0 1 -0.248888,2.485027 2.9352161,3.0140648 0 0 1 -1.0138027,1.863132 2.0956348,2.1519298 0 0 0 0.4148129,-0.898767 12.845926,13.191006 0 0 0 0.1451845,-1.413322 5.5584929,5.7078107 0 0 0 -0.1037032,-1.649302 C 9.0914793,19.561315 8.8193621,18.792038 8.6940886,18.255334 8.7148296,18.851672 8.9429763,19.604762 9.049998,20.39704 A 8.5053238,8.7338022 0 0 1 9.069909,22.066788 6.3939261,6.5656861 0 0 1 8.6102963,24.230645 1.1963204,1.2284572 0 0 1 8.1125208,23.760389 3.3259699,3.4153154 0 0 1 7.6545673,22.83862 4.7064672,4.832897 0 0 1 7.3832797,21.962003 2.8663572,2.9433561 0 0 1 7.9051143,19.840742 2.6548026,2.7261185 0 0 0 8.568815,18.406122 2.8348314,2.9109834 0 0 1 7.7557817,19.691657 3.3384142,3.428094 0 0 0 7.1509845,21.939853 3.2488147,3.3360875 0 0 0 7.3807908,22.90507 4.6832377,4.8090435 0 0 0 7.7956037,23.842173 1.5580373,1.5998908 0 0 0 8.2336461,24.312428 4.0742923,4.18374 0 0 1 6.7735047,23.649641 5.2158574,5.355971 0 0 1 5.021335,20.412375 a 3.6105315,3.7075212 0 0 1 1.9438133,-2.992767 2.8149204,2.8905375 0 0 0 1.4394008,-2.356389 3.1525781,3.2372657 0 0 1 -1.5439337,2.2499 3.4694951,3.5626961 0 0 0 -2.0226277,3.21256 4.0444258,4.1530712 0 0 0 1.8766136,3.407648 4.9843918,5.1182875 0 0 0 1.0436693,0.535853 c -1.480882,-0.36547 -1.6692071,-0.578448 -2.1694714,-1.178194 0,-0.04345 -0.1252735,-0.129491 -0.1252735,-0.149937 a 8.5194274,8.7482847 0 0 1 -1.793651,-3.322457 2.3976186,2.4620258 0 0 1 -0.082963,-1.305981 c 0.5425753,-2.01392 1.7305994,-2.784048 2.9194532,-3.61807 0.2920283,-0.215534 0.5807381,-0.408066 0.8545146,-0.621896 0.6637006,-0.535853 0.8346036,-1.927877 0.9797881,-2.720155 -0.270458,0.964364 -0.5624863,2.163856 -1.084321,2.548069 -0.270458,0.214681 -0.6047972,0.385064 -0.8752552,0.578448 -1.2303351,0.857023 -2.4614998,1.670599 -3.023986,3.748413 a 2.6614396,2.7329338 0 0 0 0.082963,1.435472 8.8769961,9.1154588 0 0 0 1.8567026,3.447688 l 0.1252735,0.12949 A 3.0107121,3.0915888 0 0 0 6.6108982,24.274944 5.5485374,5.6975877 0 0 1 5.4013037,23.825135 5.9334838,6.0928749 0 0 1 2.0828005,19.091911 C 1.9168754,15.644223 3.5222013,14.638115 5.023824,13.373878 5.8584276,12.667643 7.0257111,12.324322 7.6927302,11.060936 A 2.4059148,2.4705449 0 0 0 7.7350411,9.5402735 6.7647688,6.9464908 0 0 0 7.2372656,8.3833769 l 1.8567026,0.8357257 a 7.6109871,7.815441 0 0 0 0.1045329,2.2916434 c 0.1866658,0.728385 1.1050619,1.777089 1.4800519,2.99873 a 15.129886,15.53632 0 0 1 0.02157,7.685099 z"
     fill="#ffffff"
     opacity="0.5"
     style="stroke-width:0.840695" />
</svg>
