<?xml version="1.0" encoding="UTF-8" standalone="no"?>
<svg
   xmlns:dc="http://purl.org/dc/elements/1.1/"
   xmlns:cc="http://creativecommons.org/ns#"
   xmlns:rdf="http://www.w3.org/1999/02/22-rdf-syntax-ns#"
   xmlns:svg="http://www.w3.org/2000/svg"
   xmlns="http://www.w3.org/2000/svg"
   xmlns:sodipodi="http://sodipodi.sourceforge.net/DTD/sodipodi-0.dtd"
   xmlns:inkscape="http://www.inkscape.org/namespaces/inkscape"
   width="21"
   height="24"
   viewBox="0 0 21 24"
   version="1.1"
   id="svg3"
   sodipodi:docname="ic-copy-big-white.svg"
   inkscape:version="0.92.3 (2405546, 2018-03-11)">
  <metadata
     id="metadata9">
    <rdf:RDF>
      <cc:Work
         rdf:about="">
        <dc:format>image/svg+xml</dc:format>
        <dc:type
           rdf:resource="http://purl.org/dc/dcmitype/StillImage" />
        <dc:title></dc:title>
      </cc:Work>
    </rdf:RDF>
  </metadata>
  <defs
     id="defs7" />
  <sodipodi:namedview
     pagecolor="#ffffff"
     bordercolor="#666666"
     borderopacity="1"
     objecttolerance="10"
     gridtolerance="10"
     guidetolerance="10"
     inkscape:pageopacity="0"
     inkscape:pageshadow="2"
     inkscape:window-width="835"
     inkscape:window-height="480"
     id="namedview5"
     showgrid="false"
     inkscape:zoom="9.8333333"
     inkscape:cx="12.177966"
     inkscape:cy="13.118644"
     inkscape:window-x="0"
     inkscape:window-y="0"
     inkscape:window-maximized="0"
     inkscape:current-layer="svg3" />
  <path
     id="Icon_awesome-copy"
     data-name="Icon awesome-copy"
     d="m 12.544797,16.868643 v 1.088454 A 0.61289373,0.65307225 0 0 1 11.931904,18.61017 H 4.985775 A 0.61289373,0.65307225 0 0 1 4.3728813,17.957097 V 7.9433227 A 0.61289373,0.65307225 0 0 1 4.985775,7.2902505 h 1.8386813 v 8.0545585 a 1.4317198,1.5255768 0 0 0 1.4300853,1.523834 z m 0,-9.3607018 V 4.6779614 H 8.2545416 A 0.61289373,0.65307225 0 0 0 7.6416479,5.3310337 V 15.344809 A 0.61289373,0.65307225 0 0 0 8.2545416,15.99788 H 15.20067 a 0.61289373,0.65307225 0 0 0 0.612894,-0.653071 V 8.1610135 H 13.157691 A 0.61452811,0.65481378 0 0 1 12.544797,7.5079412 Z M 15.634326,6.6638816 13.949822,4.8689488 A 0.61289373,0.65307225 0 0 0 13.513987,4.6779614 h -0.151998 v 2.6122891 h 2.451575 V 7.125386 A 0.61289373,0.65307225 0 0 0 15.634326,6.6609791 Z"
     inkscape:connector-curvature="0"
     style="fill:#7599f2;stroke-width:0.56236809" />
</svg>
