<?xml version="1.0" encoding="UTF-8" standalone="no"?>
<svg
   xmlns:dc="http://purl.org/dc/elements/1.1/"
   xmlns:cc="http://creativecommons.org/ns#"
   xmlns:rdf="http://www.w3.org/1999/02/22-rdf-syntax-ns#"
   xmlns:svg="http://www.w3.org/2000/svg"
   xmlns="http://www.w3.org/2000/svg"
   xmlns:sodipodi="http://sodipodi.sourceforge.net/DTD/sodipodi-0.dtd"
   xmlns:inkscape="http://www.inkscape.org/namespaces/inkscape"
   width="52"
   height="52"
   viewBox="0 0 52 52"
   version="1.1"
   id="svg18"
   sodipodi:docname="ic-check-staking.svg"
   inkscape:version="0.92.3 (2405546, 2018-03-11)">
  <metadata
     id="metadata22">
    <rdf:RDF>
      <cc:Work
         rdf:about="">
        <dc:format>image/svg+xml</dc:format>
        <dc:type
           rdf:resource="http://purl.org/dc/dcmitype/StillImage" />
      </cc:Work>
    </rdf:RDF>
  </metadata>
  <sodipodi:namedview
     pagecolor="#ffffff"
     bordercolor="#666666"
     borderopacity="1"
     objecttolerance="10"
     gridtolerance="10"
     guidetolerance="10"
     inkscape:pageopacity="0"
     inkscape:pageshadow="2"
     inkscape:window-width="835"
     inkscape:window-height="480"
     id="namedview20"
     showgrid="false"
     inkscape:zoom="4.5384615"
     inkscape:cx="26"
     inkscape:cy="26"
     inkscape:window-x="0"
     inkscape:window-y="0"
     inkscape:window-maximized="0"
     inkscape:current-layer="Группа_масок_71" />
  <defs
     id="defs4">
    <clipPath
       id="clip-path">
      <rect
         id="Прямоугольник_1754"
         data-name="Прямоугольник 1754"
         width="52"
         height="52"
         transform="translate(4175 1871)"
         fill="none"
         stroke="#707070"
         stroke-width="1" />
    </clipPath>
  </defs>
  <g
     id="Группа_масок_71"
     data-name="Группа масок 71"
     transform="translate(-4175 -1871)"
     clip-path="url(#clip-path)">
    <g
       id="Сгруппировать_1483"
       data-name="Сгруппировать 1483"
       transform="translate(-3 3)">
      <path
         id="Вычитание_8"
         data-name="Вычитание 8"
         d="M5.958,11.917a5.958,5.958,0,1,1,5.959-5.959A5.965,5.965,0,0,1,5.958,11.917Zm-2.2-6.938a.391.391,0,0,0-.391.391V8.253a.391.391,0,0,0,.391.39h2.38a.389.389,0,0,0,.275-.114l.62-.619.065-.065a.39.39,0,0,0-.275-.666H4.828V6.443H7.6a.39.39,0,0,0,.276-.114l.618-.618.066-.065a.391.391,0,0,0-.276-.667Zm0-2.2a.391.391,0,0,0-.391.39v.685a.391.391,0,0,0,.391.39H7.6a.393.393,0,0,0,.276-.114l.616-.619.064-.064a.39.39,0,0,0-.275-.667Z"
         transform="translate(4198.042 1873)"
         fill="#fff" />
      <g
         id="Сгруппировать_1479"
         data-name="Сгруппировать 1479"
         transform="translate(4194.25 1892.901)">
        <path
           id="Контур_2661"
           data-name="Контур 2661"
           d="M11.938,18.37v6.1H4.9a1.9,1.9,0,0,1-1.9-1.9V20.136H8.883a3.532,3.532,0,0,0,3.023-1.712Z"
           transform="translate(-3 -18.37)"
           fill="#fff" />
      </g>
      <g
         id="Сгруппировать_1480"
         data-name="Сгруппировать 1480"
         transform="translate(4204.813 1892.912)">
        <path
           id="Контур_2662"
           data-name="Контур 2662"
           d="M21.688,20.135v2.438a1.9,1.9,0,0,1-1.9,1.9H12.75V18.38l.032.054a3.546,3.546,0,0,0,3.023,1.7Z"
           transform="translate(-12.75 -18.38)"
           fill="#fff" />
      </g>
      <g
         id="Сгруппировать_1481"
         data-name="Сгруппировать 1481"
         transform="translate(4203.188 1886)">
        <path
           id="Контур_2663"
           data-name="Контур 2663"
           d="M24.947,17.811,21.7,12.394A.813.813,0,0,0,21,12H12.063a.812.812,0,0,0-.7,1.231L14.3,18.123a1.909,1.909,0,0,0,1.625.92H24.25a.813.813,0,0,0,.7-1.232Z"
           transform="translate(-11.25 -12)"
           fill="#fff" />
      </g>
      <g
         id="Сгруппировать_1482"
         data-name="Сгруппировать 1482"
         transform="translate(4191 1886)">
        <path
           id="Контур_2664"
           data-name="Контур 2664"
           d="M13.707,12.413A.814.814,0,0,0,13,12H4.063a.813.813,0,0,0-.7.394L.116,17.811a.812.812,0,0,0,.7,1.231H9.137a1.908,1.908,0,0,0,1.626-.921L13.7,13.23a.81.81,0,0,0,.011-.817Z"
           transform="translate(0 -12)"
           fill="#fff" />
      </g>
    </g>
  </g>
</svg>
