<?xml version="1.0" encoding="UTF-8" standalone="no"?>
<svg
   xmlns:dc="http://purl.org/dc/elements/1.1/"
   xmlns:cc="http://creativecommons.org/ns#"
   xmlns:rdf="http://www.w3.org/1999/02/22-rdf-syntax-ns#"
   xmlns:svg="http://www.w3.org/2000/svg"
   xmlns="http://www.w3.org/2000/svg"
   xmlns:sodipodi="http://sodipodi.sourceforge.net/DTD/sodipodi-0.dtd"
   xmlns:inkscape="http://www.inkscape.org/namespaces/inkscape"
   width="23.188"
   height="26.5"
   viewBox="0 0 23.188 26.5"
   version="1.1"
   id="svg3"
   sodipodi:docname="ic-check-cold-staking.svg"
   inkscape:version="1.0.1 (3bc2e813f5, 2020-09-07)">
  <style
     id="style834"></style>
  <metadata
     id="metadata9">
    <rdf:RDF>
      <cc:Work
         rdf:about="">
        <dc:format>image/svg+xml</dc:format>
        <dc:type
           rdf:resource="http://purl.org/dc/dcmitype/StillImage" />
      </cc:Work>
    </rdf:RDF>
  </metadata>
  <defs
     id="defs7" />
  <sodipodi:namedview
     pagecolor="#ffffff"
     bordercolor="#666666"
     borderopacity="1"
     objecttolerance="10"
     gridtolerance="10"
     guidetolerance="10"
     inkscape:pageopacity="0"
     inkscape:pageshadow="2"
     inkscape:window-width="1920"
     inkscape:window-height="1025"
     id="namedview5"
     showgrid="false"
     inkscape:zoom="7.7278458"
     inkscape:cx="11.594"
     inkscape:cy="13.25"
     inkscape:window-x="0"
     inkscape:window-y="27"
     inkscape:window-maximized="1"
     inkscape:current-layer="svg3" />
  <path
     id="Icon_map-snow"
     data-name="Icon map-snow"
     d="M 10.680365,23.88912 V 20.917362 L 9.1470272,21.851343 8.3964942,21.366522 V 20.317067 L 10.680365,18.916944 V 16.964075 L 8.8524409,18.115419 V 16.04283 L 7.025344,17.024359 v 2.807887 L 6.269846,20.407918 5.6575038,19.887435 V 18.007586 L 3.1080085,19.473937 2,19.002701 V 17.813997 L 4.5974897,16.332364 2.9135485,15.476498 V 14.389683 L 3.8833662,13.861559 6.2657086,15.29989 7.9157227,14.322606 7.8784857,14.294587 6.2036469,13.296925 7.8338013,12.252565 6.1995094,11.27613 3.8179945,12.706819 2.9135485,12.252565 v -1.08172 L 4.532118,10.243656 2,8.8121182 V 7.623415 L 3.0600141,7.1012347 5.6575038,8.6057933 V 6.6928303 L 6.3360452,6.1647064 7.2239415,6.7174534 7.1982895,9.5788318 8.8764383,10.573946 8.8913333,8.5531507 10.680365,9.5397744 V 7.5869049 L 8.3964942,6.1859333 V 5.1449689 L 9.1470272,4.6525062 10.680365,5.5864873 V 2.6206729 L 11.590604,2 12.506635,2.6206729 v 2.9666634 l 1.784067,-0.9518116 0.957406,0.5739738 V 6.1434796 L 12.507462,7.5869049 V 9.5397744 L 14.334559,8.4767341 V 10.599418 L 16.162484,9.6246817 V 6.5680165 l 0.661991,-0.4058573 0.705849,0.4058573 v 1.9528694 l 2.668653,-1.4434252 0.985541,0.5705775 V 8.751834 l -2.510604,1.485879 1.597055,0.91615 v 1.056248 l -0.835764,0.466991 -2.431165,-1.481634 -1.680631,1.103796 1.621052,1.04436 -1.671529,0.995115 1.721178,0.929736 2.464264,-1.398425 0.815078,0.569729 v 1.00785 l -1.516789,0.884735 2.430337,1.485879 v 1.167476 l -1.151865,0.486519 -2.502329,-1.400971 v 1.853528 l -0.694264,0.491613 -0.676058,-0.491613 v -2.81468 l -1.827097,-1.037568 v 1.95287 l -1.827097,-1.06304 v 1.952869 l 2.283871,1.400123 v 1.103795 l -0.752188,0.424537 -1.532511,-0.926339 V 23.88912 L 11.591431,24.503 Z m -0.670266,-10.595591 0.860589,1.362763 h 1.60533 l 0.737293,-1.362763 -0.778668,-1.449369 h -1.60533 l -0.820042,1.449369 z"
     fill="#ffffff"
     style="stroke-width:0.838213" />
</svg>
