<svg xmlns="http://www.w3.org/2000/svg" width="23.188" height="26.5" viewBox="0 0 23.188 26.5">
  <path id="Icon_map-snow" data-name="Icon map-snow" d="M13.37,26.5v-3.5l-1.853,1.1-.907-.571V22.293l2.76-1.649v-2.3L11.161,19.7V17.259L8.953,18.415v3.307L8.04,22.4,7.3,21.787V19.573L4.219,21.3,2.88,20.745v-1.4L6.019,17.6,3.984,16.592V15.312l1.172-.622,2.879,1.694,1.994-1.151L9.984,15.2,7.96,14.025l1.97-1.23-1.975-1.15L5.077,13.33l-1.093-.535V11.521L5.94,10.429,2.88,8.743v-1.4l1.281-.615L7.3,8.5V6.247l.82-.622,1.073.651-.031,3.37,2.028,1.172.018-2.38L13.37,9.6V7.3l-2.76-1.65V4.424l.907-.58,1.853,1.1V1.451L14.47.72l1.107.731V4.945l2.156-1.121L18.89,4.5V5.6L15.578,7.3V9.6l2.208-1.252v2.5L19.995,9.7V6.1l.8-.478.853.478V8.4l3.225-1.7,1.191.672v1.3l-3.034,1.75,1.93,1.079v1.244l-1.01.55L21.012,11.55l-2.031,1.3,1.959,1.23-2.02,1.172L21,16.347,23.978,14.7l.985.671v1.187L23.13,17.6l2.937,1.75v1.375l-1.392.573-3.024-1.65v2.183l-.839.579-.817-.579V18.516l-2.208-1.222v2.3l-2.208-1.252v2.3l2.76,1.649v1.3l-.909.5L15.578,23v3.5l-1.107.723ZM12.56,14.021,13.6,15.626h1.94l.891-1.605-.941-1.707h-1.94l-.991,1.707Z" transform="translate(-2.88 -0.72)" fill="#fff" opacity="0.5"/>
</svg>
