<svg xmlns="http://www.w3.org/2000/svg" width="25.829" height="25.828" viewBox="0 0 25.829 25.828">
  <path id="Icon_awesome-question-circle" data-name="Icon awesome-question-circle" d="M26.391,13.477A12.914,12.914,0,1,1,13.477.563,12.914,12.914,0,0,1,26.391,13.477ZM13.823,4.833a6.745,6.745,0,0,0-6.069,3.32A.626.626,0,0,0,7.9,9L9.7,10.369a.625.625,0,0,0,.868-.111c.93-1.18,1.568-1.864,2.984-1.864,1.064,0,2.38.685,2.38,1.716,0,.78-.644,1.18-1.694,1.769-1.225.687-2.846,1.541-2.846,3.679v.208a.625.625,0,0,0,.625.625h2.916a.625.625,0,0,0,.625-.625V15.7c0-1.482,4.332-1.544,4.332-5.555C19.891,7.124,16.758,4.833,13.823,4.833Zm-.347,12.914a2.4,2.4,0,1,0,2.4,2.4A2.4,2.4,0,0,0,13.477,17.747Z" transform="translate(-0.563 -0.563)" fill="#fff"/>
</svg>
