<svg xmlns="http://www.w3.org/2000/svg" width="17.58" height="27" viewBox="0 0 17.58 27">
  <path id="Icon_simple-tor" data-name="Icon simple-tor" d="M21.346,13.726A16.965,16.965,0,0,0,18.3,11.69c-.5-.277-2.036-1.483-1.507-3.193l-.957-.4a33.962,33.962,0,0,1,5.883-6.813,9.5,9.5,0,0,0-4.926,3.445A22.728,22.728,0,0,1,20.138,0a13.56,13.56,0,0,0-4.476,4.852l.705-2.816a16.432,16.432,0,0,0-1.987,5.48l-1.482-.6-.251.2c1.307,2.338.629,3.571-.025,4A30.557,30.557,0,0,0,8.474,14.1a6.971,6.971,0,0,0-2.161,5.958,7.482,7.482,0,0,0,5.254,6.462A11.352,11.352,0,0,0,15.338,27,9.091,9.091,0,0,0,21.2,25.115a7.37,7.37,0,0,0,2.665-5.655,7.734,7.734,0,0,0-2.515-5.733Zm-4,9.981a4.153,4.153,0,0,1-.829,1.509,3.617,3.617,0,0,0,.352-.855,11.842,11.842,0,0,0,.6-5.732,8.4,8.4,0,0,0-.53-1.936c-.526-1.333-1.332-2.591-1.431-2.867a15.688,15.688,0,0,1-.453-3.47,16.881,16.881,0,0,0,.377,3.745c.075.253.8,1.383,1.333,2.766a13.745,13.745,0,0,1,.5,2.086,13.423,13.423,0,0,1-.451,4.852,4.946,4.946,0,0,1-.932,1.987,4.339,4.339,0,0,0,.6-1.333,11.955,11.955,0,0,0,.4-3.268,9.87,9.87,0,0,0-.628-2.563,13,13,0,0,0-.778-1.459,6.4,6.4,0,0,1-.352-2.161,6.982,6.982,0,0,0,.175,2.287,15.5,15.5,0,0,1,.854,1.609,8.218,8.218,0,0,1,.429,2.162,13.089,13.089,0,0,1-.3,2.917A3.538,3.538,0,0,1,15.06,26.17a2.526,2.526,0,0,0,.5-1.055,15.484,15.484,0,0,0,.175-1.659,6.7,6.7,0,0,0-.125-1.936c-.2-.906-.528-1.809-.679-2.439.025.7.3,1.584.429,2.514a10.252,10.252,0,0,1,.024,1.96,7.707,7.707,0,0,1-.554,2.54,1.442,1.442,0,0,1-.6-.552,4.009,4.009,0,0,1-.552-1.082,5.673,5.673,0,0,1-.327-1.029,3.455,3.455,0,0,1,.629-2.49,3.2,3.2,0,0,0,.8-1.684,3.417,3.417,0,0,1-.98,1.509,4.024,4.024,0,0,0-.729,2.639,3.916,3.916,0,0,0,.277,1.133,5.645,5.645,0,0,0,.5,1.1,1.878,1.878,0,0,0,.528.552,4.911,4.911,0,0,1-1.76-.778,6.287,6.287,0,0,1-2.112-3.8A4.352,4.352,0,0,1,12.847,18.1a3.393,3.393,0,0,0,1.735-2.766,3.8,3.8,0,0,1-1.861,2.641,4.182,4.182,0,0,0-2.438,3.771,4.875,4.875,0,0,0,2.262,4,6.008,6.008,0,0,0,1.258.629c-1.785-.429-2.012-.679-2.615-1.383,0-.051-.151-.152-.151-.176a10.269,10.269,0,0,1-2.162-3.9,2.89,2.89,0,0,1-.1-1.533c.654-2.364,2.086-3.268,3.519-4.247.352-.253.7-.479,1.03-.73.8-.629,1.006-2.263,1.181-3.193-.326,1.132-.678,2.54-1.307,2.991-.326.252-.729.452-1.055.679-1.483,1.006-2.967,1.961-3.645,4.4a3.208,3.208,0,0,0,.1,1.685,10.7,10.7,0,0,0,2.238,4.047l.151.152a3.629,3.629,0,0,0,1.433.98,6.688,6.688,0,0,1-1.458-.528,7.152,7.152,0,0,1-4-5.556c-.2-4.047,1.735-5.228,3.545-6.712,1.006-.829,2.413-1.232,3.217-2.715a2.9,2.9,0,0,0,.051-1.785,8.154,8.154,0,0,0-.6-1.358l2.238.981a9.174,9.174,0,0,0,.126,2.69c.225.855,1.332,2.086,1.784,3.52a18.237,18.237,0,0,1,.026,9.021Z" transform="translate(-6.281)" fill="#fff"/>
</svg>
