<svg xmlns="http://www.w3.org/2000/svg" width="25.865" height="25.865" viewBox="0 0 25.865 25.865">
  <path id="Icon_material-brightness-7" data-name="Icon material-brightness-7" d="M23.115,10.183V4.82H17.752L13.968,1.035,10.183,4.82H4.82v5.363L1.035,13.968,4.82,17.752v5.363h5.363L13.968,26.9l3.785-3.785h5.363V17.752L26.9,13.968ZM13.968,20.828a6.861,6.861,0,1,1,6.861-6.861A6.866,6.866,0,0,1,13.968,20.828Zm0-11.435a4.574,4.574,0,1,0,4.574,4.574A4.573,4.573,0,0,0,13.968,9.394Z" transform="translate(-1.035 -1.035)" fill="#fff"/>
</svg>
