<?xml version="1.0" encoding="UTF-8" standalone="no"?>
<svg
   xmlns:dc="http://purl.org/dc/elements/1.1/"
   xmlns:cc="http://creativecommons.org/ns#"
   xmlns:rdf="http://www.w3.org/1999/02/22-rdf-syntax-ns#"
   xmlns:svg="http://www.w3.org/2000/svg"
   xmlns="http://www.w3.org/2000/svg"
   xmlns:sodipodi="http://sodipodi.sourceforge.net/DTD/sodipodi-0.dtd"
   xmlns:inkscape="http://www.inkscape.org/namespaces/inkscape"
   version="1.1"
   id="Layer_1"
   x="0px"
   y="0px"
   width="24px"
   height="31px"
   viewBox="0 0 24 30"
   style="enable-background:new 0 0 24 30;"
   xml:space="preserve"
   sodipodi:docname="ic-nav-cold-staking.svg"
   inkscape:version="1.0.1 (0767f8302a, 2020-10-17)"><metadata
   id="metadata15"><rdf:RDF><cc:Work
       rdf:about=""><dc:format>image/svg+xml</dc:format><dc:type
         rdf:resource="http://purl.org/dc/dcmitype/StillImage" /></cc:Work></rdf:RDF></metadata><defs
   id="defs13" /><sodipodi:namedview
   pagecolor="#ffffff"
   bordercolor="#666666"
   borderopacity="1"
   objecttolerance="10"
   gridtolerance="10"
   guidetolerance="10"
   inkscape:pageopacity="0"
   inkscape:pageshadow="2"
   inkscape:window-width="1920"
   inkscape:window-height="1025"
   id="namedview11"
   showgrid="false"
   inkscape:zoom="28.322581"
   inkscape:cx="12"
   inkscape:cy="15.252848"
   inkscape:window-x="0"
   inkscape:window-y="27"
   inkscape:window-maximized="1"
   inkscape:current-layer="Layer_1"
   inkscape:document-rotation="0" />
<style
   type="text/css"
   id="style2">
	.st0{fill:#938DA5;}
</style>
	<title
   id="title4">Cold Staking</title>
	<desc
   id="desc6">Created with Sketch.</desc>
	<path
   class="st0"
   d="M21.7,22.1l-3-1.6l2.7-0.5c0.5,0,0.8-0.5,0.5-1.1c0-0.5-0.5-0.8-1.1-0.5l-4.3,1.1l-3-1.6l3-1.6l4.3,1.1h0.3  c0.3,0,0.8-0.3,0.8-0.5c0-0.5-0.3-0.8-0.5-1.1l-2.7-0.5l3-1.6c0.5-0.3,0.5-0.8,0.3-1.1c-0.3-0.3-0.8-0.5-1.1-0.3l-3,1.6l0.8-2.4  c0-0.5-0.3-0.8-0.5-1.1c-0.5,0-1.1,0.3-1.1,0.5L16,14.8l-3,1.6v-3.3l3.3-3c0.3-0.3,0.3-0.8,0-1.1c-0.3-0.3-0.8-0.3-1.4,0L13.1,11  V7.8c0-0.5-0.3-0.8-0.8-0.8c-0.5,0-0.8,0.3-0.8,0.8V11L9.3,8.9C9,8.6,8.5,8.6,7.9,8.9c-0.3,0.3-0.3,0.8,0,1.1l3.3,3v3.3l-3-1.6  l-1.1-4.1c0-0.5-0.5-0.8-1.1-0.5c-0.5,0-0.8,0.5-0.5,1.1l0.8,2.4l-3-1.6c-0.5-0.3-1.1,0-1.1,0.3c-0.3,0.3,0,0.8,0.3,1.1l3,1.6  l-2.7,0.5c-0.5,0-0.8,0.5-0.5,1.1C2.2,16.7,2.8,17,3,17h0.3l4.3-1.1l3,1.6l-3,1.6l-4.3-1.1c-0.5,0-1.1,0.3-1.1,0.5  c0,0.5,0.3,0.8,0.5,1.1l2.7,0.5l-3,1.6c-0.5,0.3-0.5,0.8-0.3,1.1c0.3,0.3,0.5,0.5,0.8,0.5s0.3,0,0.5,0l2.7-1.6l-0.8,2.7  c0,0.5,0.3,0.8,0.5,1.1h0.3c0.3,0,0.8-0.3,0.8-0.5l1.1-4.1l3-1.6v3.3l-3.3,3c-0.3,0.3-0.3,0.8,0,1.1s0.8,0.3,1.4,0l1.9-1.9v3.3  c0,0.5,0.3,0.8,0.8,0.8c0.5,0,0.8-0.3,0.8-0.8v-3.3l1.9,1.9C15,27,15,27,15.2,27c0.3,0,0.5,0,0.5-0.3c0.3-0.3,0.3-0.8,0-1.1l-3.3-3  v-3.5l3,1.6l1.1,4.1c0,0.3,0.5,0.5,0.8,0.5h0.3c0.5,0,0.8-0.5,0.5-1.1v-2.4l3,1.6c0.3,0,0.3,0,0.5,0c0.3,0,0.5-0.3,0.8-0.5  C22.6,23,22.3,22.4,21.7,22.1z"
   id="path8" />
<path
   style="fill:#7699f1;stroke:#ffffff;stroke-width:0.0353075;stroke-opacity:0.501961;fill-opacity:0.50196081"
   d="m 11.406193,29.284172 c -0.136593,-0.06807 -0.20886,-0.134001 -0.280566,-0.255979 l -0.09658,-0.164298 -0.01007,-1.7986 -0.01007,-1.798601 -0.978539,0.973457 C 8.895004,27.369613 8.884297,27.376694 8.307786,27.379449 8.0167058,27.38084 7.9741451,27.372181 7.8419132,27.284674 7.5342908,27.0811 7.4111787,26.649331 7.5683025,26.325091 7.6159811,26.226702 8.1187463,25.747353 9.323257,24.651875 l 1.688133,-1.535322 v -1.67402 -1.674022 l -0.291287,0.157828 c -0.160208,0.0868 -0.8309922,0.445419 -1.4906316,0.796922 -0.6596391,0.351501 -1.2110722,0.650823 -1.2254067,0.665157 -0.014335,0.01433 -0.2790392,0.967936 -0.5882321,2.119114 -0.3274913,1.219306 -0.5868875,2.120365 -0.6213819,2.158481 -0.032567,0.03599 -0.156759,0.117421 -0.2759816,0.180966 -0.1708442,0.09106 -0.2695386,0.118533 -0.4658533,0.129682 L 5.8035308,25.990807 5.656429,25.767898 C 5.4452925,25.447954 5.36107,25.263537 5.3383049,25.071321 c -0.01718,-0.145059 0.03538,-0.355557 0.3747394,-1.500798 0.2170974,-0.732641 0.3898229,-1.34452 0.3838344,-1.359731 -0.00599,-0.01521 -0.6225905,0.336609 -1.3702272,0.781822 L 3.3673121,23.802093 3.0428202,23.787056 C 2.753888,23.773667 2.6997194,23.760056 2.548515,23.662854 2.3348333,23.525487 2.0941365,23.280454 2.0453312,23.150606 1.9463867,22.887359 2.0311687,22.541752 2.2430648,22.34456 2.2982458,22.29321 3.0181412,21.891741 3.8428321,21.452411 4.667523,21.013081 5.3569937,20.638906 5.3749892,20.62091 5.4161882,20.57971 5.4843144,20.59453 3.9851936,20.318626 L 2.7317768,20.087943 2.6365164,19.974211 C 2.3680039,19.653631 2.180708,19.191384 2.2337293,18.98013 c 0.046109,-0.183712 0.599617,-0.439224 0.9701896,-0.447861 0.1060158,-0.0025 0.8949122,0.184529 2.2465367,0.532521 1.1457289,0.294981 2.1069761,0.537346 2.1361048,0.538589 0.047566,0.002 2.9481986,-1.531216 3.0084406,-1.590232 0.01373,-0.01345 -0.6530553,-0.386006 -1.4817341,-0.827913 L 7.6065783,16.381768 5.4631505,16.929494 C 3.1687094,17.515811 3.0727919,17.532722 2.746012,17.408555 2.4347736,17.290294 2.3483954,17.210422 2.2713541,16.969651 2.138737,16.555193 2.2211649,16.25174 2.5046957,16.110619 c 0.1087522,-0.05413 0.5898347,-0.156146 1.5775936,-0.33454 0.7816202,-0.141164 1.4211276,-0.265887 1.4211276,-0.277163 0,-0.01127 -0.6553958,-0.368463 -1.4564351,-0.79375 -1.5655558,-0.831183 -1.69111,-0.91667 -1.8606347,-1.266861 -0.10917,-0.225515 -0.1070664,-0.386037 0.00823,-0.627988 0.1342877,-0.281805 0.3541067,-0.417379 0.6767395,-0.417379 0.1820371,0 0.3152619,0.06452 2.0671803,1.001158 0.7476367,0.399712 1.3633546,0.71519 1.3682623,0.701062 0.00814,-0.02344 -0.7268981,-2.237086 -0.852457,-2.567254 -0.1572394,-0.413474 0.039335,-0.811782 0.4437774,-0.899199 0.083932,-0.01814 0.2399902,-0.05803 0.3467954,-0.08864 0.2983538,-0.08551 0.5856476,-0.0047 0.7217164,0.202937 0.030091,0.04592 0.1254218,0.360478 0.2118468,0.699009 0.3178736,1.245124 1.0009826,3.746924 1.03069,3.774768 0.035701,0.03346 2.8605418,1.539435 2.9523178,1.573933 0.0583,0.02191 0.06179,-0.07051 0.06179,-1.636632 V 13.49422 L 9.5283223,11.952922 C 8.5961206,11.105209 7.8079053,10.362304 7.776733,10.302023 7.7455607,10.241743 7.7126989,10.10364 7.7037068,9.9951291 7.6836324,9.7528777 7.7875011,9.5230873 7.9727247,9.3999765 8.2727284,9.2005764 8.8287251,9.1397974 9.0871298,9.2781548 9.1648064,9.3197451 9.7367882,9.8398203 10.3582,10.433878 l 1.129841,1.080104 0.01765,-1.7231073 c 0.0196,-1.9127716 0.01417,-1.8690376 0.258582,-2.0836346 0.286145,-0.2512387 0.785529,-0.2512387 1.071674,0 0.244441,0.2146219 0.238985,0.1706112 0.258582,2.0859349 l 0.01765,1.725407 0.897884,-0.997645 c 0.981052,-1.090054 1.007441,-1.1115061 1.478983,-1.2022642 0.17641,-0.033954 0.264223,-0.033741 0.419533,0.00102 0.496479,0.1111071 0.742944,0.6526968 0.498776,1.0960292 -0.03839,0.06971 -0.797793,0.785359 -1.742169,1.641799 l -1.674108,1.518223 -0.0012,1.671223 c -7.56e-4,1.018503 0.01162,1.666626 0.03167,1.659453 0.0181,-0.0065 0.69902,-0.367206 1.513152,-0.80163 l 1.480239,-0.78986 0.556007,-1.98178 c 0.541029,-1.928389 0.559319,-1.984804 0.678923,-2.094043 0.127597,-0.116541 0.518917,-0.27398 0.776603,-0.312449 0.144591,-0.02159 0.150409,-0.01842 0.272507,0.148366 0.201391,0.2751 0.340472,0.561979 0.36246,0.747637 0.01832,0.154697 -0.02173,0.29984 -0.375952,1.36253 -0.218052,0.654165 -0.388454,1.197393 -0.378672,1.207175 0.0098,0.0098 0.719098,-0.356644 1.576258,-0.814281 1.74589,-0.932129 1.705612,-0.917727 2.079598,-0.743625 0.273727,0.127427 0.38675,0.21778 0.465489,0.372122 0.146052,0.286287 0.05213,0.674008 -0.214023,0.883469 -0.06721,0.05289 -0.801916,0.457484 -1.632683,0.899088 -0.830766,0.441605 -1.505225,0.808177 -1.498797,0.814605 0.0097,0.0097 2.652096,0.508333 2.693704,0.508333 0.02818,0 0.365315,0.524163 0.417563,0.649211 0.03026,0.07241 0.06501,0.207024 0.07723,0.299135 0.01952,0.147148 0.01089,0.180934 -0.07109,0.278358 -0.123376,0.146624 -0.469126,0.316119 -0.70495,0.345583 -0.17003,0.02124 -0.409673,-0.03271 -2.353549,-0.529837 -1.190333,-0.304419 -2.189195,-0.555035 -2.219692,-0.556926 -0.05464,-0.0034 -2.909498,1.500405 -2.994282,1.577235 -0.03313,0.03002 0.318306,0.232621 1.461419,0.842507 l 1.505036,0.802981 2.146698,-0.548679 c 1.180684,-0.301774 2.206796,-0.57379 2.280248,-0.60448 0.176389,-0.0737 0.494045,-0.07476 0.634336,-0.0021 0.156279,0.08093 0.282558,0.243847 0.311201,0.401504 0.01348,0.07421 0.04724,0.203008 0.07502,0.286218 0.06369,0.190807 0.06468,0.434942 0.0023,0.584122 -0.05902,0.141265 -0.234146,0.2938 -0.365857,0.31867 -0.05387,0.01017 -0.729506,0.133856 -1.501419,0.274856 -0.771912,0.140998 -1.391559,0.267676 -1.376993,0.281505 0.01457,0.01383 0.716432,0.39312 1.559701,0.842869 0.843269,0.449749 1.600517,0.864029 1.682773,0.920622 0.223235,0.15359 0.581042,0.59816 0.481422,0.59816 -0.01614,0 -0.133248,0.08571 -0.260243,0.190456 -0.338768,0.279433 -0.400311,0.303851 -0.765854,0.303851 h -0.315678 l -1.488261,-0.79442 c -0.818543,-0.43693 -1.495528,-0.794419 -1.504412,-0.794419 -0.0089,0 -0.01615,0.540715 -0.01615,1.20159 0,0.925749 0.01089,1.227671 0.04742,1.315205 0.114716,0.274848 0.09659,0.583002 -0.04443,0.755205 -0.138845,0.169554 -0.284263,0.223172 -0.605639,0.223312 -0.371874,1.77e-4 -0.634808,-0.07349 -0.795328,-0.222791 -0.118067,-0.109814 -0.134426,-0.16282 -0.685522,-2.22128 -0.310512,-1.159831 -0.564568,-2.11561 -0.564568,-2.123953 0,-0.01759 -2.981584,-1.610659 -3.014494,-1.610659 -0.01207,0 -0.02195,0.792198 -0.02195,1.760441 v 1.76044 l 1.688132,1.535322 c 1.204511,1.095478 1.707276,1.574827 1.754955,1.673216 0.107264,0.221349 0.08859,0.502623 -0.04795,0.722272 -0.06135,0.09868 -0.111536,0.20978 -0.111536,0.24688 0,0.127918 -0.149378,0.183871 -0.449711,0.168452 -0.405848,-0.02084 -0.507369,-0.09654 -1.639895,-1.222885 l -0.977419,-0.972082 -0.01119,1.78043 c -0.01096,1.744429 -0.01273,1.783285 -0.0872,1.92166 -0.150579,0.279797 -0.37143,0.406036 -0.710347,0.406036 -0.151055,0 -0.255149,-0.02447 -0.390028,-0.09168 z"
   id="path840"
   transform="translate(0,-0.5)" /><path
   style="fill:#7599f2;fill-opacity:1;stroke:#ffffff;stroke-width:0.0353075;stroke-opacity:0.501961"
   d="m 11.646925,29.322827 c -0.232557,-0.04256 -0.395535,-0.161886 -0.540748,-0.395901 -0.05374,-0.0866 -0.05948,-0.269773 -0.05948,-1.897779 0,-0.991059 -0.01057,-1.801926 -0.02349,-1.801926 -0.01292,0 -0.437934,0.409889 -0.944476,0.910864 -0.5065426,0.500975 -0.9924838,0.959219 -1.0798699,1.018318 -0.2254089,0.152445 -0.3590418,0.189269 -0.6868527,0.189269 -0.2567566,0 -0.3053334,-0.01103 -0.4486409,-0.101918 C 7.6341253,27.098373 7.5383448,26.889583 7.5581576,26.57843 l 0.014907,-0.23411 0.4594631,-0.4438 C 8.2852324,25.65643 9.0667996,24.933504 9.769344,24.294017 l 1.277353,-1.162703 v -1.708969 -1.708969 l -0.414863,0.220198 c -0.7428459,0.394283 -2.6388719,1.41628 -2.6531955,1.430127 -0.00768,0.0074 -0.1393926,0.470624 -0.2927017,1.029338 -0.9528331,3.472472 -0.8779723,3.235853 -1.0601238,3.350841 -0.1833978,0.115774 -0.3826236,0.18 -0.6177999,0.199165 L 5.824113,25.958032 5.7027466,25.775241 C 5.6359953,25.674706 5.5369308,25.506302 5.4826039,25.401009 5.3253856,25.096299 5.340899,24.970305 5.6778964,23.81492 c 0.3811341,-1.306706 0.45921,-1.604147 0.4245362,-1.617329 -0.046949,-0.01785 -0.3263163,0.135802 -1.3436515,0.739008 -0.5322783,0.315603 -1.0710532,0.632994 -1.1972776,0.705314 L 3.3320047,23.773403 3.0318908,23.74721 C 2.8668281,23.732804 2.6831162,23.695611 2.6236421,23.66456 2.4505212,23.574174 2.1631006,23.29764 2.096582,23.157462 2.01052,22.9761 2.0379237,22.69704 2.159895,22.512729 2.2721211,22.343144 2.3170205,22.316285 4.0721309,21.368809 4.8093255,20.970842 5.4180406,20.628566 5.4248311,20.608195 5.4424773,20.555256 5.3426399,20.532812 3.9723429,20.28166 L 2.7413828,20.056046 2.5880429,19.841159 c -0.2564103,-0.359327 -0.383969,-0.737313 -0.3010846,-0.892183 0.050612,-0.09457 0.4986958,-0.314824 0.7272787,-0.357492 0.232586,-0.04341 0.3027265,-0.02848 2.6480638,0.56401 l 1.9419134,0.490573 0.8473804,-0.443507 c 1.5117602,-0.791232 2.1726844,-1.156599 2.1602084,-1.19419 -0.0067,-0.02026 -0.130091,-0.106404 -0.274145,-0.191422 -0.4595532,-0.271218 -2.6846393,-1.451914 -2.7362123,-1.451914 -0.027298,0 -0.9651857,0.231022 -2.0841953,0.513381 -2.1860721,0.55161 -2.4523002,0.599839 -2.7504368,0.498254 C 2.4935171,17.283547 2.3705429,17.167676 2.304725,16.94127 2.2212645,16.654176 2.2500691,16.393375 2.3802454,16.257501 2.5175915,16.114142 2.6454067,16.080573 4.0558088,15.817428 5.4247016,15.562029 5.5645607,15.527473 5.4960296,15.461586 5.4709639,15.437488 4.9106387,15.128056 4.2508623,14.77396 2.5195134,13.844762 2.3882477,13.759116 2.2402466,13.462116 2.0949243,13.170493 2.136096,12.875268 2.3540941,12.645766 c 0.1375988,-0.14486 0.2642774,-0.200571 0.4664279,-0.205125 0.2106621,-0.0047 0.4292655,0.09564 1.8531683,0.851016 1.2220405,0.648288 1.5678642,0.819756 1.6272638,0.806839 0.037547,-0.0082 -0.062192,-0.345982 -0.4092526,-1.386133 -0.2523948,-0.756435 -0.4588996,-1.422703 -0.4588996,-1.480595 0,-0.156535 0.1309595,-0.39794 0.2584846,-0.476479 0.1283442,-0.07904 0.6349054,-0.215995 0.7989307,-0.215995 0.1398199,0 0.3185151,0.07516 0.402249,0.169186 0.036205,0.04066 0.1407199,0.351832 0.2358464,0.702197 0.093956,0.346053 0.3391602,1.252387 0.5448985,2.014076 0.5320496,1.969768 0.4717963,1.806848 0.715845,1.935577 0.1120728,0.05912 0.7762365,0.412632 1.4759192,0.785592 0.6996827,0.372961 1.2895397,0.67811 1.3107917,0.67811 0.0725,0 0.08277,-0.221194 0.08277,-1.782684 v -1.562013 l -0.90826,-0.825658 C 9.0635914,11.484015 8.087329,10.57613 7.9180842,10.391834 7.8092202,10.273288 7.7668445,10.193043 7.7484969,10.070693 7.6735564,9.5709522 8.0440844,9.2522885 8.7014955,9.2510899 c 0.2596508,-4.735e-4 0.2970446,0.00851 0.417289,0.1002224 0.1638883,0.1250038 0.7801573,0.6940147 1.6803255,1.5514697 0.378434,0.360478 0.696202,0.647292 0.70615,0.637366 0.0099,-0.0099 0.0281,-0.783357 0.04034,-1.7187339 0.01405,-1.0742113 0.0365,-1.7450371 0.06095,-1.8210879 0.187653,-0.5838733 1.200604,-0.5838733 1.386855,0 0.02403,0.07534 0.04684,0.7569134 0.06095,1.8210857 0.0124,0.9353751 0.03206,1.7101861 0.04369,1.7218021 0.01164,0.01162 0.340008,-0.332649 0.729715,-0.765033 1.174744,-1.303391 1.290752,-1.3965983 1.78199,-1.4317462 0.307859,-0.022027 0.511331,0.051931 0.677745,0.2463491 0.158783,0.1855023 0.206391,0.398266 0.143743,0.6424021 -0.03909,0.152334 -0.08474,0.216379 -0.292272,0.410031 -0.558832,0.52146 -2.012215,1.854987 -2.57822,2.365603 l -0.606633,0.547267 -1.05e-4,1.500569 c -1.06e-4,1.452145 0.01572,1.871299 0.07059,1.871299 0.01438,0 0.698479,-0.356442 1.520212,-0.792094 l 1.494061,-0.792094 0.148318,-0.523111 c 0.08157,-0.287711 0.318887,-1.12687 0.527359,-1.864797 0.208474,-0.737927 0.415106,-1.423542 0.459184,-1.523588 0.0727,-0.165016 0.101791,-0.192236 0.31334,-0.293199 0.250541,-0.119573 0.576021,-0.202952 0.66258,-0.169736 0.07674,0.02945 0.31252,0.397236 0.411074,0.64123 0.06204,0.153603 0.07858,0.244887 0.06255,0.345183 -0.01199,0.07499 -0.180455,0.628259 -0.37436,1.229475 -0.334887,1.038339 -0.387124,1.236278 -0.326075,1.235605 0.01456,-1.77e-4 0.463411,-0.230923 0.997437,-0.512804 1.399913,-0.738932 2.049297,-1.063906 2.215278,-1.1086 0.121669,-0.03276 0.173725,-0.02852 0.315719,0.0257 0.289833,0.110689 0.46945,0.245236 0.542665,0.4065 0.09301,0.204865 0.0852,0.367543 -0.02839,0.591496 -0.115984,0.22867 -0.05677,0.191628 -1.881663,1.177068 -1.402854,0.757538 -1.451154,0.786444 -1.383727,0.828117 0.02439,0.01507 0.635195,0.137581 1.357344,0.272239 l 1.312999,0.244832 0.203541,0.314738 c 0.236927,0.366362 0.319821,0.646666 0.235721,0.797084 -0.05922,0.105913 -0.379533,0.3049 -0.576846,0.358347 -0.07768,0.02104 -0.228617,0.02886 -0.335422,0.01737 -0.106805,-0.01148 -1.13806,-0.258434 -2.291677,-0.548778 l -2.097487,-0.527898 -0.321078,0.161133 c -1.167662,0.585991 -2.708651,1.427583 -2.694068,1.471333 0.0068,0.02028 0.111851,0.09776 0.233536,0.172176 0.403285,0.246636 2.722066,1.474128 2.784389,1.473971 0.06805,-1.77e-4 2.474013,-0.613019 3.829082,-0.975347 1.023072,-0.273556 1.120446,-0.277241 1.336068,-0.05057 0.102455,0.107702 0.140759,0.192453 0.207305,0.45867 0.123274,0.493157 0.0694,0.738872 -0.195341,0.890932 -0.05623,0.0323 -0.459721,0.124116 -0.896651,0.204046 -1.772507,0.324253 -2.180539,0.415583 -2.116097,0.473648 0.0084,0.0076 0.45223,0.248352 0.986256,0.535043 2.406201,1.291769 2.360503,1.264209 2.598435,1.567108 l 0.149642,0.190501 -0.235371,0.183839 c -0.330953,0.258496 -0.420474,0.296567 -0.75363,0.3205 l -0.293814,0.02111 -1.165148,-0.624252 c -1.471806,-0.78855 -1.84831,-0.978157 -1.890525,-0.952066 -0.0455,0.02812 -0.04006,2.171219 0.0061,2.399939 0.01959,0.09709 0.04411,0.298539 0.05448,0.447652 l 0.01885,0.271115 -0.136027,0.145671 c -0.11729,0.125606 -0.163516,0.149391 -0.335587,0.172677 -0.424026,0.05738 -0.908958,-0.06119 -1.034627,-0.252988 -0.06593,-0.100619 -0.253761,-0.75894 -0.778292,-2.727766 -0.408567,-1.533604 -0.415876,-1.556153 -0.524954,-1.619626 -0.317312,-0.184644 -2.876026,-1.538672 -2.907638,-1.538672 -0.02035,0 -0.04658,0.03575 -0.05829,0.07944 -0.01171,0.04369 -0.02151,0.843248 -0.02177,1.776788 l -4.82e-4,1.697346 0.696627,0.63295 c 1.105275,1.004245 2.412403,2.2153 2.602929,2.411614 0.167059,0.172135 0.175486,0.190288 0.189342,0.407899 0.01417,0.222524 -0.03522,0.380375 -0.238302,0.761615 -0.02188,0.04107 -0.09966,0.05296 -0.346522,0.05296 -0.313374,0 -0.321516,-0.0022 -0.525012,-0.14123 -0.113686,-0.07768 -0.63758,-0.566244 -1.164209,-1.085706 -0.526629,-0.519462 -0.965838,-0.944476 -0.976019,-0.944476 -0.01018,0 -0.02531,0.806336 -0.03363,1.791857 -0.01386,1.643372 -0.02042,1.802096 -0.07911,1.915432 -0.0352,0.06797 -0.08988,0.153072 -0.121526,0.189122 -0.136502,0.155519 -0.457616,0.245519 -0.710719,0.199195 z"
   id="path836"
   transform="translate(0,-0.5)" /></svg>
