<svg xmlns="http://www.w3.org/2000/svg" xmlns:xlink="http://www.w3.org/1999/xlink" width="72" height="72" viewBox="0 0 72 72">
  <defs>
    <clipPath id="clip-path">
      <rect id="Rectangle_17" data-name="Rectangle 17" width="72" height="72" transform="translate(3449 1609)" fill="none" stroke="#707070" stroke-width="1"/>
    </clipPath>
  </defs>
  <g id="Group_1594" data-name="Group 1594" transform="translate(-129 -688)">
    <g id="Group_1567" data-name="Group 1567" transform="translate(-3955 -668)">
      <g id="Mask_Group_12" data-name="Mask Group 12" transform="translate(635 -253)" clip-path="url(#clip-path)">
        <path id="Subtraction_1" data-name="Subtraction 1" d="M19.875,39.75A19.88,19.88,0,0,1,12.139,1.562,19.88,19.88,0,0,1,27.611,38.188,19.75,19.75,0,0,1,19.875,39.75ZM12.7,17.645a1.282,1.282,0,0,0-1.28,1.28v9.461a1.282,1.282,0,0,0,1.28,1.281h7.809a1.291,1.291,0,0,0,.905-.375l2.034-2.032.213-.213a1.28,1.28,0,0,0-.905-2.186H16.228V22.45h9.093a1.272,1.272,0,0,0,.905-.375l2.03-2.03.214-.214a1.28,1.28,0,0,0-.9-2.187Zm0-7.209a1.282,1.282,0,0,0-1.28,1.28v2.245a1.282,1.282,0,0,0,1.28,1.28H25.324a1.287,1.287,0,0,0,.907-.378l2.022-2.031.21-.209a1.281,1.281,0,0,0-.9-2.188Z" transform="translate(3465.363 1625.502)" fill="#7599f2"/>
      </g>
      <g id="design" transform="translate(4086.967 1358.967)">
        <g id="Group_1566" data-name="Group 1566">
          <g id="Group_1565" data-name="Group 1565">
            <path id="Path_2690" data-name="Path 2690" d="M61.557,27.385A29.357,29.357,0,0,0,38.681,4.508a5.792,5.792,0,0,0-11.3,0A29.357,29.357,0,0,0,4.508,27.385a5.792,5.792,0,0,0,0,11.3A29.358,29.358,0,0,0,27.385,61.557a5.792,5.792,0,0,0,11.3,0A29.358,29.358,0,0,0,61.557,38.681a5.792,5.792,0,0,0,0-11.3ZM57.7,38.221A25.474,25.474,0,0,1,38.221,57.7a5.765,5.765,0,0,0-10.376,0A25.474,25.474,0,0,1,8.361,38.221a5.765,5.765,0,0,0,0-10.376A25.474,25.474,0,0,1,27.844,8.361a5.765,5.765,0,0,0,10.376,0A25.474,25.474,0,0,1,57.7,27.844a5.765,5.765,0,0,0,0,10.376Z" fill="#7599f2"/>
          </g>
        </g>
      </g>
    </g>
  </g>
</svg>
