<svg xmlns="http://www.w3.org/2000/svg" xmlns:xlink="http://www.w3.org/1999/xlink" width="264" height="264" viewBox="0 0 264 264">
  <defs>
    <clipPath id="clip-path">
      <rect id="Rectangle_17" data-name="Rectangle 17" width="264" height="264" transform="translate(-0.34 -0.34)" fill="none" stroke="#707070" stroke-width="1"/>
    </clipPath>
  </defs>
  <g id="Group_1600" data-name="Group 1600" transform="translate(-4083.66 -1355.66)" opacity="0.5">
    <g id="Mask_Group_12" data-name="Mask Group 12" transform="translate(4084 1356)" clip-path="url(#clip-path)">
      <path id="Subtraction_1" data-name="Subtraction 1" d="M72.686,145.373A72.706,72.706,0,0,1,44.394,5.712a72.705,72.705,0,0,1,56.585,133.949A72.231,72.231,0,0,1,72.686,145.373ZM46.459,64.532a4.688,4.688,0,0,0-4.683,4.683v34.6a4.689,4.689,0,0,0,4.683,4.685H75.018a4.72,4.72,0,0,0,3.31-1.371l7.44-7.432.777-.777a4.682,4.682,0,0,0-3.31-7.995H59.351V82.1H92.607a4.65,4.65,0,0,0,3.31-1.371l7.424-7.424.783-.781a4.683,4.683,0,0,0-3.308-8Zm0-26.364a4.688,4.688,0,0,0-4.683,4.683v8.209a4.688,4.688,0,0,0,4.683,4.683H92.615a4.707,4.707,0,0,0,3.318-1.381l7.4-7.428.767-.764a4.684,4.684,0,0,0-3.3-8Z" transform="translate(59.841 60.353)" fill="#562cdd"/>
    </g>
    <g id="design" transform="translate(4094.852 1366.852)">
      <g id="Group_1566" data-name="Group 1566">
        <g id="Group_1565" data-name="Group 1565">
          <path id="Path_2690" data-name="Path 2690" d="M225.128,100.152a107.366,107.366,0,0,0-83.665-83.665,21.183,21.183,0,0,0-41.311,0,107.366,107.366,0,0,0-83.665,83.665,21.183,21.183,0,0,0,0,41.311,107.367,107.367,0,0,0,83.665,83.665,21.183,21.183,0,0,0,41.311,0,107.367,107.367,0,0,0,83.665-83.665,21.183,21.183,0,0,0,0-41.311Zm-14.092,39.63a93.162,93.162,0,0,1-71.254,71.254,21.083,21.083,0,0,0-37.949,0,93.162,93.162,0,0,1-71.254-71.254,21.083,21.083,0,0,0,0-37.949,93.162,93.162,0,0,1,71.254-71.254,21.083,21.083,0,0,0,37.949,0,93.162,93.162,0,0,1,71.254,71.254,21.083,21.083,0,0,0,0,37.949Z" fill="#562cdd"/>
        </g>
      </g>
    </g>
  </g>
</svg>
