<svg xmlns="http://www.w3.org/2000/svg" xmlns:xlink="http://www.w3.org/1999/xlink" width="72" height="72" viewBox="0 0 72 72">
  <defs>
    <clipPath id="clip-path">
      <rect id="Rectangle_1694" data-name="Rectangle 1694" width="72" height="72" transform="translate(3357 1839)" fill="none" stroke="#707070" stroke-width="1"/>
    </clipPath>
  </defs>
  <g id="Mask_Group_31" data-name="Mask Group 31" transform="translate(-3357 -1839)" clip-path="url(#clip-path)">
    <path id="Icon_material-settings" data-name="Icon material-settings" d="M37.51,24.823a15.488,15.488,0,0,0,.139-1.948,15.488,15.488,0,0,0-.139-1.948L41.7,17.648a1,1,0,0,0,.239-1.272L37.967,9.5a1,1,0,0,0-1.212-.437l-4.949,1.987A14.521,14.521,0,0,0,28.447,9.1l-.755-5.267A.969.969,0,0,0,26.718,3h-7.95a.969.969,0,0,0-.974.835L17.039,9.1a15.27,15.27,0,0,0-3.359,1.948L8.731,9.062A.969.969,0,0,0,7.519,9.5L3.544,16.376a.98.98,0,0,0,.238,1.272l4.194,3.279a15.762,15.762,0,0,0-.139,1.948,15.762,15.762,0,0,0,.139,1.948L3.782,28.1a1,1,0,0,0-.238,1.272l3.975,6.877a1,1,0,0,0,1.212.437L13.68,34.7a14.521,14.521,0,0,0,3.359,1.948l.755,5.267a.969.969,0,0,0,.974.835h7.95a.969.969,0,0,0,.974-.835l.755-5.267A15.27,15.27,0,0,0,31.806,34.7l4.949,1.987a.969.969,0,0,0,1.212-.437l3.975-6.877A1,1,0,0,0,41.7,28.1L37.51,24.823ZM22.743,29.831A6.956,6.956,0,1,1,29.7,22.875,6.964,6.964,0,0,1,22.743,29.831Z" transform="translate(3370.71 1852.594)" fill="#562cdd"/>
  </g>
</svg>
