<?xml version="1.0" encoding="UTF-8" standalone="no"?>
<svg
   xmlns:dc="http://purl.org/dc/elements/1.1/"
   xmlns:cc="http://creativecommons.org/ns#"
   xmlns:rdf="http://www.w3.org/1999/02/22-rdf-syntax-ns#"
   xmlns:svg="http://www.w3.org/2000/svg"
   xmlns="http://www.w3.org/2000/svg"
   xmlns:sodipodi="http://sodipodi.sourceforge.net/DTD/sodipodi-0.dtd"
   xmlns:inkscape="http://www.inkscape.org/namespaces/inkscape"
   version="1.1"
   id="Layer_1"
   x="0px"
   y="0px"
   width="24px"
   height="31px"
   viewBox="0 0 24 30"
   style="enable-background:new 0 0 24 30;"
   xml:space="preserve"
   sodipodi:docname="ic-nav-cold-staking.svg"
   inkscape:version="1.0.1 (0767f8302a, 2020-10-17)"><metadata
   id="metadata15"><rdf:RDF><cc:Work
       rdf:about=""><dc:format>image/svg+xml</dc:format><dc:type
         rdf:resource="http://purl.org/dc/dcmitype/StillImage" /></cc:Work></rdf:RDF></metadata><defs
   id="defs13" /><sodipodi:namedview
   pagecolor="#ffffff"
   bordercolor="#666666"
   borderopacity="1"
   objecttolerance="10"
   gridtolerance="10"
   guidetolerance="10"
   inkscape:pageopacity="0"
   inkscape:pageshadow="2"
   inkscape:window-width="1920"
   inkscape:window-height="1025"
   id="namedview11"
   showgrid="false"
   inkscape:zoom="28.322581"
   inkscape:cx="12"
   inkscape:cy="15.376424"
   inkscape:window-x="0"
   inkscape:window-y="27"
   inkscape:window-maximized="1"
   inkscape:current-layer="Layer_1" />
<style
   type="text/css"
   id="style2">
	.st0{fill:#938DA5;}
</style>
	<title
   id="title4">Cold Staking</title>
	<desc
   id="desc6">Created with Sketch.</desc>
	<path
   class="st0"
   d="M21.7,22.1l-3-1.6l2.7-0.5c0.5,0,0.8-0.5,0.5-1.1c0-0.5-0.5-0.8-1.1-0.5l-4.3,1.1l-3-1.6l3-1.6l4.3,1.1h0.3  c0.3,0,0.8-0.3,0.8-0.5c0-0.5-0.3-0.8-0.5-1.1l-2.7-0.5l3-1.6c0.5-0.3,0.5-0.8,0.3-1.1c-0.3-0.3-0.8-0.5-1.1-0.3l-3,1.6l0.8-2.4  c0-0.5-0.3-0.8-0.5-1.1c-0.5,0-1.1,0.3-1.1,0.5L16,14.8l-3,1.6v-3.3l3.3-3c0.3-0.3,0.3-0.8,0-1.1c-0.3-0.3-0.8-0.3-1.4,0L13.1,11  V7.8c0-0.5-0.3-0.8-0.8-0.8c-0.5,0-0.8,0.3-0.8,0.8V11L9.3,8.9C9,8.6,8.5,8.6,7.9,8.9c-0.3,0.3-0.3,0.8,0,1.1l3.3,3v3.3l-3-1.6  l-1.1-4.1c0-0.5-0.5-0.8-1.1-0.5c-0.5,0-0.8,0.5-0.5,1.1l0.8,2.4l-3-1.6c-0.5-0.3-1.1,0-1.1,0.3c-0.3,0.3,0,0.8,0.3,1.1l3,1.6  l-2.7,0.5c-0.5,0-0.8,0.5-0.5,1.1C2.2,16.7,2.8,17,3,17h0.3l4.3-1.1l3,1.6l-3,1.6l-4.3-1.1c-0.5,0-1.1,0.3-1.1,0.5  c0,0.5,0.3,0.8,0.5,1.1l2.7,0.5l-3,1.6c-0.5,0.3-0.5,0.8-0.3,1.1c0.3,0.3,0.5,0.5,0.8,0.5s0.3,0,0.5,0l2.7-1.6l-0.8,2.7  c0,0.5,0.3,0.8,0.5,1.1h0.3c0.3,0,0.8-0.3,0.8-0.5l1.1-4.1l3-1.6v3.3l-3.3,3c-0.3,0.3-0.3,0.8,0,1.1s0.8,0.3,1.4,0l1.9-1.9v3.3  c0,0.5,0.3,0.8,0.8,0.8c0.5,0,0.8-0.3,0.8-0.8v-3.3l1.9,1.9C15,27,15,27,15.2,27c0.3,0,0.5,0,0.5-0.3c0.3-0.3,0.3-0.8,0-1.1l-3.3-3  v-3.5l3,1.6l1.1,4.1c0,0.3,0.5,0.5,0.8,0.5h0.3c0.5,0,0.8-0.5,0.5-1.1v-2.4l3,1.6c0.3,0,0.3,0,0.5,0c0.3,0,0.5-0.3,0.8-0.5  C22.6,23,22.3,22.4,21.7,22.1z"
   id="path8" />
<path
   style="fill:#fffffe;stroke:#ffffff;stroke-width:0.0353075;stroke-opacity:0.501961;fill-opacity:1"
   d="m 11.406193,29.284172 c -0.136593,-0.06807 -0.20886,-0.134001 -0.280566,-0.255979 l -0.09658,-0.164298 -0.01007,-1.7986 -0.01007,-1.798601 -0.978539,0.973457 C 8.895004,27.369613 8.884297,27.376694 8.307786,27.379449 8.0167058,27.38084 7.9741451,27.372181 7.8419132,27.284674 7.5342908,27.0811 7.4111787,26.649331 7.5683025,26.325091 7.6159811,26.226702 8.1187463,25.747353 9.323257,24.651875 l 1.688133,-1.535322 v -1.67402 -1.674022 l -0.291287,0.157828 c -0.160208,0.0868 -0.8309922,0.445419 -1.4906316,0.796922 -0.6596391,0.351501 -1.2110722,0.650823 -1.2254067,0.665157 -0.014335,0.01433 -0.2790392,0.967936 -0.5882321,2.119114 -0.3274913,1.219306 -0.5868875,2.120365 -0.6213819,2.158481 -0.032567,0.03599 -0.156759,0.117421 -0.2759816,0.180966 -0.1708442,0.09106 -0.2695386,0.118533 -0.4658533,0.129682 L 5.8035308,25.990807 5.656429,25.767898 C 5.4452925,25.447954 5.36107,25.263537 5.3383049,25.071321 c -0.01718,-0.145059 0.03538,-0.355557 0.3747394,-1.500798 0.2170974,-0.732641 0.3898229,-1.34452 0.3838344,-1.359731 -0.00599,-0.01521 -0.6225905,0.336609 -1.3702272,0.781822 L 3.3673121,23.802093 3.0428202,23.787056 C 2.753888,23.773667 2.6997194,23.760056 2.548515,23.662854 2.3348333,23.525487 2.0941365,23.280454 2.0453312,23.150606 1.9463867,22.887359 2.0311687,22.541752 2.2430648,22.34456 2.2982458,22.29321 3.0181412,21.891741 3.8428321,21.452411 4.667523,21.013081 5.3569937,20.638906 5.3749892,20.62091 5.4161882,20.57971 5.4843144,20.59453 3.9851936,20.318626 L 2.7317768,20.087943 2.6365164,19.974211 C 2.3680039,19.653631 2.180708,19.191384 2.2337293,18.98013 c 0.046109,-0.183712 0.599617,-0.439224 0.9701896,-0.447861 0.1060158,-0.0025 0.8949122,0.184529 2.2465367,0.532521 1.1457289,0.294981 2.1069761,0.537346 2.1361048,0.538589 0.047566,0.002 2.9481986,-1.531216 3.0084406,-1.590232 0.01373,-0.01345 -0.6530553,-0.386006 -1.4817341,-0.827913 L 7.6065783,16.381768 5.4631505,16.929494 C 3.1687094,17.515811 3.0727919,17.532722 2.746012,17.408555 2.4347736,17.290294 2.3483954,17.210422 2.2713541,16.969651 2.138737,16.555193 2.2211649,16.25174 2.5046957,16.110619 c 0.1087522,-0.05413 0.5898347,-0.156146 1.5775936,-0.33454 0.7816202,-0.141164 1.4211276,-0.265887 1.4211276,-0.277163 0,-0.01127 -0.6553958,-0.368463 -1.4564351,-0.79375 -1.5655558,-0.831183 -1.69111,-0.91667 -1.8606347,-1.266861 -0.10917,-0.225515 -0.1070664,-0.386037 0.00823,-0.627988 0.1342877,-0.281805 0.3541067,-0.417379 0.6767395,-0.417379 0.1820371,0 0.3152619,0.06452 2.0671803,1.001158 0.7476367,0.399712 1.3633546,0.71519 1.3682623,0.701062 0.00814,-0.02344 -0.7268981,-2.237086 -0.852457,-2.567254 -0.1572394,-0.413474 0.039335,-0.811782 0.4437774,-0.899199 0.083932,-0.01814 0.2399902,-0.05803 0.3467954,-0.08864 0.2983538,-0.08551 0.5856476,-0.0047 0.7217164,0.202937 0.030091,0.04592 0.1254218,0.360478 0.2118468,0.699009 0.3178736,1.245124 1.0009826,3.746924 1.03069,3.774768 0.035701,0.03346 2.8605418,1.539435 2.9523178,1.573933 0.0583,0.02191 0.06179,-0.07051 0.06179,-1.636632 V 13.49422 L 9.5283223,11.952922 C 8.5961206,11.105209 7.8079053,10.362304 7.776733,10.302023 7.7455607,10.241743 7.7126989,10.10364 7.7037068,9.9951291 7.6836324,9.7528777 7.7875011,9.5230873 7.9727247,9.3999765 8.2727284,9.2005764 8.8287251,9.1397974 9.0871298,9.2781548 9.1648064,9.3197451 9.7367882,9.8398203 10.3582,10.433878 l 1.129841,1.080104 0.01765,-1.7231073 c 0.0196,-1.9127716 0.01417,-1.8690376 0.258582,-2.0836346 0.286145,-0.2512387 0.785529,-0.2512387 1.071674,0 0.244441,0.2146219 0.238985,0.1706112 0.258582,2.0859349 l 0.01765,1.725407 0.897884,-0.997645 c 0.981052,-1.090054 1.007441,-1.1115061 1.478983,-1.2022642 0.17641,-0.033954 0.264223,-0.033741 0.419533,0.00102 0.496479,0.1111071 0.742944,0.6526968 0.498776,1.0960292 -0.03839,0.06971 -0.797793,0.785359 -1.742169,1.641799 l -1.674108,1.518223 -0.0012,1.671223 c -7.56e-4,1.018503 0.01162,1.666626 0.03167,1.659453 0.0181,-0.0065 0.69902,-0.367206 1.513152,-0.80163 l 1.480239,-0.78986 0.556007,-1.98178 c 0.541029,-1.928389 0.559319,-1.984804 0.678923,-2.094043 0.127597,-0.116541 0.518917,-0.27398 0.776603,-0.312449 0.144591,-0.02159 0.150409,-0.01842 0.272507,0.148366 0.201391,0.2751 0.340472,0.561979 0.36246,0.747637 0.01832,0.154697 -0.02173,0.29984 -0.375952,1.36253 -0.218052,0.654165 -0.388454,1.197393 -0.378672,1.207175 0.0098,0.0098 0.719098,-0.356644 1.576258,-0.814281 1.74589,-0.932129 1.705612,-0.917727 2.079598,-0.743625 0.273727,0.127427 0.38675,0.21778 0.465489,0.372122 0.146052,0.286287 0.05213,0.674008 -0.214023,0.883469 -0.06721,0.05289 -0.801916,0.457484 -1.632683,0.899088 -0.830766,0.441605 -1.505225,0.808177 -1.498797,0.814605 0.0097,0.0097 2.652096,0.508333 2.693704,0.508333 0.02818,0 0.365315,0.524163 0.417563,0.649211 0.03026,0.07241 0.06501,0.207024 0.07723,0.299135 0.01952,0.147148 0.01089,0.180934 -0.07109,0.278358 -0.123376,0.146624 -0.469126,0.316119 -0.70495,0.345583 -0.17003,0.02124 -0.409673,-0.03271 -2.353549,-0.529837 -1.190333,-0.304419 -2.189195,-0.555035 -2.219692,-0.556926 -0.05464,-0.0034 -2.909498,1.500405 -2.994282,1.577235 -0.03313,0.03002 0.318306,0.232621 1.461419,0.842507 l 1.505036,0.802981 2.146698,-0.548679 c 1.180684,-0.301774 2.206796,-0.57379 2.280248,-0.60448 0.176389,-0.0737 0.494045,-0.07476 0.634336,-0.0021 0.156279,0.08093 0.282558,0.243847 0.311201,0.401504 0.01348,0.07421 0.04724,0.203008 0.07502,0.286218 0.06369,0.190807 0.06468,0.434942 0.0023,0.584122 -0.05902,0.141265 -0.234146,0.2938 -0.365857,0.31867 -0.05387,0.01017 -0.729506,0.133856 -1.501419,0.274856 -0.771912,0.140998 -1.391559,0.267676 -1.376993,0.281505 0.01457,0.01383 0.716432,0.39312 1.559701,0.842869 0.843269,0.449749 1.600517,0.864029 1.682773,0.920622 0.223235,0.15359 0.581042,0.59816 0.481422,0.59816 -0.01614,0 -0.133248,0.08571 -0.260243,0.190456 -0.338768,0.279433 -0.400311,0.303851 -0.765854,0.303851 h -0.315678 l -1.488261,-0.79442 c -0.818543,-0.43693 -1.495528,-0.794419 -1.504412,-0.794419 -0.0089,0 -0.01615,0.540715 -0.01615,1.20159 0,0.925749 0.01089,1.227671 0.04742,1.315205 0.114716,0.274848 0.09659,0.583002 -0.04443,0.755205 -0.138845,0.169554 -0.284263,0.223172 -0.605639,0.223312 -0.371874,1.77e-4 -0.634808,-0.07349 -0.795328,-0.222791 -0.118067,-0.109814 -0.134426,-0.16282 -0.685522,-2.22128 -0.310512,-1.159831 -0.564568,-2.11561 -0.564568,-2.123953 0,-0.01759 -2.981584,-1.610659 -3.014494,-1.610659 -0.01207,0 -0.02195,0.792198 -0.02195,1.760441 v 1.76044 l 1.688132,1.535322 c 1.204511,1.095478 1.707276,1.574827 1.754955,1.673216 0.107264,0.221349 0.08859,0.502623 -0.04795,0.722272 -0.06135,0.09868 -0.111536,0.20978 -0.111536,0.24688 0,0.127918 -0.149378,0.183871 -0.449711,0.168452 -0.405848,-0.02084 -0.507369,-0.09654 -1.639895,-1.222885 l -0.977419,-0.972082 -0.01119,1.78043 c -0.01096,1.744429 -0.01273,1.783285 -0.0872,1.92166 -0.150579,0.279797 -0.37143,0.406036 -0.710347,0.406036 -0.151055,0 -0.255149,-0.02447 -0.390028,-0.09168 z"
   id="path840"
   transform="translate(0,-0.5)" /></svg>
