<svg xmlns="http://www.w3.org/2000/svg" width="215.086" height="238.985" viewBox="0 0 215.086 238.985">
  <path id="Icon_material-perm-contact-calendar" data-name="Icon material-perm-contact-calendar" d="M195.688,25.4H183.738V1.5h-23.9V25.4H64.246V1.5h-23.9V25.4H28.4A23.892,23.892,0,0,0,4.5,49.3V216.586a23.892,23.892,0,0,0,23.9,23.9H195.688a23.969,23.969,0,0,0,23.9-23.9V49.3A23.969,23.969,0,0,0,195.688,25.4ZM112.043,61.246A35.848,35.848,0,1,1,76.2,97.094,35.8,35.8,0,0,1,112.043,61.246Zm71.7,143.391H40.348V192.688c0-23.9,47.8-37.043,71.7-37.043s71.7,13.144,71.7,37.043Z" transform="translate(-4.5 -1.5)" fill="#562cdd" opacity="0.5"/>
</svg>
