<svg xmlns="http://www.w3.org/2000/svg" xmlns:xlink="http://www.w3.org/1999/xlink" width="256" height="256" viewBox="0 0 256 256">
  <defs>
    <linearGradient id="linear-gradient" x1="0.737" y1="-0.701" x2="-0.21" y2="3.163" gradientUnits="objectBoundingBox">
      <stop offset="0" stop-color="#7599f2"/>
      <stop offset="0.99" stop-color="#562ccd"/>
      <stop offset="1"/>
    </linearGradient>
    <linearGradient id="linear-gradient-2" x1="0.968" y1="-0.581" x2="0.021" y2="0.963" gradientUnits="objectBoundingBox">
      <stop offset="0" stop-color="#7599f2"/>
      <stop offset="1" stop-color="#562ccd"/>
      <stop offset="1"/>
    </linearGradient>
    <clipPath id="clip-logo_3">
      <rect width="256" height="256"/>
    </clipPath>
  </defs>
  <g id="logo_3" data-name="logo 3" clip-path="url(#clip-logo_3)">
    <g id="Group_1606" data-name="Group 1606" transform="translate(0 11.159)">
      <g id="Group_4" data-name="Group 4" transform="translate(0 161.261)">
        <path id="Path_9" data-name="Path 9" d="M683.5,844.805q2.434,0,2.433,2.569v3.109q0,2.567-2.433,2.567H650.245v11.76a14.755,14.755,0,0,0,.608,4.123,11.57,11.57,0,0,0,1.96,3.853,10.862,10.862,0,0,0,3.244,2.838,9.122,9.122,0,0,0,4.6,1.081H683.5a2.15,2.15,0,0,1,2.433,2.434v3.38q0,2.568-2.433,2.567h-24.06a16.725,16.725,0,0,1-7.57-1.621,17.069,17.069,0,0,1-5.475-4.259,18.691,18.691,0,0,1-3.379-5.879,19.692,19.692,0,0,1-1.15-6.624v-35.55a19.9,19.9,0,0,1,1.15-6.556,18.544,18.544,0,0,1,3.379-5.948,17.931,17.931,0,0,1,5.475-4.325,16.17,16.17,0,0,1,7.57-1.689H683.5q2.434,0,2.433,2.568v3.38a2.15,2.15,0,0,1-2.433,2.433H660.653a9.132,9.132,0,0,0-4.6,1.081,10.862,10.862,0,0,0-3.244,2.839,11.465,11.465,0,0,0-1.96,3.92,15.46,15.46,0,0,0-.608,4.19v11.76Z" transform="translate(-641.864 -812.635)" fill="#fff"/>
        <path id="Path_10" data-name="Path 10" d="M718.106,885.087q-8.381,0-11.964-4.461a17.346,17.346,0,0,1-3.582-11.219V815.2q0-2.568,2.433-2.568h3.515q2.432,0,2.433,2.568v52.312q0,5,1.689,7.1t6.826,2.094h12.166q5.138,0,6.692-2.094t1.554-7.1V815.2a2.271,2.271,0,0,1,2.569-2.568h3.379a2.27,2.27,0,0,1,2.568,2.568v54.2q0,6.894-3.514,11.288t-12.031,4.392Z" transform="translate(-642.139 -812.635)" fill="#fff"/>
        <path id="Path_11" data-name="Path 11" d="M795.3,812.635q8.38,0,11.962,4.461a17.346,17.346,0,0,1,3.582,11.219v54.2q0,2.57-2.433,2.568H804.9q-2.434,0-2.434-2.568V830.207q0-5-1.689-7.1t-6.826-2.094H781.785q-5.137,0-6.692,2.094t-1.554,7.1v52.312a2.27,2.27,0,0,1-2.568,2.568h-3.38a2.27,2.27,0,0,1-2.568-2.568v-54.2q0-6.893,3.514-11.287t12.031-4.393Z" transform="translate(-642.422 -812.635)" fill="#fff"/>
        <path id="Path_12" data-name="Path 12" d="M843.03,885.087a18.381,18.381,0,0,1-7.1-1.216,13.218,13.218,0,0,1-4.8-3.311,12.979,12.979,0,0,1-2.771-4.935,20.931,20.931,0,0,1-.879-6.218V828.45a17.34,17.34,0,0,1,3.65-11.354q3.648-4.462,12.03-4.461H858.44q8.65,0,12.1,4.461a18.029,18.029,0,0,1,3.447,11.354v40.957q0,6.894-3.447,11.288t-11.962,4.392Zm14.328-8.381q5.137,0,6.692-2.094t1.555-7.1V830.342a12.256,12.256,0,0,0-1.69-6.623q-1.69-2.7-6.69-2.7H844.382q-5.137,0-6.826,2.7a12.256,12.256,0,0,0-1.69,6.623v37.173q0,5,1.69,7.1t6.826,2.094Z" transform="translate(-642.706 -812.635)" fill="#fff"/>
        <ellipse id="Ellipse_2" data-name="Ellipse 2" cx="4.123" cy="4.123" rx="4.123" ry="4.123" transform="translate(247.635 32.171)" fill="#fff"/>
      </g>
      <g id="Group_5" data-name="Group 5" transform="translate(62.284)">
        <path id="Path_13" data-name="Path 13" d="M714.081,686.848h95.095a9.646,9.646,0,0,0,6.838-2.842L831.249,668.7l1.582-1.574a9.648,9.648,0,0,0-6.806-16.487H714.081a9.648,9.648,0,0,0-9.649,9.648V677.2A9.649,9.649,0,0,0,714.081,686.848Z" transform="translate(-704.432 -650.639)" fill="url(#linear-gradient)"/>
        <path id="Path_14" data-name="Path 14" d="M826.075,705.2H714.081a9.649,9.649,0,0,0-9.649,9.648v71.29a9.65,9.65,0,0,0,9.649,9.649h58.841a9.651,9.651,0,0,0,6.819-2.822l15.332-15.315,1.6-1.6a9.648,9.648,0,0,0-6.821-16.473H740.642V741.414H809.16a9.648,9.648,0,0,0,6.823-2.826l15.294-15.294,1.615-1.612A9.648,9.648,0,0,0,826.075,705.2Z" transform="translate(-704.432 -650.886)" fill="url(#linear-gradient-2)"/>
      </g>
    </g>
  </g>
</svg>
