<?xml version="1.0" encoding="UTF-8" standalone="no"?>
<svg
   xmlns:dc="http://purl.org/dc/elements/1.1/"
   xmlns:cc="http://creativecommons.org/ns#"
   xmlns:rdf="http://www.w3.org/1999/02/22-rdf-syntax-ns#"
   xmlns:svg="http://www.w3.org/2000/svg"
   xmlns="http://www.w3.org/2000/svg"
   xmlns:sodipodi="http://sodipodi.sourceforge.net/DTD/sodipodi-0.dtd"
   xmlns:inkscape="http://www.inkscape.org/namespaces/inkscape"
   width="151.471"
   height="269.587"
   viewBox="0 0 151.471 269.587"
   version="1.1"
   id="svg6"
   sodipodi:docname="img-empty-transactions.svg"
   inkscape:version="0.92.3 (2405546, 2018-03-11)">
  <metadata
     id="metadata12">
    <rdf:RDF>
      <cc:Work
         rdf:about="">
        <dc:format>image/svg+xml</dc:format>
        <dc:type
           rdf:resource="http://purl.org/dc/dcmitype/StillImage" />
      </cc:Work>
    </rdf:RDF>
  </metadata>
  <defs
     id="defs10" />
  <sodipodi:namedview
     pagecolor="#ffffff"
     bordercolor="#666666"
     borderopacity="1"
     objecttolerance="10"
     gridtolerance="10"
     guidetolerance="10"
     inkscape:pageopacity="0"
     inkscape:pageshadow="2"
     inkscape:window-width="1448"
     inkscape:window-height="829"
     id="namedview8"
     showgrid="false"
     inkscape:zoom="2.2286094"
     inkscape:cx="52.275964"
     inkscape:cy="122.89121"
     inkscape:window-x="0"
     inkscape:window-y="0"
     inkscape:window-maximized="0"
     inkscape:current-layer="svg6" />
  <g
     id="Group_1599"
     data-name="Group 1599"
     transform="translate(-1021.561 103.688) rotate(-45)"
     style="fill:#562cdd;fill-opacity:1;opacity:0.5">
    <path
       id="Subtraction_12"
       data-name="Subtraction 12"
       d="M41.892,83.784A41.781,41.781,0,1,1,57.67,80.72,41.851,41.851,0,0,1,41.892,83.784ZM26.05,36.567a2.747,2.747,0,0,0-2.744,2.743V59.581a2.747,2.747,0,0,0,2.743,2.744H42.781a2.725,2.725,0,0,0,1.938-.8l4.36-4.356.455-.455a2.743,2.743,0,0,0-1.939-4.684H33.6V46.864H53.085a2.76,2.76,0,0,0,1.94-.8l4.349-4.348.459-.458A2.744,2.744,0,0,0,57.9,36.567Zm0-15.443a2.747,2.747,0,0,0-2.744,2.743v4.809a2.746,2.746,0,0,0,2.742,2.743h27.04a2.724,2.724,0,0,0,1.945-.808l4.333-4.352.449-.448a2.743,2.743,0,0,0-1.935-4.688Z"
       transform="translate(754.059 738.656) rotate(45)"
       fill="rgba(86,44,221,0.5)"
       style="fill:#562cdd;fill-opacity:1" />
    <path
       id="Path_2680"
       data-name="Path 2680"
       d="M353.2,135.881l37.254-27.941L353.2,80V93.97H288v27.941h65.2Zm0,0"
       transform="translate(456.442 620.259)"
       fill="rgba(86,44,221,0.5)"
       style="fill:#562cdd;fill-opacity:1" />
    <path
       id="Path_2678"
       data-name="Path 2678"
       d="M37.258,288,0,315.941l37.254,27.941v-13.97h65.2V301.97h-65.2Zm0,0"
       transform="translate(660.922 551.661)"
       fill="rgba(86,44,221,0.5)"
       style="fill:#562cdd;fill-opacity:1" />
  </g>
</svg>
