<svg xmlns="http://www.w3.org/2000/svg" xmlns:xlink="http://www.w3.org/1999/xlink" width="256" height="256" viewBox="0 0 256 256">
  <defs>
    <clipPath id="clip-logo_1_1">
      <rect width="256" height="256"/>
    </clipPath>
  </defs>
  <g id="logo_1_1" data-name="logo 1 1" clip-path="url(#clip-logo_1_1)">
    <g id="Group_1604" data-name="Group 1604" transform="translate(15 2)">
      <g id="Group_1435" data-name="Group 1435">
        <g id="Group_4" data-name="Group 4" transform="translate(0 142.675)">
          <path id="Path_9" data-name="Path 9" d="M678.7,841.1q2.153,0,2.152,2.273v2.75q0,2.271-2.152,2.271h-29.42V858.8a13.046,13.046,0,0,0,.538,3.648,10.232,10.232,0,0,0,1.734,3.408,9.6,9.6,0,0,0,2.87,2.511,8.07,8.07,0,0,0,4.066.957H678.7a1.9,1.9,0,0,1,2.152,2.153v2.99q0,2.272-2.152,2.271H657.412a14.8,14.8,0,0,1-6.7-1.434,15.1,15.1,0,0,1-4.844-3.768,16.544,16.544,0,0,1-2.989-5.2,17.425,17.425,0,0,1-1.017-5.86V829.019a17.606,17.606,0,0,1,1.017-5.8,16.408,16.408,0,0,1,2.989-5.262,15.864,15.864,0,0,1,4.844-3.827,14.307,14.307,0,0,1,6.7-1.495H678.7q2.153,0,2.152,2.272v2.99a1.9,1.9,0,0,1-2.152,2.152H658.488a8.08,8.08,0,0,0-4.066.956,9.6,9.6,0,0,0-2.87,2.512,10.141,10.141,0,0,0-1.734,3.468,13.671,13.671,0,0,0-.538,3.707v10.4Z" transform="translate(-641.864 -812.635)" fill="#fff"/>
          <path id="Path_10" data-name="Path 10" d="M716.314,876.736q-7.415,0-10.585-3.947a15.347,15.347,0,0,1-3.169-9.926V814.907q0-2.272,2.153-2.272h3.11q2.152,0,2.152,2.272V861.19q0,4.426,1.495,6.279t6.039,1.853h10.763q4.546,0,5.92-1.853t1.375-6.279V814.907a2.009,2.009,0,0,1,2.273-2.272h2.989a2.008,2.008,0,0,1,2.272,2.272v47.957a15.5,15.5,0,0,1-3.109,9.987q-3.11,3.887-10.645,3.886Z" transform="translate(-649.103 -812.635)" fill="#fff"/>
          <path id="Path_11" data-name="Path 11" d="M791.812,812.635q7.414,0,10.584,3.947a15.347,15.347,0,0,1,3.169,9.926v47.957q0,2.273-2.153,2.272H800.3q-2.153,0-2.153-2.272V828.181q0-4.424-1.495-6.278t-6.039-1.853H779.853q-4.544,0-5.92,1.853t-1.375,6.278v46.283a2.008,2.008,0,0,1-2.272,2.272H767.3a2.008,2.008,0,0,1-2.272-2.272V826.507a15.492,15.492,0,0,1,3.109-9.985q3.11-3.887,10.644-3.887Z" transform="translate(-656.553 -812.635)" fill="#fff"/>
          <path id="Path_12" data-name="Path 12" d="M841.238,876.736a16.263,16.263,0,0,1-6.279-1.076,11.7,11.7,0,0,1-4.245-2.929,11.486,11.486,0,0,1-2.452-4.366,18.513,18.513,0,0,1-.778-5.5V826.627a15.343,15.343,0,0,1,3.23-10.046q3.228-3.947,10.644-3.947h13.514q7.653,0,10.7,3.947a15.952,15.952,0,0,1,3.05,10.046v36.237a15.7,15.7,0,0,1-3.05,9.987q-3.049,3.887-10.584,3.886Zm12.676-7.415q4.544,0,5.92-1.853t1.376-6.279V828.3a10.845,10.845,0,0,0-1.5-5.86q-1.5-2.393-5.92-2.392H842.435q-4.545,0-6.039,2.392a10.842,10.842,0,0,0-1.5,5.86V861.19q0,4.426,1.5,6.279t6.039,1.853Z" transform="translate(-664.003 -812.635)" fill="#fff"/>
          <ellipse id="Ellipse_2" data-name="Ellipse 2" cx="3.647" cy="3.647" rx="3.647" ry="3.647" transform="translate(219.093 28.463)" fill="#fff"/>
        </g>
        <g id="Group_5" data-name="Group 5" transform="translate(55.106)">
          <path id="Path_13" data-name="Path 13" d="M712.969,682.675H797.1a8.533,8.533,0,0,0,6.05-2.515l13.48-13.542,1.4-1.392a8.536,8.536,0,0,0-6.021-14.587H712.969a8.536,8.536,0,0,0-8.537,8.536v14.964A8.536,8.536,0,0,0,712.969,682.675Z" transform="translate(-704.432 -650.639)" fill="#fff"/>
          <path id="Path_14" data-name="Path 14" d="M812.055,705.2H712.969a8.537,8.537,0,0,0-8.537,8.536v63.074a8.537,8.537,0,0,0,8.537,8.537h52.059a8.539,8.539,0,0,0,6.033-2.5l13.565-13.55,1.416-1.415a8.536,8.536,0,0,0-6.035-14.574H736.469V737.241h60.621a8.536,8.536,0,0,0,6.036-2.5l13.531-13.532,1.428-1.426A8.536,8.536,0,0,0,812.055,705.2Z" transform="translate(-704.432 -657.147)" fill="#fff"/>
        </g>
      </g>
      <path id="Path_2691" data-name="Path 2691" d="M-10.357-8.4l-5.559,19.683h-2.7L-22.669-3.1a9.005,9.005,0,0,1-.316-2h-.055A10.168,10.168,0,0,1-23.4-3.132l-4.077,14.412H-30.15L-35.915-8.4h2.539l4.186,15.1a9.91,9.91,0,0,1,.329,1.977h.069A11.668,11.668,0,0,1-28.366,6.7l4.351-15.1h2.21l4.173,15.209A11.125,11.125,0,0,1-17.3,8.646h.055a11.027,11.027,0,0,1,.371-1.894L-12.855-8.4ZM20.76,11.281H18.207L16.121,5.763H7.775L5.812,11.281H3.246L10.795-8.4h2.388ZM15.366,3.69,12.277-4.7a8.03,8.03,0,0,1-.3-1.318H11.92A7.352,7.352,0,0,1,11.6-4.7L8.544,3.69Zm32.558,7.591H37.712V-8.4h2.306v17.6h7.906Zm27.288,0H65V-8.4h2.306v17.6h7.906Zm27.507,0H92.287V-8.4h9.993v2.086H94.593V.231h7.11V2.3h-7.11V9.195h8.126ZM132.2-6.316H126.52v17.6h-2.306v-17.6h-5.669V-8.4H132.2Z" transform="translate(64.915 241.719)" fill="#fff"/>
    </g>
  </g>
</svg>
