<svg xmlns="http://www.w3.org/2000/svg" width="94" height="94" viewBox="0 0 94 94">
  <g id="Сгруппировать_1560" data-name="Сгруппировать 1560" transform="translate(-2454.305 -1701.305)">
    <rect id="Прямоугольник_1775" data-name="Прямоугольник 1775" width="94" height="94" transform="translate(2454.305 1701.305)" fill="#fff"/>
    <g id="qr-code" transform="translate(2461.302 1708.302)">
      <g id="Сгруппировать_1513" data-name="Сгруппировать 1513" transform="translate(0.73 0.73)">
        <g id="Сгруппировать_1512" data-name="Сгруппировать 1512">
          <path id="Контур_2681" data-name="Контур 2681" d="M0,0V25.855H25.855V0ZM19.771,19.771H6.083V6.083H19.771Z"/>
        </g>
      </g>
      <g id="Сгруппировать_1515" data-name="Сгруппировать 1515" transform="translate(10.435 10.436)">
        <g id="Сгруппировать_1514" data-name="Сгруппировать 1514" transform="translate(0 0)">
          <rect id="Прямоугольник_1760" data-name="Прямоугольник 1760" width="7" height="7" transform="translate(-0.433 -0.433)"/>
        </g>
      </g>
      <g id="Сгруппировать_1517" data-name="Сгруппировать 1517" transform="translate(52.743 0.73)">
        <g id="Сгруппировать_1516" data-name="Сгруппировать 1516">
          <path id="Контур_2682" data-name="Контур 2682" d="M342,0V25.855h25.855V0Zm19.771,19.771H348.083V6.083h13.688Z" transform="translate(-342)"/>
        </g>
      </g>
      <g id="Сгруппировать_1519" data-name="Сгруппировать 1519" transform="translate(63.483 10.436)">
        <g id="Сгруппировать_1518" data-name="Сгруппировать 1518" transform="translate(0 0)">
          <rect id="Прямоугольник_1761" data-name="Прямоугольник 1761" width="6" height="7" transform="translate(-0.48 -0.433)"/>
        </g>
      </g>
      <g id="Сгруппировать_1521" data-name="Сгруппировать 1521" transform="translate(0.73 52.743)">
        <g id="Сгруппировать_1520" data-name="Сгруппировать 1520">
          <path id="Контур_2683" data-name="Контур 2683" d="M0,342v25.855H25.855V342Zm19.771,19.771H6.083V348.083H19.771Z" transform="translate(0 -342)"/>
        </g>
      </g>
      <g id="Сгруппировать_1523" data-name="Сгруппировать 1523" transform="translate(10.435 63.483)">
        <g id="Сгруппировать_1522" data-name="Сгруппировать 1522" transform="translate(0 0)">
          <rect id="Прямоугольник_1762" data-name="Прямоугольник 1762" width="7" height="6" transform="translate(-0.433 -0.48)"/>
        </g>
      </g>
      <g id="Сгруппировать_1525" data-name="Сгруппировать 1525" transform="translate(6.957 30.437)">
        <g id="Сгруппировать_1524" data-name="Сгруппировать 1524" transform="translate(0 0)">
          <rect id="Прямоугольник_1763" data-name="Прямоугольник 1763" width="6" height="7" transform="translate(0.046 -0.434)"/>
        </g>
      </g>
      <g id="Сгруппировать_1527" data-name="Сгруппировать 1527" transform="translate(12.897 36.774)">
        <g id="Сгруппировать_1526" data-name="Сгруппировать 1526">
          <path id="Контур_2684" data-name="Контур 2684" d="M86.083,243.083V237H80v6.083h5.931v6.084h6.083v-6.084Z" transform="translate(-80 -237)"/>
        </g>
      </g>
      <g id="Сгруппировать_1529" data-name="Сгруппировать 1529" transform="translate(43.481 12.175)">
        <g id="Сгруппировать_1528" data-name="Сгруппировать 1528" transform="translate(0 0)">
          <rect id="Прямоугольник_1764" data-name="Прямоугольник 1764" width="7" height="6" transform="translate(-0.479 -0.172)"/>
        </g>
      </g>
      <g id="Сгруппировать_1531" data-name="Сгруппировать 1531" transform="translate(32.176 6.957)">
        <g id="Сгруппировать_1530" data-name="Сгруппировать 1530" transform="translate(0 0)">
          <rect id="Прямоугольник_1765" data-name="Прямоугольник 1765" width="5" height="11" transform="translate(-0.173 0.046)"/>
        </g>
      </g>
      <g id="Сгруппировать_1533" data-name="Сгруппировать 1533" transform="translate(37.394 0)">
        <g id="Сгруппировать_1532" data-name="Сгруппировать 1532" transform="translate(0 0)">
          <rect id="Прямоугольник_1766" data-name="Прямоугольник 1766" width="6" height="7" transform="translate(-0.391 0.003)"/>
        </g>
      </g>
      <g id="Сгруппировать_1535" data-name="Сгруппировать 1535" transform="translate(31.147 18.524)">
        <g id="Сгруппировать_1534" data-name="Сгруппировать 1534">
          <path id="Контур_2685" data-name="Контур 2685" d="M206.083,117v6.083H200v6.083h12.167V117Z" transform="translate(-200 -117)"/>
        </g>
      </g>
      <g id="Сгруппировать_1537" data-name="Сгруппировать 1537" transform="translate(31.147 36.774)">
        <g id="Сгруппировать_1536" data-name="Сгруппировать 1536">
          <path id="Контур_2686" data-name="Контур 2686" d="M212.167,254.946v-5.931h-6.083V237H200v12.167h6.083V255.1h6.083v5.931h12.167v-6.083Z" transform="translate(-200 -237)"/>
        </g>
      </g>
      <g id="Сгруппировать_1539" data-name="Сгруппировать 1539" transform="translate(43.481 30.437)">
        <g id="Сгруппировать_1538" data-name="Сгруппировать 1538" transform="translate(0 0)">
          <rect id="Прямоугольник_1767" data-name="Прямоугольник 1767" width="7" height="13" transform="translate(-0.479 -0.434)"/>
        </g>
      </g>
      <g id="Сгруппировать_1541" data-name="Сгруппировать 1541" transform="translate(55.481 30.691)">
        <g id="Сгруппировать_1540" data-name="Сгруппировать 1540">
          <path id="Контур_2687" data-name="Контур 2687" d="M377.034,202.931V197h-11.1v6.083H360v6.083h6.083V215.1h17.034V202.931Zm0,6.083h-10.95v-5.931h10.95Z" transform="translate(-360 -197)"/>
        </g>
      </g>
      <g id="Сгруппировать_1543" data-name="Сгруппировать 1543" transform="translate(73.049 54.787)">
        <g id="Сгруппировать_1542" data-name="Сгруппировать 1542" transform="translate(0 0)">
          <rect id="Прямоугольник_1768" data-name="Прямоугольник 1768" width="6" height="12" transform="translate(-0.046 0.216)"/>
        </g>
      </g>
      <g id="Сгруппировать_1545" data-name="Сгруппировать 1545" transform="translate(49.569 43.481)">
        <g id="Сгруппировать_1544" data-name="Сгруппировать 1544" transform="translate(0 0)">
          <rect id="Прямоугольник_1769" data-name="Прямоугольник 1769" width="6" height="7" transform="translate(0.435 -0.478)"/>
        </g>
      </g>
      <g id="Сгруппировать_1547" data-name="Сгруппировать 1547" transform="translate(55.656 60.874)">
        <g id="Сгруппировать_1546" data-name="Сгруппировать 1546" transform="translate(0 0)">
          <rect id="Прямоугольник_1770" data-name="Прямоугольник 1770" width="7" height="6" transform="translate(0.347 0.129)"/>
        </g>
      </g>
      <g id="Сгруппировать_1549" data-name="Сгруппировать 1549" transform="translate(62.613 54.787)">
        <g id="Сгруппировать_1548" data-name="Сгруппировать 1548" transform="translate(0 0)">
          <rect id="Прямоугольник_1771" data-name="Прямоугольник 1771" width="5" height="6" transform="translate(0.39 0.216)"/>
        </g>
      </g>
      <g id="Сгруппировать_1551" data-name="Сгруппировать 1551" transform="translate(61.565 66.887)">
        <g id="Сгруппировать_1550" data-name="Сгруппировать 1550">
          <path id="Контур_2688" data-name="Контур 2688" d="M400,435v11.711h6.083v-5.627h4.867V435Z" transform="translate(-400 -435)"/>
        </g>
      </g>
      <g id="Сгруппировать_1553" data-name="Сгруппировать 1553" transform="translate(32.176 54.787)">
        <g id="Сгруппировать_1552" data-name="Сгруппировать 1552" transform="translate(0 0)">
          <rect id="Прямоугольник_1772" data-name="Прямоугольник 1772" width="5" height="12" transform="translate(-0.173 0.216)"/>
        </g>
      </g>
      <g id="Сгруппировать_1555" data-name="Сгруппировать 1555" transform="translate(37.231 66.431)">
        <g id="Сгруппировать_1554" data-name="Сгруппировать 1554">
          <path id="Контур_2689" data-name="Контур 2689" d="M252.167,438.083V432H240v12.167h6.083v-6.083h5.931v6.083H258.1v-6.083Z" transform="translate(-240 -432)"/>
        </g>
      </g>
      <g id="Сгруппировать_1557" data-name="Сгруппировать 1557" transform="translate(18.262 30.437)">
        <g id="Сгруппировать_1556" data-name="Сгруппировать 1556" transform="translate(0 0)">
          <rect id="Прямоугольник_1773" data-name="Прямоугольник 1773" width="14" height="7" transform="translate(-0.259 -0.434)"/>
        </g>
      </g>
      <g id="Сгруппировать_1559" data-name="Сгруппировать 1559" transform="translate(0 36.524)">
        <g id="Сгруппировать_1558" data-name="Сгруппировать 1558" transform="translate(0 0)">
          <rect id="Прямоугольник_1774" data-name="Прямоугольник 1774" width="7" height="13" transform="translate(0.003 0.478)"/>
        </g>
      </g>
    </g>
  </g>
</svg>
