<?xml version="1.0" encoding="UTF-8" standalone="no"?>
<svg
   xmlns:dc="http://purl.org/dc/elements/1.1/"
   xmlns:cc="http://creativecommons.org/ns#"
   xmlns:rdf="http://www.w3.org/1999/02/22-rdf-syntax-ns#"
   xmlns:svg="http://www.w3.org/2000/svg"
   xmlns="http://www.w3.org/2000/svg"
   xmlns:sodipodi="http://sodipodi.sourceforge.net/DTD/sodipodi-0.dtd"
   xmlns:inkscape="http://www.inkscape.org/namespaces/inkscape"
   width="216.141"
   height="211.143"
   viewBox="0 0 216.141 211.143"
   version="1.1"
   id="svg21"
   sodipodi:docname="img-empty-staking-on.svg"
   inkscape:version="1.0.1 (3bc2e813f5, 2020-09-07)">
  <metadata
     id="metadata27">
    <rdf:RDF>
      <cc:Work
         rdf:about="">
        <dc:format>image/svg+xml</dc:format>
        <dc:type
           rdf:resource="http://purl.org/dc/dcmitype/StillImage" />
      </cc:Work>
    </rdf:RDF>
  </metadata>
  <defs
     id="defs25" />
  <sodipodi:namedview
     pagecolor="#ffffff"
     bordercolor="#666666"
     borderopacity="1"
     objecttolerance="10"
     gridtolerance="10"
     guidetolerance="10"
     inkscape:pageopacity="0"
     inkscape:pageshadow="2"
     inkscape:window-width="1920"
     inkscape:window-height="1025"
     id="namedview23"
     showgrid="false"
     inkscape:zoom="4.1583191"
     inkscape:cx="108.0705"
     inkscape:cy="113.50741"
     inkscape:window-x="0"
     inkscape:window-y="27"
     inkscape:window-maximized="1"
     inkscape:current-layer="svg21"
     inkscape:document-rotation="0" />
  <g
     id="Сгруппировать_1774"
     data-name="Сгруппировать 1774"
     transform="translate(-4186 -1873)">
    <path
       id="Вычитание_8"
       data-name="Вычитание 8"
       d="M47.241,94.482A47.241,47.241,0,1,1,94.482,47.241,47.295,47.295,0,0,1,47.241,94.482ZM29.754,39.471a3.1,3.1,0,0,0-3.093,3.094V65.43a3.1,3.1,0,0,0,3.093,3.094H48.626a3.112,3.112,0,0,0,2.186-.9l4.918-4.913.513-.513a3.094,3.094,0,0,0-2.186-5.282H38.274V51.084H60.247a3.077,3.077,0,0,0,2.189-.906l4.9-4.9.518-.518a3.094,3.094,0,0,0-2.184-5.284Zm0-17.418a3.1,3.1,0,0,0-3.093,3.093v5.425a3.1,3.1,0,0,0,3.093,3.094h30.5a3.109,3.109,0,0,0,2.192-.912l4.888-4.909.507-.5a3.094,3.094,0,0,0-2.183-5.287Z"
       transform="translate(4246.83 1873)"
       fill="rgba(86,44,221,0.5)" />
    <g
       id="Сгруппировать_1479"
       data-name="Сгруппировать 1479"
       transform="translate(4216.768 2030.786)">
      <g
         id="Контур_2661"
         data-name="Контур 2661"
         transform="translate(-3 -18.37)"
         fill="none"
         opacity="0.5">
        <path
           d="M73.862,18.37V66.728H18.031A15.1,15.1,0,0,1,3,51.7V32.371H49.64A28,28,0,0,0,73.6,18.8Z"
           stroke="none"
           id="path3" />
        <path
           d="M 73.86167907714844 18.3699951171875 L 73.60399627685547 18.79945373535156 C 68.53632354736328 27.21694946289062 59.43166732788086 32.37055206298828 49.63986968994141 32.37055206298828 L 3 32.37055206298828 L 3 51.69644927978516 C 3 59.94216537475586 9.785537719726562 66.72770690917969 18.03126907348633 66.72770690917969 L 73.86167907714844 66.72770690917969 L 73.86167907714844 18.3699951171875 M 78.86167907714844 0.319091796875 L 78.86167907714844 18.3699951171875 L 78.86167907714844 66.72770690917969 L 78.86167907714844 71.72770690917969 L 73.86167907714844 71.72770690917969 L 18.03126907348633 71.72770690917969 C 15.33941268920898 71.72770690917969 12.71951293945312 71.19306945800781 10.24433898925781 70.13861083984375 C 7.865768432617188 69.12532043457031 5.727165222167969 67.67897796630859 3.887954711914062 65.83975219726562 C 2.048728942871094 64.00053405761719 0.6023788452148438 61.8619384765625 -0.4109039306640625 59.48337936401367 C -1.465347290039062 57.00820922851562 -2 54.3883056640625 -2 51.69644927978516 L -2 32.37055206298828 L -2 27.37055206298828 L 3 27.37055206298828 L 49.63986968994141 27.37055206298828 C 57.6372184753418 27.37055206298828 65.17720031738281 23.09945297241211 69.31826019287109 16.22409820556641 L 69.57426452636719 15.79743957519531 L 78.86167907714844 0.319091796875 Z"
           stroke="none"
           fill="#562cdd"
           id="path5" />
      </g>
    </g>
    <g
       id="Сгруппировать_1480"
       data-name="Сгруппировать 1480"
       transform="translate(4300.514 2030.871)">
      <g
         id="Контур_2662"
         data-name="Контур 2662"
         transform="translate(-12.75 -18.38)"
         fill="none"
         opacity="0.5">
        <path
           d="M83.612,32.295V51.621A15.1,15.1,0,0,1,68.58,66.652H12.75V18.38l.258.429A28.111,28.111,0,0,0,36.972,32.295Z"
           stroke="none"
           id="path9" />
        <path
           d="M 12.75 18.37998962402344 L 12.75 66.65182495117188 L 68.58041381835938 66.65182495117188 C 76.82614135742188 66.65182495117188 83.61167907714844 59.86627960205078 83.61167907714844 51.62056350708008 L 83.61167907714844 32.2946662902832 L 36.97179794311523 32.2946662902832 C 27.18000793457031 32.2946662902832 18.07535552978516 27.14106369018555 13.00766754150391 18.80943298339844 L 12.75 18.37998962402344 M 7.75 0.3287506103515625 L 17.03743743896484 15.80747985839844 L 17.28724670410156 16.22381591796875 C 21.44716644287109 23.05306625366211 28.98835754394531 27.2946662902832 36.97179794311523 27.2946662902832 L 83.61167907714844 27.2946662902832 L 88.61167907714844 27.2946662902832 L 88.61167907714844 32.2946662902832 L 88.61167907714844 51.62056350708008 C 88.61167907714844 54.31242370605469 88.0770263671875 56.93231964111328 87.0225830078125 59.40749359130859 C 86.00929260253906 61.78604888916016 84.56295776367188 63.92465209960938 82.72372436523438 65.76386260986328 C 80.88451385498047 67.60308837890625 78.74591064453125 69.0494384765625 76.36734008789062 70.06272125244141 C 73.89216613769531 71.11717987060547 71.27227020263672 71.65182495117188 68.58041381835938 71.65182495117188 L 12.75 71.65182495117188 L 7.75 71.65182495117188 L 7.75 66.65182495117188 L 7.75 18.37998962402344 L 7.75 0.3287506103515625 Z"
           stroke="none"
           fill="#562cdd"
           id="path11" />
      </g>
    </g>
    <g
       id="Объединение_7"
       data-name="Объединение 7"
       transform="translate(4389.955 3107.026)"
       fill="none"
       opacity="0.5">
      <path
         d="M-65.255-1075.116a15.132,15.132,0,0,1-12.883-7.292l-17.747-29.586-17.734,29.569a15.129,15.129,0,0,1-12.892,7.3h-66a6.454,6.454,0,0,1-5.609-3.273,6.438,6.438,0,0,1,.086-6.484l25.768-42.946a6.443,6.443,0,0,1,5.522-3.127H-25.022a6.443,6.443,0,0,1,5.522,3.127l25.768,42.946a6.454,6.454,0,0,1,.086,6.493,6.454,6.454,0,0,1-5.609,3.272Z"
         stroke="none"
         id="path15" />
      <path
         d="M 0.7460978627204895 -1075.11572265625 C 3.065410375595093 -1075.11572265625 5.211910247802734 -1076.369384765625 6.354910373687744 -1078.38818359375 C 7.49700403213501 -1080.406860351562 7.462816715240479 -1082.889038085938 6.26850414276123 -1084.881591796875 L -19.49940299987793 -1127.827880859375 C -20.65859031677246 -1129.760986328125 -22.75468254089355 -1130.954467773438 -25.02180862426758 -1130.954467773438 L -95.88330841064453 -1130.954467773438 L -166.7448120117188 -1130.954467773438 C -169.0119018554688 -1130.954467773438 -171.1080017089844 -1129.760986328125 -172.2671813964844 -1127.827880859375 L -198.0351257324219 -1084.881591796875 C -199.2294006347656 -1082.897094726562 -199.2636260986328 -1080.406860351562 -198.1214904785156 -1078.397094726562 C -196.9794006347656 -1076.37841796875 -194.8320007324219 -1075.123779296875 -192.5127105712891 -1075.123779296875 L -126.512092590332 -1075.123779296875 C -121.2732162475586 -1075.123779296875 -116.3339996337891 -1077.915649414062 -113.6195907592773 -1082.424682617188 L -95.88530731201172 -1111.993286132812 L -78.13799285888672 -1082.407470703125 C -75.43258666992188 -1077.915649414062 -70.49340057373047 -1075.11572265625 -65.25449371337891 -1075.11572265625 L 0.7460978627204895 -1075.11572265625 M 0.7460978627204895 -1070.11572265625 L -65.25449371337891 -1070.11572265625 C -72.23512268066406 -1070.11572265625 -78.81299591064453 -1073.837158203125 -82.42111968994141 -1079.827758789062 L -82.42343139648438 -1079.83154296875 L -82.42571258544922 -1079.83544921875 L -95.88497161865234 -1102.272827148438 L -109.3316802978516 -1079.852905273438 L -109.3337783813476 -1079.849487304688 L -109.3358993530273 -1079.845947265625 C -112.9459609985352 -1073.84912109375 -119.5274963378906 -1070.123779296875 -126.512092590332 -1070.123779296875 L -192.5127105712891 -1070.123779296875 C -196.6286468505859 -1070.123779296875 -200.4453430175781 -1072.3505859375 -202.4733123779297 -1075.93505859375 C -204.5017852783203 -1079.511596679688 -204.4441223144531 -1083.924072265625 -202.3225860595703 -1087.4541015625 L -202.3225860595703 -1087.4541015625 L -176.5546569824219 -1130.400390625 C -175.5430297851562 -1132.08740234375 -174.1018981933594 -1133.493530273438 -172.3877716064453 -1134.465454101562 C -170.6699676513672 -1135.439575195312 -168.7186584472656 -1135.954467773438 -166.7448120117188 -1135.954467773438 L -95.88330841064453 -1135.954467773438 L -25.02180862426758 -1135.954467773438 C -23.04796409606934 -1135.954467773438 -21.09665298461914 -1135.439575195312 -19.37880897521973 -1134.465454101562 C -17.6646842956543 -1133.493530273438 -16.22355842590332 -1132.08740234375 -15.21127700805664 -1130.399169921875 L 10.55597305297852 -1087.4541015625 C 12.67378520965576 -1083.920776367188 12.73109817504883 -1079.504272460938 10.70669174194336 -1075.926147460938 C 8.677253723144531 -1072.341552734375 4.860878944396973 -1070.11572265625 0.7460978627204895 -1070.11572265625 Z"
         stroke="none"
         fill="#562cdd"
         id="path17" />
    </g>
  </g>
  <path
     style="fill:#562cdd;fill-opacity:0.501961;stroke:#562cdd;stroke-width:0.240482;stroke-opacity:0.501961"
     d="M 102.18727,94.007619 C 80.223706,91.006226 63.40639,73.667922 61.188002,51.738225 59.94149,39.415926 63.948041,26.60171 72.075908,16.915259 87.044998,-0.92427148 113.05756,-5.0695113 132.88135,7.2255914 145.27987,14.915397 153.46931,28.104163 154.953,42.771116 c 1.3781,13.62305 -3.62467,27.609018 -13.41286,37.497622 -7.01991,7.091933 -15.44854,11.509444 -25.65398,13.445457 -2.3134,0.438862 -11.23604,0.62998 -13.69889,0.293424 z m 12.16937,-29.017417 c 2.92596,-2.933205 3.5665,-3.701373 3.70102,-4.438455 0.19843,-1.087191 -0.40283,-2.446483 -1.40719,-3.181323 -0.65034,-0.47582 -1.02814,-0.499354 -9.07818,-0.565481 l -8.399613,-0.069 V 53.979282 51.22262 h 11.166743 c 7.20694,0 11.40682,-0.08952 11.84373,-0.252441 0.77954,-0.290685 6.67137,-6.037892 7.1866,-7.010191 0.74514,-1.406174 0.0785,-3.492293 -1.34648,-4.213325 -0.46006,-0.232796 -4.8835,-0.30136 -19.61973,-0.304106 -18.932417,-0.0035 -19.028887,-9.62e-4 -19.664194,0.498653 -1.374935,1.081524 -1.350276,0.824997 -1.350276,14.04695 0,13.221953 -0.02466,12.965426 1.350276,14.04695 0.625753,0.492218 0.851489,0.502198 11.358694,0.502198 h 10.72026 z m 8.33507,-31.660627 c 0.35717,-0.185832 2.01514,-1.730343 3.6844,-3.432247 3.19531,-3.257805 3.54139,-3.846583 3.23161,-5.497871 -0.19138,-1.02015 -1.30943,-2.161452 -2.31428,-2.362423 -0.42128,-0.08425 -9.00565,-0.153192 -19.07639,-0.153192 -17.274196,0 -18.356794,0.02487 -19.12978,0.439424 -1.441907,0.773304 -1.6982,1.606492 -1.6982,5.520691 0,3.73455 0.16632,4.389995 1.350276,5.321294 0.633203,0.498079 0.772394,0.502199 16.970714,0.502199 13.55827,0 16.44257,-0.05739 16.98165,-0.337875 z"
     id="path856" />
  <path
     style="fill:#8562cd;fill-opacity:0.81568629;stroke:#562cdd;stroke-width:0.240482;stroke-opacity:0.501961"
     d="M 100.49532,93.536468 C 88.398987,91.264716 78.251517,85.13161 70.870868,75.631524 68.99933,73.222553 67.481081,70.734528 65.954832,67.575384 59.636166,54.496544 59.654407,39.983988 66.006066,26.813722 72.583086,13.176167 85.072397,3.8096186 100.37508,1.0381557 104.07592,0.36789842 111.59519,0.30979748 115.16471,0.92387707 128.74883,3.260807 139.96783,10.508626 147.27226,21.666347 c 5.70733,8.718108 8.52721,20.133868 7.43688,30.106837 -2.02074,18.483252 -14.47074,34.081839 -31.81344,39.859 -5.45625,1.817573 -7.02578,2.058796 -14.10375,2.167616 -4.9862,0.07666 -6.79136,0.01936 -8.29663,-0.263332 z m 13.95401,-28.295587 c 1.81869,-1.879171 3.45776,-3.778202 3.64239,-4.220071 0.63097,-1.510136 -0.45466,-3.707774 -2.04291,-4.135445 -0.50548,-0.13611 -4.32222,-0.248627 -8.76549,-0.258405 l -7.870164,-0.01732 v -2.633388 -2.633391 l 11.242524,-9.62e-4 c 11.00561,-9.62e-4 11.26002,-0.01157 12.07296,-0.507152 0.45675,-0.278437 2.20175,-1.877555 3.87778,-3.553592 2.6601,-2.660092 3.06878,-3.174228 3.21604,-4.045832 0.12779,-0.756361 0.05,-1.266808 -0.32075,-2.104952 -0.8458,-1.912078 0.32417,-1.81178 -21.12288,-1.810763 -18.511202,9.62e-4 -18.963729,0.0119 -19.733229,0.481075 -0.433156,0.264094 -0.920132,0.77772 -1.082168,1.141389 -0.423135,0.949681 -0.423135,25.14237 0,26.092052 0.162036,0.363669 0.649012,0.877294 1.082168,1.141389 0.756358,0.46115 1.217624,0.480211 11.642299,0.481074 l 10.85474,9.62e-4 z m 8.20852,-31.708194 c 0.92272,-0.350818 6.36244,-5.905447 6.90689,-7.052797 0.74566,-1.571368 0.1903,-3.296385 -1.36696,-4.245904 -0.74437,-0.453872 -1.35743,-0.4686 -19.52608,-0.469109 -17.383895,-4.81e-4 -18.817962,0.03027 -19.582168,0.419944 -1.655897,0.844363 -1.820706,1.335692 -1.820706,5.427887 0,4.103086 0.220096,4.987592 1.423726,5.721564 0.705273,0.430075 1.51721,0.451666 17.017598,0.452522 10.88956,4.81e-4 16.49898,-0.08351 16.9477,-0.254107 z"
     id="path843" />
  <path
     style="fill:#7454bb;fill-opacity:1;stroke:#562cdd;stroke-width:0.240482;stroke-opacity:0.501961"
     d="M 101.33701,93.432794 C 94.794987,92.559328 86.163437,88.933062 80.294854,84.592616 77.556721,82.567476 72.804755,77.82851 70.771772,75.095591 64.415954,66.551531 61.023038,55.695204 61.506997,45.45106 62.530484,23.786516 77.827118,5.8650388 98.97439,1.5544069 c 5.00779,-1.0207817 13.6728,-1.01570381 18.35466,0.010756 15.83873,3.4725166 28.32485,14.0029351 34.10798,28.7656481 2.70259,6.898946 3.84318,15.431064 2.95637,22.114919 -2.14696,16.181642 -11.75861,29.726995 -26.02856,36.6811 -3.51069,1.710845 -8.6532,3.443187 -11.69372,3.939231 -2.62862,0.428844 -13.00945,0.677113 -15.33411,0.366733 z m 13.06478,-27.865375 c 1.69663,-1.805448 3.29212,-3.607284 3.54552,-4.004079 0.92637,-1.450548 0.32884,-3.641484 -1.2451,-4.565369 -0.75802,-0.444949 -1.36118,-0.483364 -8.93075,-0.56879 l -8.117822,-0.09162 v -2.362082 -2.362082 l 11.253492,-0.07515 c 10.59245,-0.07073 11.29522,-0.102102 11.96397,-0.534019 0.39076,-0.252378 2.07776,-1.821803 3.74889,-3.487613 3.46588,-3.454858 3.78165,-4.047393 3.20022,-6.005278 -0.50459,-1.699117 -0.90549,-1.95067 -3.51035,-2.202638 -2.6439,-0.255742 -34.311794,-0.269854 -36.343711,-0.01621 -1.049364,0.131 -1.551259,0.334022 -2.044096,0.826861 l -0.653227,0.653225 V 53.988151 67.20372 l 0.648983,0.648983 c 0.402583,0.402583 1.041712,0.712793 1.683372,0.817051 0.568915,0.09244 5.687712,0.170817 11.375109,0.174176 l 10.34071,0.0061 3.08479,-3.282634 z m 9.04175,-32.368468 c 1.19201,-0.826216 5.10004,-4.886641 5.9838,-6.217145 1.12586,-1.694978 0.74262,-3.535219 -1.0085,-4.84262 -0.65766,-0.491009 -0.84895,-0.495823 -19.70465,-0.495823 -20.73652,0 -19.707542,-0.06491 -20.964968,1.322503 -0.423181,0.466927 -0.489835,0.934619 -0.559645,3.926861 -0.131298,5.627803 0.24433,6.614379 2.635519,6.922138 0.710292,0.09142 8.334868,0.149758 16.943504,0.129642 l 15.65207,-0.03657 z"
     id="path845" />
  <path
     style="fill:#562cdd;fill-opacity:0;stroke:#562cdd;stroke-width:0.240482;stroke-opacity:0.501961"
     d="M 101.93821,93.269449 C 95.783971,92.538714 88.244297,89.585003 81.919105,85.426847 78.192441,82.976954 72.31391,77.070856 69.775908,73.226706 60.722361,59.513877 59.219241,43.700381 65.564859,28.924579 71.506072,15.09044 83.908381,4.9716862 98.811951,1.7990563 102.28261,1.0602316 111.13919,0.85543247 115.00396,1.4246331 c 16.86643,2.4840784 31.56885,14.8000069 36.91167,30.9201699 2.11858,6.392123 3.0087,13.881149 2.31596,19.485332 -2.18429,17.670597 -13.12472,32.110095 -29.14379,38.46485 -5.0214,1.991983 -7.81258,2.600685 -13.22767,2.884692 -4.45779,0.233799 -8.40792,0.269539 -9.92192,0.08977 z m 12.62781,-27.593688 c 1.74062,-1.904517 3.31439,-3.676375 3.49727,-3.937464 1.05453,-1.505562 0.32751,-4.058231 -1.40696,-4.940029 -0.8303,-0.422118 -1.63262,-0.475717 -8.83771,-0.590378 l -7.924501,-0.126114 v -2.093355 -2.093358 l 11.002041,-0.132092 c 6.86963,-0.08248 11.24757,-0.228018 11.65573,-0.387484 0.86065,-0.336251 5.99157,-5.317398 6.91801,-6.716069 0.79191,-1.195565 0.90179,-2.22476 0.38904,-3.644001 -0.59725,-1.653139 -0.93783,-1.749613 -7.04856,-1.996663 -7.62217,-0.308153 -32.907074,-0.09591 -33.858182,0.284209 -0.396795,0.158583 -0.964933,0.51642 -1.262529,0.795196 l -0.541084,0.506864 v 13.38314 13.383141 l 0.541084,0.487108 c 0.297596,0.267909 0.703409,0.584368 0.901806,0.703243 0.507398,0.304022 5.291239,0.47652 14.711515,0.530477 l 8.09826,0.04638 z m 8.98192,-32.319285 c 1.288,-0.878045 5.63623,-5.509101 6.19064,-6.593294 0.82364,-1.610694 0.51397,-3.232124 -0.86298,-4.518614 l -0.64348,-0.601205 h -19.53036 c -18.254121,0 -19.572671,0.02772 -20.177701,0.424193 -1.378264,0.903169 -1.496398,1.35542 -1.488239,5.697399 0.01186,6.313204 -0.264551,6.090314 7.796778,6.28704 3.246764,0.07923 10.827072,0.09754 16.845132,0.04069 l 10.94192,-0.103376 z"
     id="path851" />
</svg>
