<svg xmlns="http://www.w3.org/2000/svg" width="206.144" height="206.143" viewBox="0 0 206.144 206.143">
  <g id="Group_1598" data-name="Group 1598" transform="translate(-4191 -1873)">
    <path id="Subtraction_8" data-name="Subtraction 8" d="M47.241,94.482A47.241,47.241,0,1,1,94.482,47.241,47.295,47.295,0,0,1,47.241,94.482ZM29.754,39.471a3.1,3.1,0,0,0-3.093,3.094V65.43a3.1,3.1,0,0,0,3.093,3.094H48.626a3.112,3.112,0,0,0,2.186-.9l4.918-4.913.513-.513a3.094,3.094,0,0,0-2.186-5.282H38.274V51.084H60.247a3.077,3.077,0,0,0,2.189-.906l4.9-4.9.518-.518a3.094,3.094,0,0,0-2.184-5.284Zm0-17.418a3.1,3.1,0,0,0-3.093,3.093v5.425a3.1,3.1,0,0,0,3.093,3.094h30.5a3.109,3.109,0,0,0,2.192-.912l4.888-4.909.507-.5a3.094,3.094,0,0,0-2.183-5.287Z" transform="translate(4246.83 1873)" fill="rgba(86,44,221,0.5)"/>
    <g id="Group_1479" data-name="Group 1479" transform="translate(4216.768 2030.786)">
      <path id="Path_2661" data-name="Path 2661" d="M73.862,18.37V66.728H18.031A15.1,15.1,0,0,1,3,51.7V32.371H49.64A28,28,0,0,0,73.6,18.8Z" transform="translate(-3 -18.37)" fill="rgba(86,44,221,0.5)"/>
    </g>
    <g id="Group_1480" data-name="Group 1480" transform="translate(4300.514 2030.871)">
      <path id="Path_2662" data-name="Path 2662" d="M83.612,32.295V51.621A15.1,15.1,0,0,1,68.58,66.652H12.75V18.38l.258.429A28.111,28.111,0,0,0,36.972,32.295Z" transform="translate(-12.75 -18.38)" fill="rgba(86,44,221,0.5)"/>
    </g>
    <path id="Union_7" data-name="Union 7" d="M-65.255-1075.116a15.132,15.132,0,0,1-12.883-7.292l-17.747-29.586-17.734,29.569a15.129,15.129,0,0,1-12.892,7.3h-66a6.454,6.454,0,0,1-5.609-3.273,6.438,6.438,0,0,1,.086-6.484l25.768-42.946a6.443,6.443,0,0,1,5.522-3.127H-25.022a6.443,6.443,0,0,1,5.522,3.127l25.768,42.946a6.454,6.454,0,0,1,.086,6.493,6.454,6.454,0,0,1-5.609,3.272Z" transform="translate(4389.955 3107.026)" fill="rgba(86,44,221,0.5)"/>
  </g>
</svg>
